SplineFontDB: 3.0
FontName: KacstArt
FullName: KacstArt
FamilyName: KacstArt
Weight: Medium
Copyright: KACST holds the copyright of the included Arabic font which is donated under GPL by KACST. \nURW Design and Development holds the copyright of the included Latin font which is donated under GPL by URW. 
Version: 1
ItalicAngle: 0
UnderlinePosition: -800
UnderlineWidth: 100
Ascent: 1638
Descent: 410
LayerCount: 2
Layer: 0 1 "Back" 
Layer: 1 1 "Fore" 
NeedsXUIDChange: 1
XUID: [1021 77 208135075 14257671]
FSType: 0
OS2Version: 2
OS2_WeightWidthSlopeOnly: 0
OS2_UseTypoMetrics: 1
CreationTime: 1163510894
ModificationTime: 1215812582
PfmFamily: 17
TTFWeight: 500
TTFWidth: 5
LineGap: 59
VLineGap: 0
Panose: 2 0 0 0 0 0 0 0 0 0
OS2TypoAscent: -38
OS2TypoAOffset: 1
OS2TypoDescent: -190
OS2TypoDOffset: 1
OS2TypoLinegap: 59
OS2WinAscent: -1
OS2WinAOffset: 1
OS2WinDescent: -25
OS2WinDOffset: 1
HheadAscent: -564
HheadAOffset: 1
HheadDescent: 425
HheadDOffset: 1
OS2SubXSize: 1434
OS2SubYSize: 1331
OS2SubXOff: 0
OS2SubYOff: 293
OS2SupXSize: 1434
OS2SupYSize: 1331
OS2SupXOff: 0
OS2SupYOff: 928
OS2StrikeYSize: 102
OS2StrikeYPos: 530
OS2Vendor: 'GLYF'
OS2CodePages: 00000040.00000000
OS2UnicodeRanges: 00002000.00000000.00000000.00000000
Lookup: 1 0 0 "'aalt' Access All Alternates in Latin lookup 0"  {"'aalt' Access All Alternates in Latin lookup 0 subtable"  } ['aalt' ('latn' <'dflt' > ) ]
Lookup: 3 0 0 "'aalt' Access All Alternates in Latin lookup 1"  {"'aalt' Access All Alternates in Latin lookup 1 subtable"  } ['aalt' ('latn' <'dflt' > ) ]
Lookup: 1 1 0 "'isol' Isolated Forms in Arabic lookup 2"  {"'isol' Isolated Forms in Arabic lookup 2 subtable"  } ['isol' ('arab' <'dflt' > ) ]
Lookup: 1 1 0 "'init' Initial Forms in Arabic lookup 3"  {"'init' Initial Forms in Arabic lookup 3 subtable"  } ['init' ('arab' <'dflt' > ) ]
Lookup: 1 1 0 "'medi' Medial Forms in Arabic lookup 4"  {"'medi' Medial Forms in Arabic lookup 4 subtable"  } ['medi' ('arab' <'dflt' > ) ]

StartChar: arabiccomma
Encoding: 1548 1548 1
Width: 403
Flags: W
LayerCount: 2
Fore
SplineSet
277 379 m 1,0,1
 239 351 239 351 207 314 c 128,-1,2
 175 277 175 277 158.5 241 c 128,-1,3
 142 205 142 205 144 174.5 c 128,-1,4
 146 144 146 144 175 130 c 1,5,-1
 177 131 l 1,6,7
 185 138 185 138 192.5 142.5 c 128,-1,8
 200 147 200 147 207 151 c 1,9,-1
 209 153 l 1,10,11
 213 155 213 155 214 156 c 1,12,13
 219 158 219 158 222.5 159.5 c 128,-1,14
 226 161 226 161 229 163 c 1,15,-1
 234 164 l 1,16,-1
 235 164 l 1,17,18
 237 165 237 165 247 165 c 0,19,20
 254 165 254 165 260 164 c 128,-1,21
 266 163 266 163 271 161 c 0,22,23
 274 160 274 160 278 158 c 1,24,25
 279 157 279 157 280 157 c 1,26,27
 283 155 283 155 285.5 153 c 128,-1,28
 288 151 288 151 291 149 c 0,29,30
 295 145 295 145 296 143 c 2,31,32
 297 142 297 142 297.5 141 c 128,-1,33
 298 140 298 140 299 139 c 256,34,35
 300 138 300 138 302 134 c 0,36,37
 305 130 305 130 309 120 c 1,38,-1
 317 82 l 1,39,-1
 317 79 l 2,40,41
 317 74 317 74 316.5 70.5 c 128,-1,42
 316 67 316 67 315 63 c 2,43,44
 315 59 315 59 313 51 c 1,45,46
 312 49 312 49 312 48 c 1,47,-1
 311 46 l 1,48,49
 311 44 311 44 310 43 c 1,50,51
 310 41 310 41 308 37 c 0,52,53
 307 35 307 35 306.5 33.5 c 128,-1,54
 306 32 306 32 305 30 c 0,55,56
 303 26 303 26 299 20 c 0,57,58
 296 14 296 14 291 9 c 0,59,60
 285 3 l 128,-1,61
 282 0 282 0 279 -2 c 0,62,63
 277 -3 277 -3 276.5 -3.5 c 128,-1,64
 276 -4 276 -4 274 -5 c 1,65,66
 272 -7 272 -7 269.5 -8.5 c 128,-1,67
 267 -10 267 -10 264 -11 c 1,68,69
 263 -12 263 -12 263 -22 c 256,70,71
 263 -32 263 -32 262 -32 c 1,72,-1
 262 -12 l 1,73,74
 260 -14 260 -14 257 -14.5 c 128,-1,75
 254 -15 254 -15 252 -16 c 1,76,77
 251 -17 251 -17 249 -17 c 1,78,-1
 244 -19 l 1,79,-1
 241 -19 l 1,80,81
 239 -20 239 -20 236 -20 c 0,82,83
 231 -21 231 -21 221 -21 c 2,84,-1
 208 -21 l 1,85,-1
 199 -19 l 2,86,87
 188 -17 188 -17 179 -13 c 2,88,-1
 173 -10 l 1,89,90
 172 -9 172 -9 168 -7 c 2,91,92
 167 -6 167 -6 163 -4 c 2,93,94
 162 -3 162 -3 161 -2.5 c 128,-1,95
 160 -2 160 -2 158 0 c 0,96,97
 140 15 140 15 128 39 c 2,98,-1
 124 50 l 1,99,-1
 124 49 l 1,100,-1
 122 52 l 1,101,102
 120 60 120 60 119 63 c 2,103,-1
 112 88 l 1,104,-1
 111 98 l 1,105,106
 110 100 110 100 110 106 c 0,107,108
 110 107 110 107 109.5 107.5 c 128,-1,109
 109 108 109 108 109 110 c 2,110,-1
 109 143 l 2,111,112
 109 148 109 148 110 151 c 1,113,-1
 110 156 l 1,114,115
 116 193 116 193 132 230 c 128,-1,116
 148 267 148 267 170 300 c 128,-1,117
 192 333 192 333 219.5 360 c 128,-1,118
 247 387 247 387 276 405 c 1,119,-1
 277 379 l 1,0,1
EndSplineSet
EndChar

StartChar: arabicsemicolon
Encoding: 1563 1563 2
Width: 852
Flags: W
LayerCount: 2
Fore
SplineSet
580 371 m 0,0,1
 580 350 580 350 572.5 330.5 c 128,-1,2
 565 311 565 311 550.5 296.5 c 128,-1,3
 536 282 536 282 515 273 c 128,-1,4
 494 264 494 264 467 264 c 0,5,6
 405 264 405 264 349 335 c 256,7,8
 293 406 293 406 293 500 c 0,9,10
 293 597 293 597 346 668 c 0,11,12
 384 721 384 721 438 749 c 1,13,-1
 469 758 l 1,14,15
 429 732 429 732 398 674 c 0,16,17
 373 618 373 618 373 561 c 0,18,19
 373 506 373 506 406 451 c 1,20,-1
 438 471 l 1,21,22
 448 475 448 475 457.5 477.5 c 128,-1,23
 467 480 467 480 475 481 c 0,24,25
 497 481 497 481 516.5 472 c 128,-1,26
 536 463 536 463 550 448 c 128,-1,27
 564 433 564 433 572 413 c 128,-1,28
 580 393 580 393 580 371 c 0,0,1
539 74 m 0,29,30
 539 56 539 56 532 40.5 c 128,-1,31
 525 25 525 25 513.5 13.5 c 128,-1,32
 502 2 502 2 486.5 -5 c 128,-1,33
 471 -12 471 -12 453 -12 c 0,34,35
 421 -12 421 -12 396 15 c 0,36,37
 371 40 371 40 371 74 c 0,38,39
 371 106 371 106 396 131 c 0,40,41
 421 158 421 158 453 158 c 0,42,43
 486 158 486 158 512 132 c 0,44,45
 539 108 539 108 539 74 c 0,29,30
EndSplineSet
EndChar

StartChar: arabicquestionmark
Encoding: 1567 1567 3
Width: 1000
Flags: W
LayerCount: 2
Fore
SplineSet
1000 399 m 1,0,1
 846 535 846 535 690 399 c 1,2,-1
 690 948 l 1,3,-1
 273 948 l 1,4,-1
 273 2001 l 2,5,6
 273 2118 273 2118 630 2118 c 0,7,8
 999 2118 999 2118 999 1992 c 2,9,-1
 999 1508 l 1,10,11
 808 1481 808 1481 708 1349 c 1,12,-1
 708 1970 l 2,13,14
 708 2003 708 2003 648 2003 c 0,15,16
 585 2003 585 2003 585 1970 c 2,17,-1
 585 1106 l 1,18,-1
 1000 1106 l 1,19,-1
 1000 399 l 1,0,1
1000 219 m 0,20,21
 1000 155 1000 155 954 110 c 0,22,23
 909 65 909 65 844 65 c 0,24,25
 780 65 780 65 735 110 c 256,26,27
 690 155 690 155 690 219 c 0,28,29
 690 282 690 282 735 327 c 256,30,31
 780 372 780 372 844 372 c 0,32,33
 909 372 909 372 954 327 c 0,34,35
 1000 282 1000 282 1000 219 c 0,20,21
EndSplineSet
EndChar

StartChar: hamza
Encoding: 1569 1569 4
Width: 721
Flags: W
AnchorPoint: "ArabicBelow" 360 -198 basechar 0
AnchorPoint: "ArabicAbove" 360 603 basechar 0
LayerCount: 2
Fore
SplineSet
216 52 m 1,0,1
 142 66 142 66 127 212 c 1,2,3
 183 108 183 108 308 132 c 1,4,-1
 308 284 l 2,5,6
 308 353 308 353 441 353 c 0,7,8
 570 353 570 353 570 290 c 2,9,-1
 570 258 l 1,10,11
 524 242 524 242 470 168 c 1,12,-1
 470 267 l 2,13,14
 470 287 470 287 443 287 c 0,15,16
 407 287 407 287 407 267 c 2,17,-1
 407 142 l 1,18,-1
 592 142 l 1,19,-1
 592 52 l 1,20,-1
 216 52 l 1,0,1
EndSplineSet
Substitution2: "'isol' Isolated Forms in Arabic lookup 2 subtable" hamzaisolated
Substitution2: "'aalt' Access All Alternates in Latin lookup 0 subtable" hamzaisolated
EndChar

StartChar: alefwithmaddaabove
Encoding: 1570 1570 5
Width: 691
Flags: W
AnchorPoint: "ArabicBelow" 345 -451 basechar 0
AnchorPoint: "ArabicAbove" 345 2170 basechar 0
LayerCount: 2
Fore
SplineSet
636 1920 m 1,0,1
 636 1780 636 1780 625 1750 c 0,2,3
 593 1666 593 1666 463 1666 c 2,4,-1
 150 1666 l 2,5,6
 109 1666 109 1666 76 1619 c 0,7,8
 43 1573 43 1573 37 1528 c 1,9,10
 37 1670 37 1670 46 1699 c 0,11,12
 78 1782 78 1782 208 1782 c 2,13,-1
 522 1782 l 2,14,15
 564 1782 564 1782 597 1828 c 0,16,17
 630 1875 630 1875 636 1920 c 1,0,1
585 1657 m 1,18,19
 468 1525 468 1525 274 1498 c 1,20,-1
 274 0 l 2,21,22
 274 -201 274 -201 676 -201 c 1,23,24
 612 -158 612 -158 585 -85 c 1,25,-1
 585 1657 l 1,18,19
EndSplineSet
Substitution2: "'fina' Terminal Forms in Arabic lookup 5 subtable" alefwithmaddaabovefinal
Substitution2: "'isol' Isolated Forms in Arabic lookup 2 subtable" alefwithmaddaaboveisolated
AlternateSubs2: "'aalt' Access All Alternates in Latin lookup 1 subtable" alefwithmaddaaboveisolated alefwithmaddaabovefinal
EndChar

StartChar: alefwithhamzaabove
Encoding: 1571 1571 6
Width: 495
Flags: W
AnchorPoint: "ArabicBelow" 247 -451 basechar 0
AnchorPoint: "ArabicAbove" 247 2172 basechar 0
LayerCount: 2
Fore
SplineSet
390 -66 m 1,0,1
 417 -157 417 -157 482 -201 c 1,2,3
 80 -201 80 -201 80 0 c 2,4,-1
 80 1488 l 1,5,6
 273 1515 273 1515 390 1647 c 1,7,-1
 390 -66 l 1,0,1
132 1669 m 1,8,9
 70 1679 70 1679 57 1804 c 1,10,11
 103 1716 103 1716 209 1738 c 1,12,-1
 209 1864 l 2,13,14
 209 1922 209 1922 320 1922 c 0,15,16
 428 1922 428 1922 428 1869 c 2,17,-1
 428 1841 l 1,18,19
 390 1828 390 1828 343 1766 c 1,20,-1
 343 1850 l 2,21,22
 343 1865 343 1865 323 1865 c 0,23,24
 292 1865 292 1865 292 1850 c 2,25,-1
 292 1744 l 1,26,-1
 446 1744 l 1,27,-1
 446 1669 l 1,28,-1
 132 1669 l 1,8,9
EndSplineSet
Substitution2: "'fina' Terminal Forms in Arabic lookup 5 subtable" alefwithhamzaabovefinal
Substitution2: "'isol' Isolated Forms in Arabic lookup 2 subtable" alefwithhamzaaboveisolated
AlternateSubs2: "'aalt' Access All Alternates in Latin lookup 1 subtable" alefwithhamzaaboveisolated alefwithhamzaabovefinal
EndChar

StartChar: wawwithhamzaabove
Encoding: 1572 1572 7
Width: 828
Flags: W
AnchorPoint: "ArabicBelow" 414 -466 basechar 0
AnchorPoint: "ArabicAbove" 414 1719 basechar 0
LayerCount: 2
Fore
SplineSet
825 0 m 2,0,1
 825 -216 825 -216 327 -216 c 0,2,3
 213 -216 213 -216 83 -135 c 1,4,5
 311 -142 311 -142 404 -109 c 0,6,7
 484 -79 484 -79 494 0 c 1,8,-1
 78 0 l 1,9,-1
 78 872 l 2,10,11
 78 1025 78 1025 320 1025 c 2,12,-1
 825 1025 l 1,13,-1
 825 0 l 2,0,1
513 158 m 1,14,-1
 513 908 l 1,15,16
 478 908 478 908 435 888 c 0,17,18
 389 864 389 864 389 833 c 2,19,-1
 389 158 l 1,20,-1
 513 158 l 1,14,-1
282 1196 m 1,21,22
 214 1208 214 1208 201 1341 c 1,23,24
 252 1246 252 1246 365 1269 c 1,25,-1
 365 1406 l 2,26,27
 365 1469 365 1469 486 1469 c 0,28,29
 603 1469 603 1469 603 1412 c 2,30,-1
 603 1383 l 1,31,32
 561 1367 561 1367 512 1301 c 1,33,-1
 512 1391 l 2,34,35
 512 1409 512 1409 488 1409 c 0,36,37
 455 1409 455 1409 455 1391 c 2,38,-1
 455 1278 l 1,39,-1
 623 1278 l 1,40,-1
 623 1196 l 1,41,-1
 282 1196 l 1,21,22
EndSplineSet
Substitution2: "'fina' Terminal Forms in Arabic lookup 5 subtable" wawwithhamzaabovefinal
Substitution2: "'isol' Isolated Forms in Arabic lookup 2 subtable" wawwithhamzaaboveisolated
AlternateSubs2: "'aalt' Access All Alternates in Latin lookup 1 subtable" wawwithhamzaaboveisolated wawwithhamzaabovefinal
EndChar

StartChar: alefwithhamzabelow
Encoding: 1573 1573 8
Width: 516
Flags: W
AnchorPoint: "ArabicBelow" 258 -752 basechar 0
AnchorPoint: "ArabicAbove" 258 2137 basechar 0
LayerCount: 2
Fore
SplineSet
409 -85 m 1,0,1
 436 -157 436 -157 501 -201 c 1,2,3
 99 -201 99 -201 99 0 c 2,4,-1
 99 1728 l 1,5,6
 292 1755 292 1755 409 1887 c 1,7,-1
 409 -85 l 1,0,1
111 -502 m 1,8,9
 43 -491 43 -491 28 -357 c 1,10,11
 79 -453 79 -453 193 -429 c 1,12,-1
 193 -292 l 2,13,14
 193 -229 193 -229 313 -229 c 0,15,16
 430 -229 430 -229 430 -286 c 2,17,-1
 430 -316 l 1,18,19
 390 -331 390 -331 339 -397 c 1,20,-1
 339 -307 l 2,21,22
 339 -291 339 -291 316 -291 c 0,23,24
 282 -291 282 -291 282 -307 c 2,25,-1
 282 -421 l 1,26,-1
 450 -421 l 1,27,-1
 450 -502 l 1,28,-1
 111 -502 l 1,8,9
EndSplineSet
Substitution2: "'fina' Terminal Forms in Arabic lookup 5 subtable" alefwithhamzabelowfinal
Substitution2: "'isol' Isolated Forms in Arabic lookup 2 subtable" alefwithhamzabelowisolated
AlternateSubs2: "'aalt' Access All Alternates in Latin lookup 1 subtable" alefwithhamzabelowisolated alefwithhamzabelowfinal
EndChar

StartChar: yehwithhamzaabove
Encoding: 1574 1574 9
Width: 1347
Flags: W
AnchorPoint: "ArabicBelow" 673 -469 basechar 0
AnchorPoint: "ArabicAbove" 673 1744 basechar 0
LayerCount: 2
Fore
SplineSet
1347 0 m 2,0,1
 1347 -101 1347 -101 1150 -163 c 0,2,3
 967 -219 967 -219 714 -219 c 0,4,5
 454 -219 454 -219 277 -162 c 0,6,7
 78 -99 78 -99 78 8 c 2,8,-1
 78 951 l 2,9,10
 78 1079 78 1079 259 1113 c 0,11,12
 316 1122 316 1122 526 1122 c 1,13,14
 481 1116 481 1116 434 1083 c 0,15,16
 388 1050 388 1050 388 1009 c 2,17,-1
 388 9 l 2,18,19
 388 -102 388 -102 711 -102 c 0,20,21
 1038 -102 1038 -102 1038 8 c 2,22,-1
 1038 109 l 1,23,-1
 600 109 l 1,24,-1
 600 912 l 2,25,26
 600 1029 600 1029 967 1029 c 0,27,28
 1347 1029 1347 1029 1347 901 c 2,29,-1
 1347 655 l 1,30,31
 1132 625 1132 625 1035 496 c 1,32,-1
 1035 880 l 2,33,34
 1035 913 1035 913 973 913 c 0,35,36
 910 913 910 913 910 880 c 2,37,-1
 910 282 l 1,38,-1
 1347 282 l 1,39,-1
 1347 0 l 2,0,1
157 1221 m 1,40,41
 89 1233 89 1233 76 1368 c 1,42,43
 126 1272 126 1272 240 1296 c 1,44,-1
 240 1432 l 2,45,46
 240 1494 240 1494 360 1494 c 0,47,48
 477 1494 477 1494 477 1438 c 2,49,-1
 477 1408 l 1,50,51
 436 1393 436 1393 385 1327 c 1,52,-1
 385 1416 l 2,53,54
 385 1434 385 1434 363 1434 c 0,55,56
 330 1434 330 1434 330 1416 c 2,57,-1
 330 1303 l 1,58,-1
 496 1303 l 1,59,-1
 496 1221 l 1,60,-1
 157 1221 l 1,40,41
EndSplineSet
Substitution2: "'fina' Terminal Forms in Arabic lookup 5 subtable" yehwithhamzaabovefinal
Substitution2: "'medi' Medial Forms in Arabic lookup 4 subtable" yehwithhamzaabovemedial
Substitution2: "'init' Initial Forms in Arabic lookup 3 subtable" yehwithhamzaaboveinitial
Substitution2: "'isol' Isolated Forms in Arabic lookup 2 subtable" yehwithhamzaaboveisolated
AlternateSubs2: "'aalt' Access All Alternates in Latin lookup 1 subtable" yehwithhamzaaboveisolated yehwithhamzaaboveinitial yehwithhamzaabovemedial yehwithhamzaabovefinal
EndChar

StartChar: arabicalef
Encoding: 1575 1575 10
Width: 508
Flags: W
AnchorPoint: "ArabicBelow" 254 -451 basechar 0
AnchorPoint: "ArabicAbove" 254 2147 basechar 0
LayerCount: 2
Fore
SplineSet
409 -86 m 1,0,1
 436 -157 436 -157 501 -201 c 1,2,3
 99 -201 99 -201 99 0 c 2,4,-1
 99 1738 l 1,5,6
 292 1765 292 1765 409 1897 c 1,7,-1
 409 -86 l 1,0,1
EndSplineSet
Substitution2: "'fina' Terminal Forms in Arabic lookup 5 subtable" aleffinal
Substitution2: "'isol' Isolated Forms in Arabic lookup 2 subtable" alefisolated
AlternateSubs2: "'aalt' Access All Alternates in Latin lookup 1 subtable" alefisolated aleffinal
EndChar

StartChar: beh
Encoding: 1576 1576 11
Width: 1058
Flags: W
AnchorPoint: "ArabicBelow" 529 -607 basechar 0
AnchorPoint: "ArabicAbove" 529 1380 basechar 0
LayerCount: 2
Fore
SplineSet
78 0 m 1,0,-1
 78 882 l 2,1,2
 78 1018 78 1018 168 1065 c 0,3,4
 241 1100 241 1100 495 1130 c 1,5,6
 410 1085 410 1085 396 1041 c 1,7,-1
 389 951 l 1,8,-1
 389 158 l 1,9,-1
 747 158 l 1,10,-1
 747 816 l 1,11,12
 942 843 942 843 1059 976 c 1,13,-1
 1059 416 l 1,14,-1
 1058 416 l 1,15,-1
 1058 0 l 1,16,-1
 78 0 l 1,0,-1
662 -303 m 2,17,18
 662 -357 662 -357 606 -357 c 2,19,-1
 497 -357 l 2,20,21
 444 -357 444 -357 444 -303 c 2,22,-1
 444 -195 l 2,23,24
 444 -142 444 -142 497 -142 c 2,25,-1
 606 -142 l 2,26,27
 662 -142 662 -142 662 -195 c 2,28,-1
 662 -303 l 2,17,18
EndSplineSet
Substitution2: "'fina' Terminal Forms in Arabic lookup 5 subtable" behfinal
Substitution2: "'medi' Medial Forms in Arabic lookup 4 subtable" behmedial
Substitution2: "'init' Initial Forms in Arabic lookup 3 subtable" behinitial
Substitution2: "'isol' Isolated Forms in Arabic lookup 2 subtable" behisolated
AlternateSubs2: "'aalt' Access All Alternates in Latin lookup 1 subtable" behisolated behinitial behmedial behfinal
EndChar

StartChar: tehmarbuta
Encoding: 1577 1577 12
Width: 827
Flags: W
AnchorPoint: "ArabicBelow" 413 -250 basechar 0
AnchorPoint: "ArabicAbove" 413 1659 basechar 0
LayerCount: 2
Fore
SplineSet
704 1353 m 2,0,-1
 704 1247 l 2,1,2
 704 1194 704 1194 649 1194 c 2,3,-1
 541 1194 l 2,4,5
 488 1194 488 1194 488 1247 c 2,6,-1
 488 1355 l 2,7,8
 488 1409 488 1409 541 1409 c 2,9,-1
 649 1409 l 2,10,11
 704 1409 704 1409 704 1353 c 2,0,-1
450 1353 m 2,12,-1
 450 1247 l 2,13,14
 450 1194 450 1194 395 1194 c 2,15,-1
 287 1194 l 2,16,17
 234 1194 234 1194 234 1247 c 2,18,-1
 234 1355 l 2,19,20
 234 1409 234 1409 287 1409 c 2,21,-1
 395 1409 l 2,22,23
 450 1409 450 1409 450 1353 c 2,12,-1
825 0 m 1,24,-1
 78 0 l 1,25,-1
 78 872 l 2,26,27
 78 1025 78 1025 320 1025 c 2,28,-1
 825 1025 l 1,29,-1
 825 0 l 1,24,-1
513 158 m 1,30,-1
 513 908 l 1,31,32
 478 908 478 908 435 888 c 0,33,34
 389 864 389 864 389 833 c 2,35,-1
 389 158 l 1,36,-1
 513 158 l 1,30,-1
EndSplineSet
Substitution2: "'fina' Terminal Forms in Arabic lookup 5 subtable" tehmarbutafinal
Substitution2: "'isol' Isolated Forms in Arabic lookup 2 subtable" tehmarbutaisolated
AlternateSubs2: "'aalt' Access All Alternates in Latin lookup 1 subtable" tehmarbutaisolated tehmarbutafinal
EndChar

StartChar: teh
Encoding: 1578 1578 13
Width: 1057
Flags: W
AnchorPoint: "ArabicBelow" 528 -250 basechar 0
AnchorPoint: "ArabicAbove" 528 1659 basechar 0
LayerCount: 2
Fore
SplineSet
78 0 m 1,0,-1
 78 882 l 2,1,2
 78 1018 78 1018 168 1065 c 0,3,4
 241 1100 241 1100 495 1130 c 1,5,6
 410 1085 410 1085 396 1041 c 1,7,-1
 388 951 l 1,8,-1
 388 158 l 1,9,-1
 745 158 l 1,10,-1
 745 813 l 1,11,12
 940 840 940 840 1057 972 c 1,13,-1
 1057 0 l 1,14,-1
 78 0 l 1,0,-1
565 1247 m 2,15,16
 565 1194 565 1194 511 1194 c 2,17,-1
 402 1194 l 2,18,19
 349 1194 349 1194 349 1247 c 2,20,-1
 349 1353 l 2,21,22
 349 1409 349 1409 402 1409 c 2,23,-1
 511 1409 l 2,24,25
 565 1409 565 1409 565 1353 c 2,26,-1
 565 1247 l 2,15,16
807 1247 m 2,27,28
 807 1194 807 1194 753 1194 c 2,29,-1
 643 1194 l 2,30,31
 591 1194 591 1194 591 1247 c 2,32,-1
 591 1353 l 2,33,34
 591 1409 591 1409 643 1409 c 2,35,-1
 753 1409 l 2,36,37
 807 1409 807 1409 807 1353 c 2,38,-1
 807 1247 l 2,27,28
EndSplineSet
Substitution2: "'fina' Terminal Forms in Arabic lookup 5 subtable" tehfinal
Substitution2: "'medi' Medial Forms in Arabic lookup 4 subtable" tehmedial
Substitution2: "'init' Initial Forms in Arabic lookup 3 subtable" tehinitial
Substitution2: "'isol' Isolated Forms in Arabic lookup 2 subtable" tehisolated
AlternateSubs2: "'aalt' Access All Alternates in Latin lookup 1 subtable" tehisolated tehinitial tehmedial tehfinal
EndChar

StartChar: theh
Encoding: 1579 1579 14
Width: 1057
Flags: W
AnchorPoint: "ArabicBelow" 528 -250 basechar 0
AnchorPoint: "ArabicAbove" 528 1893 basechar 0
LayerCount: 2
Fore
SplineSet
78 0 m 1,0,-1
 78 892 l 2,1,2
 78 1028 78 1028 168 1075 c 0,3,4
 236 1109 236 1109 495 1139 c 1,5,6
 409 1094 409 1094 396 1051 c 1,7,-1
 388 961 l 1,8,-1
 388 157 l 1,9,-1
 745 157 l 1,10,-1
 745 822 l 1,11,12
 940 849 940 849 1057 981 c 1,13,-1
 1057 0 l 1,14,-1
 78 0 l 1,0,-1
682 1483 m 2,15,16
 682 1429 682 1429 628 1429 c 2,17,-1
 519 1429 l 2,18,19
 466 1429 466 1429 466 1483 c 2,20,-1
 466 1589 l 2,21,22
 466 1643 466 1643 519 1643 c 2,23,-1
 628 1643 l 2,24,25
 682 1643 682 1643 682 1589 c 2,26,-1
 682 1483 l 2,15,16
807 1259 m 2,27,28
 807 1207 807 1207 753 1207 c 2,29,-1
 643 1207 l 2,30,31
 591 1207 591 1207 591 1259 c 2,32,-1
 591 1367 l 2,33,34
 591 1421 591 1421 643 1421 c 2,35,-1
 753 1421 l 2,36,37
 807 1421 807 1421 807 1367 c 2,38,-1
 807 1259 l 2,27,28
558 1259 m 2,39,40
 558 1207 558 1207 502 1207 c 2,41,-1
 394 1207 l 2,42,43
 340 1207 340 1207 340 1259 c 2,44,-1
 340 1367 l 2,45,46
 340 1421 340 1421 394 1421 c 2,47,-1
 502 1421 l 2,48,49
 558 1421 558 1421 558 1367 c 2,50,-1
 558 1259 l 2,39,40
EndSplineSet
Substitution2: "'fina' Terminal Forms in Arabic lookup 5 subtable" thehfinal
Substitution2: "'medi' Medial Forms in Arabic lookup 4 subtable" thehmedial
Substitution2: "'init' Initial Forms in Arabic lookup 3 subtable" thehinitial
Substitution2: "'isol' Isolated Forms in Arabic lookup 2 subtable" thehisolated
AlternateSubs2: "'aalt' Access All Alternates in Latin lookup 1 subtable" thehisolated thehinitial thehmedial thehfinal
EndChar

StartChar: jeem
Encoding: 1580 1580 15
Width: 1062
Flags: W
AnchorPoint: "ArabicBelow" 531 -831 basechar 0
AnchorPoint: "ArabicAbove" 531 1268 basechar 0
LayerCount: 2
Fore
SplineSet
658 -195 m 2,0,-1
 658 -303 l 2,1,2
 658 -357 658 -357 604 -357 c 2,3,-1
 496 -357 l 2,4,5
 442 -357 442 -357 442 -303 c 2,6,-1
 442 -196 l 2,7,8
 442 -143 442 -143 496 -143 c 2,9,-1
 604 -143 l 2,10,11
 658 -143 658 -143 658 -195 c 2,0,-1
1057 -207 m 1,12,13
 648 -207 648 -207 648 -2 c 1,14,15
 625 1 625 1 597 1 c 0,16,17
 306 1 306 1 306 -269 c 0,18,19
 306 -343 306 -343 402 -428 c 0,20,21
 502 -519 502 -519 649 -581 c 1,22,23
 422 -581 422 -581 246 -444 c 0,24,25
 78 -317 78 -317 78 -164 c 0,26,27
 78 -16 78 -16 201 73 c 0,28,29
 326 162 326 162 555 162 c 0,30,31
 578 162 578 162 601 160.5 c 128,-1,32
 624 159 624 159 648 157 c 1,33,-1
 648 870 l 2,34,35
 648 903 648 903 586 903 c 0,36,37
 525 903 525 903 525 870 c 2,38,-1
 525 297 l 1,39,40
 423 431 423 431 234 458 c 1,41,-1
 234 891 l 2,42,43
 234 1018 234 1018 603 1018 c 0,44,45
 960 1018 960 1018 957 901 c 2,46,-1
 957 -123 l 1,47,48
 970 -154 970 -154 1057 -207 c 1,12,13
EndSplineSet
Substitution2: "'fina' Terminal Forms in Arabic lookup 5 subtable" jeemfinal
Substitution2: "'medi' Medial Forms in Arabic lookup 4 subtable" jeemmedial
Substitution2: "'init' Initial Forms in Arabic lookup 3 subtable" jeeminitial
Substitution2: "'isol' Isolated Forms in Arabic lookup 2 subtable" jeemisolated
AlternateSubs2: "'aalt' Access All Alternates in Latin lookup 1 subtable" jeemisolated jeeminitial jeemmedial jeemfinal
EndChar

StartChar: hah
Encoding: 1581 1581 16
Width: 1057
Flags: W
AnchorPoint: "ArabicBelow" 528 -831 basechar 0
AnchorPoint: "ArabicAbove" 528 1268 basechar 0
LayerCount: 2
Fore
SplineSet
1057 -207 m 1,0,1
 648 -207 648 -207 648 -2 c 1,2,3
 625 1 625 1 597 1 c 0,4,5
 306 1 306 1 306 -269 c 0,6,7
 306 -343 306 -343 402 -428 c 0,8,9
 502 -519 502 -519 649 -581 c 1,10,11
 422 -581 422 -581 246 -444 c 0,12,13
 78 -317 78 -317 78 -164 c 0,14,15
 78 -16 78 -16 201 73 c 0,16,17
 326 162 326 162 555 162 c 0,18,19
 578 162 578 162 601 160.5 c 128,-1,20
 624 159 624 159 648 157 c 1,21,-1
 648 870 l 2,22,23
 648 903 648 903 586 903 c 0,24,25
 525 903 525 903 525 870 c 2,26,-1
 525 297 l 1,27,28
 423 431 423 431 234 458 c 1,29,-1
 234 891 l 2,30,31
 234 1018 234 1018 603 1018 c 0,32,33
 960 1018 960 1018 957 901 c 2,34,-1
 957 -123 l 1,35,36
 970 -154 970 -154 1057 -207 c 1,0,1
EndSplineSet
Substitution2: "'fina' Terminal Forms in Arabic lookup 5 subtable" hahfinal
Substitution2: "'medi' Medial Forms in Arabic lookup 4 subtable" hahmedial
Substitution2: "'init' Initial Forms in Arabic lookup 3 subtable" hahinitial
Substitution2: "'isol' Isolated Forms in Arabic lookup 2 subtable" hahisolated
AlternateSubs2: "'aalt' Access All Alternates in Latin lookup 1 subtable" hahisolated hahinitial hahmedial hahfinal
EndChar

StartChar: khah
Encoding: 1582 1582 17
Width: 1062
Flags: W
AnchorPoint: "ArabicBelow" 531 -830 basechar 0
AnchorPoint: "ArabicAbove" 531 1656 basechar 0
LayerCount: 2
Fore
SplineSet
696 1352 m 2,0,-1
 696 1245 l 2,1,2
 696 1191 696 1191 641 1191 c 2,3,-1
 533 1191 l 2,4,5
 480 1191 480 1191 480 1245 c 2,6,-1
 480 1352 l 2,7,8
 480 1406 480 1406 533 1406 c 2,9,-1
 641 1406 l 2,10,11
 696 1406 696 1406 696 1352 c 2,0,-1
1057 -207 m 1,12,13
 648 -207 648 -207 648 -1 c 1,14,15
 625 2 625 2 597 2 c 0,16,17
 306 2 306 2 306 -268 c 0,18,19
 306 -342 306 -342 402 -427 c 0,20,21
 502 -518 502 -518 649 -580 c 1,22,23
 421 -580 421 -580 246 -444 c 0,24,25
 78 -317 78 -317 78 -163 c 0,26,27
 78 -16 78 -16 201 73 c 0,28,29
 326 162 326 162 555 162 c 0,30,31
 578 162 578 162 601 161 c 128,-1,32
 624 160 624 160 648 158 c 1,33,-1
 648 870 l 2,34,35
 648 903 648 903 586 903 c 0,36,37
 525 903 525 903 525 870 c 2,38,-1
 525 298 l 1,39,40
 423 431 423 431 234 458 c 1,41,-1
 234 891 l 2,42,43
 234 1019 234 1019 603 1019 c 0,44,45
 960 1019 960 1019 957 902 c 2,46,-1
 957 -123 l 1,47,48
 970 -154 970 -154 1057 -207 c 1,12,13
EndSplineSet
Substitution2: "'fina' Terminal Forms in Arabic lookup 5 subtable" khahfinal
Substitution2: "'medi' Medial Forms in Arabic lookup 4 subtable" khahmedial
Substitution2: "'init' Initial Forms in Arabic lookup 3 subtable" khahinitial
Substitution2: "'isol' Isolated Forms in Arabic lookup 2 subtable" khahisolated
AlternateSubs2: "'aalt' Access All Alternates in Latin lookup 1 subtable" khahisolated khahinitial khahmedial khahfinal
EndChar

StartChar: dal
Encoding: 1583 1583 18
Width: 750
Flags: W
AnchorPoint: "ArabicBelow" 375 -250 basechar 0
AnchorPoint: "ArabicAbove" 375 1276 basechar 0
LayerCount: 2
Fore
SplineSet
750 0 m 1,0,-1
 78 0 l 1,1,-1
 78 157 l 1,2,-1
 442 157 l 1,3,-1
 442 801 l 2,4,5
 442 928 442 928 135 928 c 1,6,7
 314 1026 314 1026 349 1026 c 0,8,9
 750 1026 750 1026 750 831 c 2,10,-1
 750 0 l 1,0,-1
EndSplineSet
Substitution2: "'fina' Terminal Forms in Arabic lookup 5 subtable" dalfinal
Substitution2: "'isol' Isolated Forms in Arabic lookup 2 subtable" dalisolated
AlternateSubs2: "'aalt' Access All Alternates in Latin lookup 1 subtable" dalisolated dalfinal
EndChar

StartChar: thal
Encoding: 1584 1584 19
Width: 748
Flags: W
AnchorPoint: "ArabicBelow" 374 -250 basechar 0
AnchorPoint: "ArabicAbove" 374 1670 basechar 0
LayerCount: 2
Fore
SplineSet
618 1366 m 2,0,-1
 618 1258 l 2,1,2
 618 1205 618 1205 563 1205 c 2,3,-1
 455 1205 l 2,4,5
 402 1205 402 1205 402 1258 c 2,6,-1
 402 1366 l 2,7,8
 402 1420 402 1420 455 1420 c 2,9,-1
 563 1420 l 2,10,11
 618 1420 618 1420 618 1366 c 2,0,-1
750 0 m 1,12,-1
 78 0 l 1,13,-1
 78 157 l 1,14,-1
 442 157 l 1,15,-1
 442 811 l 2,16,17
 442 938 442 938 135 938 c 1,18,19
 314 1036 314 1036 349 1036 c 0,20,21
 750 1036 750 1036 750 841 c 2,22,-1
 750 0 l 1,12,-1
EndSplineSet
Substitution2: "'fina' Terminal Forms in Arabic lookup 5 subtable" thalfinal
Substitution2: "'isol' Isolated Forms in Arabic lookup 2 subtable" thalisolated
AlternateSubs2: "'aalt' Access All Alternates in Latin lookup 1 subtable" thalisolated thalfinal
EndChar

StartChar: reh
Encoding: 1585 1585 20
Width: 702
Flags: W
AnchorPoint: "ArabicBelow" 351 -479 basechar 0
AnchorPoint: "ArabicAbove" 351 1286 basechar 0
LayerCount: 2
Fore
SplineSet
701 1025 m 1,0,-1
 702 1034 l 1,1,-1
 702 -41 l 2,2,3
 702 -189 702 -189 431 -228 c 0,4,5
 344 -240 344 -240 35 -170 c 1,6,7
 395 -183 395 -183 389 -12 c 2,8,-1
 389 875 l 1,9,10
 584 902 584 902 701 1036 c 1,11,-1
 701 1025 l 1,0,-1
EndSplineSet
Substitution2: "'fina' Terminal Forms in Arabic lookup 5 subtable" rehfinal
Substitution2: "'isol' Isolated Forms in Arabic lookup 2 subtable" rehisolated
AlternateSubs2: "'aalt' Access All Alternates in Latin lookup 1 subtable" rehisolated rehfinal
EndChar

StartChar: zain
Encoding: 1586 1586 21
Width: 707
Flags: W
AnchorPoint: "ArabicBelow" 353 -479 basechar 0
AnchorPoint: "ArabicAbove" 353 1655 basechar 0
LayerCount: 2
Fore
SplineSet
702 -41 m 2,0,1
 702 -189 702 -189 431 -228 c 0,2,3
 344 -240 344 -240 35 -170 c 1,4,5
 395 -183 395 -183 390 -12 c 2,6,-1
 390 864 l 1,7,8
 585 891 585 891 702 1024 c 1,9,-1
 702 -41 l 2,0,1
653 1243 m 2,10,11
 653 1191 653 1191 599 1191 c 2,12,-1
 489 1191 l 2,13,14
 437 1191 437 1191 437 1243 c 2,15,-1
 437 1351 l 2,16,17
 437 1405 437 1405 489 1405 c 2,18,-1
 599 1405 l 2,19,20
 653 1405 653 1405 653 1351 c 2,21,-1
 653 1243 l 2,10,11
EndSplineSet
Substitution2: "'fina' Terminal Forms in Arabic lookup 5 subtable" zainfinal
Substitution2: "'isol' Isolated Forms in Arabic lookup 2 subtable" zainisolated
AlternateSubs2: "'aalt' Access All Alternates in Latin lookup 1 subtable" zainisolated zainfinal
EndChar

StartChar: seen
Encoding: 1587 1587 22
Width: 1776
Flags: W
AnchorPoint: "ArabicBelow" 888 -460 basechar 0
AnchorPoint: "ArabicAbove" 888 1361 basechar 0
LayerCount: 2
Fore
SplineSet
891 157 m 1,0,-1
 1021 157 l 1,1,-1
 1015 162 l 1,2,-1
 1015 835 l 1,3,4
 1210 862 1210 862 1327 996 c 1,5,-1
 1330 985 l 1,6,-1
 1332 994 l 1,7,-1
 1332 157 l 1,8,-1
 1462 157 l 1,9,-1
 1458 160 l 1,10,-1
 1458 834 l 1,11,12
 1653 861 1653 861 1770 994 c 1,13,-1
 1770 0 l 1,14,-1
 891 0 l 1,15,-1
 891 -50 l 2,16,17
 891 -128 891 -128 765 -170 c 0,18,19
 654 -210 654 -210 486 -210 c 0,20,21
 321 -210 321 -210 204 -171 c 0,22,23
 78 -128 78 -128 78 -54 c 2,24,-1
 78 940 l 2,25,26
 78 1068 78 1068 259 1102 c 0,27,28
 316 1111 316 1111 522 1111 c 1,29,30
 477 1102 477 1102 435 1072 c 0,31,32
 388 1039 388 1039 388 999 c 2,33,-1
 388 -35 l 2,34,35
 388 -99 388 -99 487 -99 c 0,36,37
 580 -99 580 -99 579 -35 c 2,38,-1
 579 835 l 1,39,40
 774 862 774 862 891 996 c 1,41,-1
 891 157 l 1,0,-1
EndSplineSet
Substitution2: "'fina' Terminal Forms in Arabic lookup 5 subtable" seenfinal
Substitution2: "'medi' Medial Forms in Arabic lookup 4 subtable" seenmedial
Substitution2: "'init' Initial Forms in Arabic lookup 3 subtable" seeninitial
Substitution2: "'isol' Isolated Forms in Arabic lookup 2 subtable" seenisolated
AlternateSubs2: "'aalt' Access All Alternates in Latin lookup 1 subtable" seenisolated seeninitial seenmedial seenfinal
EndChar

StartChar: sheen
Encoding: 1588 1588 23
Width: 1776
Flags: W
AnchorPoint: "ArabicBelow" 888 -460 basechar 0
AnchorPoint: "ArabicAbove" 888 1894 basechar 0
LayerCount: 2
Fore
SplineSet
891 157 m 1,0,-1
 1021 157 l 1,1,-1
 1015 162 l 1,2,-1
 1015 835 l 1,3,4
 1210 862 1210 862 1327 996 c 1,5,-1
 1330 985 l 1,6,-1
 1332 994 l 1,7,-1
 1332 157 l 1,8,-1
 1462 157 l 1,9,-1
 1458 160 l 1,10,-1
 1458 834 l 1,11,12
 1653 861 1653 861 1770 994 c 1,13,-1
 1770 0 l 1,14,-1
 891 0 l 1,15,-1
 891 -50 l 2,16,17
 891 -128 891 -128 765 -170 c 0,18,19
 654 -210 654 -210 486 -210 c 0,20,21
 321 -210 321 -210 204 -171 c 0,22,23
 78 -128 78 -128 78 -54 c 2,24,-1
 78 940 l 2,25,26
 78 1068 78 1068 259 1102 c 0,27,28
 316 1111 316 1111 522 1111 c 1,29,30
 477 1102 477 1102 435 1072 c 0,31,32
 388 1039 388 1039 388 999 c 2,33,-1
 388 -35 l 2,34,35
 388 -99 388 -99 487 -99 c 0,36,37
 580 -99 580 -99 579 -35 c 2,38,-1
 579 835 l 1,39,40
 774 862 774 862 891 996 c 1,41,-1
 891 157 l 1,0,-1
1296 1482 m 2,42,43
 1296 1429 1296 1429 1242 1429 c 2,44,-1
 1132 1429 l 2,45,46
 1080 1429 1080 1429 1080 1482 c 2,47,-1
 1080 1590 l 2,48,49
 1080 1644 1080 1644 1132 1644 c 2,50,-1
 1242 1644 l 2,51,52
 1296 1644 1296 1644 1296 1590 c 2,53,-1
 1296 1482 l 2,42,43
1419 1248 m 2,54,55
 1419 1195 1419 1195 1365 1195 c 2,56,-1
 1255 1195 l 2,57,58
 1203 1195 1203 1195 1203 1248 c 2,59,-1
 1203 1356 l 2,60,61
 1203 1410 1203 1410 1255 1410 c 2,62,-1
 1365 1410 l 2,63,64
 1419 1410 1419 1410 1419 1356 c 2,65,-1
 1419 1248 l 2,54,55
1165 1248 m 2,66,67
 1165 1195 1165 1195 1111 1195 c 2,68,-1
 1002 1195 l 2,69,70
 949 1195 949 1195 949 1248 c 2,71,-1
 949 1356 l 2,72,73
 949 1410 949 1410 1002 1410 c 2,74,-1
 1111 1410 l 2,75,76
 1165 1410 1165 1410 1165 1356 c 2,77,-1
 1165 1248 l 2,66,67
EndSplineSet
Substitution2: "'fina' Terminal Forms in Arabic lookup 5 subtable" sheenfinal
Substitution2: "'medi' Medial Forms in Arabic lookup 4 subtable" sheenmedial
Substitution2: "'init' Initial Forms in Arabic lookup 3 subtable" sheeninitial
Substitution2: "'isol' Isolated Forms in Arabic lookup 2 subtable" sheenisolated
AlternateSubs2: "'aalt' Access All Alternates in Latin lookup 1 subtable" sheenisolated sheeninitial sheenmedial sheenfinal
EndChar

StartChar: sad
Encoding: 1589 1589 24
Width: 1566
Flags: W
AnchorPoint: "ArabicBelow" 783 -460 basechar 0
AnchorPoint: "ArabicAbove" 783 1361 basechar 0
LayerCount: 2
Fore
SplineSet
891 481 m 1,0,1
 1059 1024 1059 1024 1565 1024 c 1,2,-1
 1565 0 l 1,3,-1
 891 0 l 1,4,-1
 891 -50 l 2,5,6
 891 -128 891 -128 765 -170 c 0,7,8
 654 -210 654 -210 486 -210 c 0,9,10
 321 -210 321 -210 204 -171 c 0,11,12
 78 -128 78 -128 78 -54 c 2,13,-1
 78 940 l 2,14,15
 78 1067 78 1067 260 1102 c 0,16,17
 317 1111 317 1111 522 1111 c 1,18,19
 477 1102 477 1102 435 1072 c 0,20,21
 389 1039 389 1039 389 999 c 2,22,-1
 389 -35 l 2,23,24
 389 -99 389 -99 488 -99 c 0,25,26
 580 -99 580 -99 579 -35 c 2,27,-1
 579 815 l 1,28,29
 774 842 774 842 891 976 c 1,30,-1
 891 481 l 1,0,1
1254 843 m 1,31,32
 1113 784 1113 784 1008 564 c 0,33,34
 891 319 891 319 891 157 c 1,35,-1
 1254 157 l 1,36,-1
 1254 843 l 1,31,32
EndSplineSet
Substitution2: "'fina' Terminal Forms in Arabic lookup 5 subtable" sadfinal
Substitution2: "'medi' Medial Forms in Arabic lookup 4 subtable" sadmedial
Substitution2: "'init' Initial Forms in Arabic lookup 3 subtable" sadinitial
Substitution2: "'isol' Isolated Forms in Arabic lookup 2 subtable" sadisolated
AlternateSubs2: "'aalt' Access All Alternates in Latin lookup 1 subtable" sadisolated sadinitial sadmedial sadfinal
EndChar

StartChar: dad
Encoding: 1590 1590 25
Width: 1566
Flags: W
AnchorPoint: "ArabicBelow" 783 -460 basechar 0
AnchorPoint: "ArabicAbove" 783 1659 basechar 0
LayerCount: 2
Fore
SplineSet
891 482 m 1,0,1
 1059 1025 1059 1025 1565 1025 c 1,2,-1
 1565 0 l 1,3,-1
 891 0 l 1,4,-1
 891 -49 l 2,5,6
 891 -127 891 -127 765 -169 c 0,7,8
 648 -210 648 -210 486 -210 c 0,9,10
 321 -210 321 -210 204 -171 c 0,11,12
 78 -128 78 -128 78 -54 c 2,13,-1
 78 941 l 2,14,15
 78 1068 78 1068 260 1103 c 0,16,17
 317 1112 317 1112 522 1112 c 1,18,19
 477 1103 477 1103 435 1073 c 0,20,21
 389 1040 389 1040 389 999 c 2,22,-1
 389 -34 l 2,23,24
 389 -99 389 -99 488 -99 c 0,25,26
 581 -99 581 -99 579 -34 c 2,27,-1
 579 816 l 1,28,29
 774 843 774 843 891 976 c 1,30,-1
 891 482 l 1,0,1
1254 843 m 1,31,32
 1113 784 1113 784 1008 564 c 0,33,34
 891 319 891 319 891 158 c 1,35,-1
 1254 158 l 1,36,-1
 1254 843 l 1,31,32
1217 1247 m 2,37,38
 1217 1194 1217 1194 1163 1194 c 2,39,-1
 1053 1194 l 2,40,41
 1001 1194 1001 1194 1001 1247 c 2,42,-1
 1001 1353 l 2,43,44
 1001 1409 1001 1409 1053 1409 c 2,45,-1
 1163 1409 l 2,46,47
 1217 1409 1217 1409 1217 1353 c 2,48,-1
 1217 1247 l 2,37,38
EndSplineSet
Substitution2: "'fina' Terminal Forms in Arabic lookup 5 subtable" dadfinal
Substitution2: "'medi' Medial Forms in Arabic lookup 4 subtable" dadmedial
Substitution2: "'init' Initial Forms in Arabic lookup 3 subtable" dadinitial
Substitution2: "'isol' Isolated Forms in Arabic lookup 2 subtable" dadisolated
AlternateSubs2: "'aalt' Access All Alternates in Latin lookup 1 subtable" dadisolated dadinitial dadmedial dadfinal
EndChar

StartChar: tah
Encoding: 1591 1591 26
Width: 1311
Flags: W
AnchorPoint: "ArabicBelow" 655 -250 basechar 0
AnchorPoint: "ArabicAbove" 655 2157 basechar 0
LayerCount: 2
Fore
SplineSet
636 532 m 1,0,1
 804 1075 804 1075 1308 1075 c 1,2,-1
 1308 0 l 1,3,-1
 223 0 l 2,4,5
 73 0 73 0 73 158 c 1,6,-1
 325 158 l 1,7,-1
 325 1748 l 1,8,9
 516 1774 516 1774 630 1900 c 2,10,-1
 636 1907 l 1,11,-1
 636 532 l 1,0,1
999 893 m 1,12,13
 858 834 858 834 753 614 c 0,14,15
 636 369 636 369 636 158 c 1,16,-1
 999 158 l 1,17,-1
 999 893 l 1,12,13
EndSplineSet
Substitution2: "'fina' Terminal Forms in Arabic lookup 5 subtable" tahfinal
Substitution2: "'medi' Medial Forms in Arabic lookup 4 subtable" tahmedial
Substitution2: "'init' Initial Forms in Arabic lookup 3 subtable" tahinitial
Substitution2: "'isol' Isolated Forms in Arabic lookup 2 subtable" tahisolated
AlternateSubs2: "'aalt' Access All Alternates in Latin lookup 1 subtable" tahisolated tahinitial tahmedial tahfinal
EndChar

StartChar: zah
Encoding: 1592 1592 27
Width: 1311
Flags: W
AnchorPoint: "ArabicBelow" 655 -250 basechar 0
AnchorPoint: "ArabicAbove" 655 2156 basechar 0
LayerCount: 2
Fore
SplineSet
1123 1403 m 2,0,-1
 1123 1297 l 2,1,2
 1123 1244 1123 1244 1068 1244 c 2,3,-1
 960 1244 l 2,4,5
 906 1244 906 1244 906 1297 c 2,6,-1
 906 1405 l 2,7,8
 906 1459 906 1459 960 1459 c 2,9,-1
 1068 1459 l 2,10,11
 1123 1459 1123 1459 1123 1403 c 2,0,-1
636 532 m 1,12,13
 804 1075 804 1075 1308 1075 c 1,14,-1
 1308 0 l 1,15,-1
 223 0 l 2,16,17
 73 0 73 0 73 158 c 1,18,-1
 325 158 l 1,19,-1
 325 1747 l 1,20,21
 516 1773 516 1773 630 1899 c 2,22,-1
 636 1906 l 1,23,-1
 636 532 l 1,12,13
999 893 m 1,24,25
 858 834 858 834 753 614 c 0,26,27
 636 369 636 369 636 158 c 1,28,-1
 999 158 l 1,29,-1
 999 893 l 1,24,25
EndSplineSet
Substitution2: "'fina' Terminal Forms in Arabic lookup 5 subtable" zahfinal
Substitution2: "'medi' Medial Forms in Arabic lookup 4 subtable" zahmedial
Substitution2: "'init' Initial Forms in Arabic lookup 3 subtable" zahinitial
Substitution2: "'isol' Isolated Forms in Arabic lookup 2 subtable" zahisolated
AlternateSubs2: "'aalt' Access All Alternates in Latin lookup 1 subtable" zahisolated zahinitial zahmedial zahfinal
EndChar

StartChar: ain
Encoding: 1593 1593 28
Width: 1372
Flags: W
AnchorPoint: "ArabicBelow" 686 -833 basechar 0
AnchorPoint: "ArabicAbove" 686 1269 basechar 0
LayerCount: 2
Fore
SplineSet
1371 0 m 1,0,-1
 624 0 l 2,1,2
 620 0 620 0 611.5 0.5 c 128,-1,3
 603 1 603 1 589 2 c 2,4,-1
 544 2 l 2,5,6
 284 2 284 2 304 -271 c 0,7,8
 310 -345 310 -345 402 -429 c 0,9,10
 500 -520 500 -520 648 -583 c 1,11,12
 418 -583 418 -583 243 -447 c 0,13,14
 76 -318 76 -318 76 -166 c 0,15,16
 76 12 76 12 213 87 c 0,17,18
 341 158 341 158 624 158 c 1,19,-1
 624 902 l 2,20,21
 624 1019 624 1019 990 1019 c 0,22,23
 1371 1019 1371 1019 1371 891 c 2,24,-1
 1371 508 l 1,25,26
 1157 477 1157 477 1059 348 c 1,27,-1
 1059 870 l 2,28,29
 1059 903 1059 903 996 903 c 0,30,31
 934 903 934 903 934 870 c 2,32,-1
 934 158 l 1,33,-1
 1371 158 l 1,34,-1
 1371 0 l 1,0,-1
EndSplineSet
Substitution2: "'fina' Terminal Forms in Arabic lookup 5 subtable" ainfinal
Substitution2: "'medi' Medial Forms in Arabic lookup 4 subtable" ainmedial
Substitution2: "'init' Initial Forms in Arabic lookup 3 subtable" aininitial
Substitution2: "'isol' Isolated Forms in Arabic lookup 2 subtable" ainisolated
AlternateSubs2: "'aalt' Access All Alternates in Latin lookup 1 subtable" ainisolated aininitial ainmedial ainfinal
EndChar

StartChar: ghain
Encoding: 1594 1594 29
Width: 1377
Flags: W
AnchorPoint: "ArabicBelow" 688 -833 basechar 0
AnchorPoint: "ArabicAbove" 688 1659 basechar 0
LayerCount: 2
Fore
SplineSet
1100 1355 m 2,0,-1
 1100 1247 l 2,1,2
 1100 1194 1100 1194 1045 1194 c 2,3,-1
 937 1194 l 2,4,5
 884 1194 884 1194 884 1247 c 2,6,-1
 884 1355 l 2,7,8
 884 1409 884 1409 937 1409 c 2,9,-1
 1045 1409 l 2,10,11
 1100 1409 1100 1409 1100 1355 c 2,0,-1
1373 0 m 1,12,-1
 626 0 l 2,13,14
 622 0 622 0 613.5 0.5 c 128,-1,15
 605 1 605 1 591 2 c 2,16,-1
 546 2 l 2,17,18
 286 2 286 2 306 -271 c 0,19,20
 312 -345 312 -345 404 -429 c 0,21,22
 503 -520 503 -520 650 -583 c 1,23,24
 421 -583 421 -583 246 -447 c 0,25,26
 78 -318 78 -318 78 -166 c 0,27,28
 78 12 78 12 215 87 c 0,29,30
 343 158 343 158 626 158 c 1,31,-1
 626 902 l 2,32,33
 626 1019 626 1019 993 1019 c 0,34,35
 1373 1019 1373 1019 1373 891 c 2,36,-1
 1373 508 l 1,37,38
 1159 477 1159 477 1061 348 c 1,39,-1
 1061 870 l 2,40,41
 1061 903 1061 903 999 903 c 0,42,43
 936 903 936 903 936 870 c 2,44,-1
 936 158 l 1,45,-1
 1373 158 l 1,46,-1
 1373 0 l 1,12,-1
EndSplineSet
Substitution2: "'fina' Terminal Forms in Arabic lookup 5 subtable" ghainfinal
Substitution2: "'medi' Medial Forms in Arabic lookup 4 subtable" ghainmedial
Substitution2: "'init' Initial Forms in Arabic lookup 3 subtable" ghaininitial
Substitution2: "'isol' Isolated Forms in Arabic lookup 2 subtable" ghainisolated
AlternateSubs2: "'aalt' Access All Alternates in Latin lookup 1 subtable" ghainisolated ghaininitial ghainmedial ghainfinal
EndChar

StartChar: tatweel
Encoding: 1600 1600 30
Width: 377
Flags: W
LayerCount: 2
Fore
SplineSet
392 -1 m 1,0,-1
 -4 -1 l 1,1,-1
 -4 156 l 1,2,-1
 392 156 l 1,3,-1
 392 -1 l 1,0,-1
EndSplineSet
EndChar

StartChar: feh
Encoding: 1601 1601 31
Width: 1491
Flags: W
AnchorPoint: "ArabicBelow" 745 -250 basechar 0
AnchorPoint: "ArabicAbove" 745 1639 basechar 0
LayerCount: 2
Fore
SplineSet
1215 1335 m 2,0,-1
 1215 1227 l 2,1,2
 1215 1174 1215 1174 1160 1174 c 2,3,-1
 1052 1174 l 2,4,5
 999 1174 999 1174 999 1227 c 2,6,-1
 999 1335 l 2,7,8
 999 1389 999 1389 1052 1389 c 2,9,-1
 1160 1389 l 2,10,11
 1215 1389 1215 1389 1215 1335 c 2,0,-1
1491 0 m 1,12,-1
 78 0 l 1,13,-1
 78 884 l 2,14,15
 78 1018 78 1018 168 1065 c 0,16,17
 242 1103 242 1103 497 1131 c 1,18,19
 423 1092 423 1092 404 1052 c 0,20,21
 390 1026 390 1026 390 954 c 2,22,-1
 390 158 l 1,23,-1
 746 158 l 1,24,-1
 746 853 l 2,25,26
 746 970 746 970 1112 970 c 0,27,28
 1491 970 1491 970 1491 843 c 2,29,-1
 1491 0 l 1,12,-1
1179 158 m 1,30,-1
 1179 843 l 2,31,32
 1179 867 1179 867 1118 868 c 0,33,34
 1055 871 1055 871 1055 843 c 2,35,-1
 1055 158 l 1,36,-1
 1179 158 l 1,30,-1
EndSplineSet
Substitution2: "'fina' Terminal Forms in Arabic lookup 5 subtable" fehfinal
Substitution2: "'medi' Medial Forms in Arabic lookup 4 subtable" fehmedial
Substitution2: "'init' Initial Forms in Arabic lookup 3 subtable" fehinitial
Substitution2: "'isol' Isolated Forms in Arabic lookup 2 subtable" fehisolated
AlternateSubs2: "'aalt' Access All Alternates in Latin lookup 1 subtable" fehisolated fehinitial fehmedial fehfinal
EndChar

StartChar: qaf
Encoding: 1602 1602 32
Width: 1331
Flags: W
AnchorPoint: "ArabicBelow" 665 -463 basechar 0
AnchorPoint: "ArabicAbove" 665 1648 basechar 0
LayerCount: 2
Fore
SplineSet
1185 1344 m 2,0,-1
 1185 1237 l 2,1,2
 1185 1184 1185 1184 1131 1184 c 2,3,-1
 1023 1184 l 2,4,5
 969 1184 969 1184 969 1237 c 2,6,-1
 969 1344 l 2,7,8
 969 1398 969 1398 1023 1398 c 2,9,-1
 1131 1398 l 2,10,11
 1185 1398 1185 1398 1185 1344 c 2,0,-1
935 1344 m 2,12,-1
 935 1237 l 2,13,14
 935 1184 935 1184 880 1184 c 2,15,-1
 771 1184 l 2,16,17
 717 1184 717 1184 717 1237 c 2,18,-1
 717 1344 l 2,19,20
 717 1398 717 1398 771 1398 c 2,21,-1
 880 1398 l 2,22,23
 935 1398 935 1398 935 1344 c 2,12,-1
1331 19 m 2,24,25
 1331 -89 1331 -89 1130 -155 c 0,26,27
 949 -213 949 -213 689 -213 c 0,28,29
 438 -213 438 -213 267 -156 c 0,30,31
 78 -92 78 -92 78 19 c 2,32,-1
 78 940 l 2,33,34
 78 1067 78 1067 260 1102 c 0,35,36
 317 1111 317 1111 527 1111 c 1,37,38
 482 1105 482 1105 435 1072 c 0,39,40
 389 1039 389 1039 389 999 c 2,41,-1
 389 4 l 2,42,43
 389 -93 389 -93 690 -93 c 0,44,45
 1001 -93 1001 -93 1001 0 c 1,46,-1
 584 0 l 1,47,-1
 584 853 l 2,48,49
 584 970 584 970 950 970 c 0,50,51
 1331 970 1331 970 1331 842 c 2,52,-1
 1331 19 l 2,24,25
1019 157 m 1,53,-1
 1019 842 l 2,54,55
 1019 866 1019 866 956 868 c 0,56,57
 893 871 893 871 893 842 c 2,58,-1
 893 157 l 1,59,-1
 1019 157 l 1,53,-1
EndSplineSet
Substitution2: "'fina' Terminal Forms in Arabic lookup 5 subtable" qaffinal
Substitution2: "'medi' Medial Forms in Arabic lookup 4 subtable" qafmedial
Substitution2: "'init' Initial Forms in Arabic lookup 3 subtable" qafinitial
Substitution2: "'isol' Isolated Forms in Arabic lookup 2 subtable" qafisolated
AlternateSubs2: "'aalt' Access All Alternates in Latin lookup 1 subtable" qafisolated qafinitial qafmedial qaffinal
EndChar

StartChar: arabickaf
Encoding: 1603 1603 33
Width: 1475
Flags: W
AnchorPoint: "ArabicBelow" 737 -250 basechar 0
AnchorPoint: "ArabicAbove" 737 2137 basechar 0
LayerCount: 2
Fore
SplineSet
78 0 m 1,0,-1
 78 783 l 2,1,2
 78 918 78 918 168 965 c 0,3,4
 242 1003 242 1003 497 1031 c 1,5,6
 417 987 417 987 399 948 c 0,7,8
 390 928 390 928 390 854 c 2,9,-1
 390 157 l 1,10,-1
 1163 157 l 1,11,-1
 1163 1727 l 1,12,13
 1358 1754 1358 1754 1475 1887 c 1,14,-1
 1475 0 l 1,15,-1
 78 0 l 1,0,-1
633 611 m 1,16,17
 565 623 565 623 552 758 c 1,18,19
 603 662 603 662 716 686 c 1,20,-1
 716 823 l 2,21,22
 716 884 716 884 837 884 c 0,23,24
 954 884 954 884 954 827 c 2,25,-1
 954 799 l 1,26,27
 913 784 913 784 863 716 c 1,28,-1
 863 806 l 2,29,30
 863 824 863 824 839 824 c 0,31,32
 806 824 806 824 806 806 c 2,33,-1
 806 694 l 1,34,-1
 974 694 l 1,35,-1
 974 611 l 1,36,-1
 633 611 l 1,16,17
EndSplineSet
Substitution2: "'fina' Terminal Forms in Arabic lookup 5 subtable" arabickaffinal
Substitution2: "'medi' Medial Forms in Arabic lookup 4 subtable" kafmedial
Substitution2: "'init' Initial Forms in Arabic lookup 3 subtable" kafinitial
Substitution2: "'isol' Isolated Forms in Arabic lookup 2 subtable" kafisolated
AlternateSubs2: "'aalt' Access All Alternates in Latin lookup 1 subtable" kafisolated kafinitial kafmedial arabickaffinal
EndChar

StartChar: lam
Encoding: 1604 1604 34
Width: 891
Flags: W
AnchorPoint: "ArabicBelow" 445 -460 basechar 0
AnchorPoint: "ArabicAbove" 445 2117 basechar 0
LayerCount: 2
Fore
SplineSet
891 -53 m 2,0,1
 891 -129 891 -129 767 -171 c 0,2,3
 653 -210 653 -210 489 -210 c 0,4,5
 324 -210 324 -210 207 -171 c 0,6,7
 78 -128 78 -128 78 -54 c 2,8,-1
 78 490 l 2,9,10
 78 617 78 617 260 652 c 0,11,12
 317 661 317 661 522 661 c 1,13,14
 477 652 477 652 435 622 c 0,15,16
 389 589 389 589 389 549 c 2,17,-1
 389 -35 l 2,18,19
 389 -99 389 -99 488 -99 c 0,20,21
 581 -99 581 -99 581 -35 c 2,22,-1
 581 1706 l 1,23,24
 772 1733 772 1733 891 1867 c 1,25,-1
 891 -53 l 2,0,1
EndSplineSet
Substitution2: "'fina' Terminal Forms in Arabic lookup 5 subtable" lamfinal
Substitution2: "'medi' Medial Forms in Arabic lookup 4 subtable" lammedial
Substitution2: "'init' Initial Forms in Arabic lookup 3 subtable" laminitial
Substitution2: "'isol' Isolated Forms in Arabic lookup 2 subtable" lamisolated
AlternateSubs2: "'aalt' Access All Alternates in Latin lookup 1 subtable" lamisolated laminitial lammedial lamfinal
EndChar

StartChar: meem
Encoding: 1605 1605 35
Width: 942
Flags: W
AnchorPoint: "ArabicBelow" 471 -850 basechar 0
AnchorPoint: "ArabicAbove" 471 1278 basechar 0
LayerCount: 2
Fore
SplineSet
945 0 m 1,0,-1
 389 0 l 1,1,-1
 389 -441 l 1,2,3
 185 -469 185 -469 78 -600 c 1,4,-1
 78 157 l 1,5,-1
 200 157 l 1,6,-1
 200 1028 l 1,7,-1
 814 1028 l 2,8,9
 828 1028 828 1028 858 1020 c 0,10,11
 945 994 945 994 945 891 c 2,12,-1
 945 0 l 1,0,-1
633 157 m 1,13,-1
 633 852 l 2,14,15
 633 927 633 927 509 927 c 1,16,-1
 509 157 l 1,17,-1
 633 157 l 1,13,-1
EndSplineSet
Substitution2: "'fina' Terminal Forms in Arabic lookup 5 subtable" meemfinal
Substitution2: "'medi' Medial Forms in Arabic lookup 4 subtable" meemmedial
Substitution2: "'init' Initial Forms in Arabic lookup 3 subtable" meeminitial
Substitution2: "'isol' Isolated Forms in Arabic lookup 2 subtable" meemisolated
AlternateSubs2: "'aalt' Access All Alternates in Latin lookup 1 subtable" meemisolated meeminitial meemmedial meemfinal
EndChar

StartChar: noon
Encoding: 1606 1606 36
Width: 891
Flags: W
AnchorPoint: "ArabicBelow" 445 -460 basechar 0
AnchorPoint: "ArabicAbove" 445 1659 basechar 0
LayerCount: 2
Fore
SplineSet
891 -49 m 2,0,1
 891 -127 891 -127 765 -169 c 0,2,3
 648 -210 648 -210 486 -210 c 0,4,5
 321 -210 321 -210 204 -171 c 0,6,7
 78 -128 78 -128 78 -54 c 2,8,-1
 78 941 l 2,9,10
 78 1068 78 1068 260 1103 c 0,11,12
 317 1112 317 1112 525 1112 c 1,13,14
 480 1104 480 1104 435 1073 c 0,15,16
 389 1040 389 1040 389 999 c 2,17,-1
 389 -34 l 2,18,19
 389 -99 389 -99 488 -99 c 0,20,21
 581 -99 581 -99 579 -34 c 2,22,-1
 579 814 l 1,23,24
 774 841 774 841 891 975 c 1,25,-1
 891 -49 l 2,0,1
617 1247 m 2,26,27
 617 1194 617 1194 561 1194 c 2,28,-1
 453 1194 l 2,29,30
 399 1194 399 1194 399 1247 c 2,31,-1
 399 1353 l 2,32,33
 399 1409 399 1409 453 1409 c 2,34,-1
 561 1409 l 2,35,36
 617 1409 617 1409 617 1353 c 2,37,-1
 617 1247 l 2,26,27
EndSplineSet
Substitution2: "'fina' Terminal Forms in Arabic lookup 5 subtable" noonfinal
Substitution2: "'medi' Medial Forms in Arabic lookup 4 subtable" noonmedial
Substitution2: "'init' Initial Forms in Arabic lookup 3 subtable" nooninitial
Substitution2: "'isol' Isolated Forms in Arabic lookup 2 subtable" noonisolated
AlternateSubs2: "'aalt' Access All Alternates in Latin lookup 1 subtable" noonisolated nooninitial noonmedial noonfinal
EndChar

StartChar: heh
Encoding: 1607 1607 37
Width: 825
Flags: W
AnchorPoint: "ArabicBelow" 412 -250 basechar 0
AnchorPoint: "ArabicAbove" 412 1275 basechar 0
LayerCount: 2
Fore
SplineSet
825 0 m 1,0,-1
 78 0 l 1,1,-1
 78 872 l 2,2,3
 78 1025 78 1025 320 1025 c 2,4,-1
 825 1025 l 1,5,-1
 825 0 l 1,0,-1
513 158 m 1,6,-1
 513 908 l 1,7,8
 478 908 478 908 435 888 c 0,9,10
 389 864 389 864 389 833 c 2,11,-1
 389 158 l 1,12,-1
 513 158 l 1,6,-1
EndSplineSet
Substitution2: "'fina' Terminal Forms in Arabic lookup 5 subtable" hehfinal
Substitution2: "'medi' Medial Forms in Arabic lookup 4 subtable" hehmedial
Substitution2: "'init' Initial Forms in Arabic lookup 3 subtable" hehinitial
Substitution2: "'isol' Isolated Forms in Arabic lookup 2 subtable" hehisolated
AlternateSubs2: "'aalt' Access All Alternates in Latin lookup 1 subtable" hehisolated hehinitial hehmedial hehfinal
EndChar

StartChar: waw
Encoding: 1608 1608 38
Width: 825
Flags: W
AnchorPoint: "ArabicBelow" 412 -466 basechar 0
AnchorPoint: "ArabicAbove" 412 1275 basechar 0
LayerCount: 2
Fore
SplineSet
825 0 m 2,0,1
 825 -216 825 -216 327 -216 c 0,2,3
 213 -216 213 -216 83 -135 c 1,4,5
 311 -142 311 -142 404 -109 c 0,6,7
 484 -79 484 -79 494 0 c 1,8,-1
 78 0 l 1,9,-1
 78 872 l 2,10,11
 78 1025 78 1025 320 1025 c 2,12,-1
 825 1025 l 1,13,-1
 825 0 l 2,0,1
513 158 m 1,14,-1
 513 908 l 1,15,16
 478 908 478 908 435 888 c 0,17,18
 389 864 389 864 389 833 c 2,19,-1
 389 158 l 1,20,-1
 513 158 l 1,14,-1
EndSplineSet
Substitution2: "'fina' Terminal Forms in Arabic lookup 5 subtable" wawfinal
Substitution2: "'isol' Isolated Forms in Arabic lookup 2 subtable" wawisolated
AlternateSubs2: "'aalt' Access All Alternates in Latin lookup 1 subtable" wawisolated wawfinal
EndChar

StartChar: alefmaksura
Encoding: 1609 1609 39
Width: 1347
Flags: W
AnchorPoint: "ArabicBelow" 673 -469 basechar 0
AnchorPoint: "ArabicAbove" 673 1412 basechar 0
LayerCount: 2
Fore
SplineSet
1347 0 m 2,0,1
 1347 -102 1347 -102 1151 -163 c 0,2,3
 968 -219 968 -219 714 -219 c 0,4,5
 455 -219 455 -219 278 -162 c 0,6,7
 78 -99 78 -99 78 8 c 2,8,-1
 78 991 l 2,9,10
 78 1118 78 1118 260 1153 c 0,11,12
 317 1162 317 1162 527 1162 c 1,13,14
 482 1156 482 1156 435 1123 c 0,15,16
 389 1090 389 1090 389 1049 c 2,17,-1
 389 9 l 2,18,19
 389 -102 389 -102 711 -102 c 0,20,21
 1038 -102 1038 -102 1038 8 c 2,22,-1
 1038 149 l 1,23,-1
 600 149 l 1,24,-1
 600 902 l 2,25,26
 600 1019 600 1019 968 1019 c 0,27,28
 1347 1019 1347 1019 1347 891 c 2,29,-1
 1347 645 l 1,30,31
 1132 615 1132 615 1035 486 c 1,32,-1
 1035 870 l 2,33,34
 1035 903 1035 903 974 903 c 0,35,36
 911 903 911 903 911 870 c 2,37,-1
 911 322 l 1,38,-1
 1347 322 l 1,39,-1
 1347 0 l 2,0,1
EndSplineSet
Substitution2: "'fina' Terminal Forms in Arabic lookup 5 subtable" alefmaksurafinal
Substitution2: "'isol' Isolated Forms in Arabic lookup 2 subtable" alefmaksuraisolated
AlternateSubs2: "'aalt' Access All Alternates in Latin lookup 1 subtable" alefmaksuraisolated alefmaksurafinal
EndChar

StartChar: yeh
Encoding: 1610 1610 40
Width: 1347
Flags: W
AnchorPoint: "ArabicBelow" 673 -782 basechar 0
AnchorPoint: "ArabicAbove" 673 1412 basechar 0
LayerCount: 2
Fore
SplineSet
1347 0 m 2,0,1
 1347 -102 1347 -102 1151 -163 c 0,2,3
 968 -219 968 -219 714 -219 c 0,4,5
 455 -219 455 -219 278 -162 c 0,6,7
 78 -99 78 -99 78 8 c 2,8,-1
 78 991 l 2,9,10
 78 1118 78 1118 260 1153 c 0,11,12
 317 1162 317 1162 527 1162 c 1,13,14
 482 1156 482 1156 435 1123 c 0,15,16
 389 1090 389 1090 389 1049 c 2,17,-1
 389 9 l 2,18,19
 389 -102 389 -102 711 -102 c 0,20,21
 1038 -102 1038 -102 1038 8 c 2,22,-1
 1038 149 l 1,23,-1
 600 149 l 1,24,-1
 600 902 l 2,25,26
 600 1019 600 1019 968 1019 c 0,27,28
 1347 1019 1347 1019 1347 891 c 2,29,-1
 1347 645 l 1,30,31
 1132 615 1132 615 1035 486 c 1,32,-1
 1035 870 l 2,33,34
 1035 903 1035 903 974 903 c 0,35,36
 911 903 911 903 911 870 c 2,37,-1
 911 322 l 1,38,-1
 1347 322 l 1,39,-1
 1347 0 l 2,0,1
956 -370 m 2,40,-1
 956 -478 l 2,41,42
 956 -532 956 -532 901 -532 c 2,43,-1
 793 -532 l 2,44,45
 740 -532 740 -532 740 -478 c 2,46,-1
 740 -371 l 2,47,48
 740 -318 740 -318 793 -318 c 2,49,-1
 901 -318 l 2,50,51
 956 -318 956 -318 956 -370 c 2,40,-1
722 -370 m 2,52,-1
 722 -478 l 2,53,54
 722 -532 722 -532 667 -532 c 2,55,-1
 559 -532 l 2,56,57
 506 -532 506 -532 506 -478 c 2,58,-1
 506 -371 l 2,59,60
 506 -318 506 -318 559 -318 c 2,61,-1
 667 -318 l 2,62,63
 722 -318 722 -318 722 -370 c 2,52,-1
EndSplineSet
Substitution2: "'fina' Terminal Forms in Arabic lookup 5 subtable" yehfinal
Substitution2: "'medi' Medial Forms in Arabic lookup 4 subtable" yehmedial
Substitution2: "'init' Initial Forms in Arabic lookup 3 subtable" yehinitial
Substitution2: "'isol' Isolated Forms in Arabic lookup 2 subtable" yehisolated
AlternateSubs2: "'aalt' Access All Alternates in Latin lookup 1 subtable" yehisolated yehinitial yehmedial yehfinal
EndChar

StartChar: fathatan
Encoding: 1611 1611 41
Width: 0
Flags: W
AnchorPoint: "ArabicAboveLigature" 230 1275 mark 0
AnchorPoint: "ArabicAbove" 230 1275 mark 0
LayerCount: 2
Fore
SplineSet
398 2164 m 1,0,1
 398 2098 398 2098 363 2078 c 2,2,-1
 60 1906 l 1,3,4
 63 1944 63 1944 74 1965 c 0,5,6
 86 1985 86 1985 126 2007 c 2,7,-1
 398 2164 l 1,0,1
398 2018 m 1,8,9
 398 1952 398 1952 363 1932 c 2,10,-1
 60 1760 l 1,11,12
 63 1798 63 1798 74 1819 c 0,13,14
 86 1839 86 1839 126 1861 c 2,15,-1
 398 2018 l 1,8,9
EndSplineSet
AlternateSubs2: "'aalt' Access All Alternates in Latin lookup 1 subtable" fathatanisolated fathatanlow
EndChar

StartChar: dammatan
Encoding: 1612 1612 42
Width: 0
Flags: W
AnchorPoint: "ArabicAboveLigature" 230 1275 mark 0
AnchorPoint: "ArabicAbove" 230 1275 mark 0
LayerCount: 2
Fore
SplineSet
396 1582 m 0,0,1
 396 1565 396 1565 395.5 1550 c 128,-1,2
 395 1535 395 1535 394 1523 c 1,3,4
 374 1534 374 1534 351 1548.5 c 128,-1,5
 328 1563 328 1563 302 1582 c 1,6,7
 176 1453 176 1453 62 1437 c 1,8,9
 105 1526 105 1526 105 1566 c 0,10,11
 105 1621 105 1621 56 1621 c 0,12,13
 14 1621 14 1621 7 1545 c 1,14,15
 -3 1574 -3 1574 -3 1597 c 256,16,17
 -3 1620 -3 1620 3.5 1640 c 128,-1,18
 10 1660 10 1660 21.5 1675 c 128,-1,19
 33 1690 33 1690 48 1698.5 c 128,-1,20
 63 1707 63 1707 81 1707 c 0,21,22
 148 1707 148 1707 148 1607 c 2,23,-1
 142 1515 l 1,24,25
 207 1540 207 1540 266 1605 c 1,26,27
 200 1648 200 1648 200 1699 c 0,28,29
 200 1752 200 1752 240 1798 c 0,30,31
 280 1846 280 1846 322 1846 c 0,32,33
 344 1846 344 1846 367 1819 c 0,34,35
 390 1793 390 1793 390 1766 c 0,36,37
 390 1736 390 1736 379 1708 c 0,38,-1
 357 1652 l 1,39,40
 396 1622 396 1622 396 1582 c 0,0,1
320 1726 m 0,41,42
 320 1779 320 1779 279 1779 c 0,43,44
 253 1779 253 1779 253 1756 c 0,45,46
 253 1730 253 1730 316 1687 c 1,47,48
 320 1696 320 1696 320 1726 c 0,41,42
EndSplineSet
AlternateSubs2: "'aalt' Access All Alternates in Latin lookup 1 subtable" dammatanisolated dammatanlow
EndChar

StartChar: kasratan
Encoding: 1613 1613 43
Width: 0
Flags: W
AnchorPoint: "ArabicBelowLigature" 165 -500 mark 0
AnchorPoint: "ArabicBelow" 165 -500 mark 0
LayerCount: 2
Fore
SplineSet
339 -620 m 1,0,1
 339 -686 339 -686 304 -706 c 2,2,-1
 1 -878 l 1,3,4
 4 -840 4 -840 15 -818 c 1,5,6
 28 -800 28 -800 67 -777 c 2,7,-1
 339 -620 l 1,0,1
339 -767 m 1,8,9
 339 -833 339 -833 304 -853 c 2,10,-1
 1 -1025 l 1,11,12
 4 -987 4 -987 15 -965 c 1,13,14
 28 -947 28 -947 67 -924 c 2,15,-1
 339 -767 l 1,8,9
EndSplineSet
AlternateSubs2: "'aalt' Access All Alternates in Latin lookup 1 subtable" kasratanisolated kasratanlow
EndChar

StartChar: fatha
Encoding: 1614 1614 44
Width: 0
Flags: W
AnchorPoint: "ArabicAboveLigature" 230 1275 mark 0
AnchorPoint: "ArabicAbove" 230 1275 mark 0
LayerCount: 2
Fore
SplineSet
283 1910 m 1,0,1
 283 1856 283 1856 254 1839 c 2,2,-1
 5 1698 l 1,3,4
 7 1732 7 1732 16 1747 c 0,5,6
 26 1762 26 1762 59 1781 c 2,7,-1
 283 1910 l 1,0,1
EndSplineSet
AlternateSubs2: "'aalt' Access All Alternates in Latin lookup 1 subtable" fathaisolated fathalow
EndChar

StartChar: damma
Encoding: 1615 1615 45
Width: 0
Flags: W
AnchorPoint: "ArabicAboveLigature" 230 1275 mark 0
AnchorPoint: "ArabicAbove" 230 1275 mark 0
LayerCount: 2
Fore
SplineSet
280 1883 m 1,0,-1
 273 1802 l 1,1,-1
 208 1845 l 1,2,3
 109 1727 109 1727 46 1727 c 0,4,5
 28 1727 28 1727 -2 1737 c 1,6,7
 40 1760 40 1760 83.5 1791.5 c 128,-1,8
 127 1823 127 1823 173 1865 c 1,9,10
 123 1903 123 1903 123 1938 c 0,11,12
 123 1988 123 1988 159 2041 c 0,13,14
 185 2076 185 2076 218 2076 c 0,15,16
 273 2076 273 2076 273 2004 c 0,17,18
 273 1962 273 1962 248 1908 c 1,19,20
 254 1904 254 1904 262 1897.5 c 128,-1,21
 270 1891 270 1891 280 1883 c 1,0,-1
223 1956 m 0,22,23
 223 1974 223 1974 209.5 1990 c 128,-1,24
 196 2006 196 2006 179 2006 c 0,25,26
 164 2006 164 2006 164 1989 c 0,27,28
 164 1964 164 1964 218 1928 c 1,29,30
 223 1948 223 1948 223 1956 c 0,22,23
EndSplineSet
AlternateSubs2: "'aalt' Access All Alternates in Latin lookup 1 subtable" dammaisolated dammalow
EndChar

StartChar: kasra
Encoding: 1616 1616 46
Width: 0
Flags: W
AnchorPoint: "ArabicBelowLigature" 165 -500 mark 0
AnchorPoint: "ArabicBelow" 165 -500 mark 0
LayerCount: 2
Fore
SplineSet
351 -620 m 1,0,1
 351 -686 351 -686 316 -706 c 2,2,-1
 13 -878 l 1,3,4
 16 -840 16 -840 27 -818 c 1,5,6
 40 -800 40 -800 79 -777 c 2,7,-1
 351 -620 l 1,0,1
EndSplineSet
AlternateSubs2: "'aalt' Access All Alternates in Latin lookup 1 subtable" kasraisolated kasralow
EndChar

StartChar: shadda
Encoding: 1617 1617 47
Width: 0
Flags: W
AnchorPoint: "ArabicAboveLigature" 300 1650 mark 0
AnchorPoint: "ArabicAbove" 300 1650 mark 0
LayerCount: 2
Fore
SplineSet
355 1683 m 0,0,1
 355 1515 355 1515 251 1515 c 0,2,3
 215 1515 215 1515 187 1536 c 1,4,5
 179 1501 179 1501 148 1476 c 0,6,7
 116 1450 116 1450 83 1450 c 0,8,9
 1 1450 1 1450 1 1558 c 0,10,11
 1 1583 1 1583 23 1659 c 1,12,-1
 46 1663 l 1,13,14
 46 1552 46 1552 85 1552 c 0,15,16
 149 1552 149 1552 175 1714 c 1,17,-1
 193 1720 l 1,18,19
 216 1622 216 1622 251 1622 c 0,20,21
 309 1622 309 1622 318 1769 c 1,22,-1
 341 1779 l 1,23,24
 355 1718 355 1718 355 1683 c 0,0,1
EndSplineSet
AlternateSubs2: "'aalt' Access All Alternates in Latin lookup 1 subtable" shaddaisolated shaddalow
EndChar

StartChar: sukun
Encoding: 1618 1618 48
Width: 0
Flags: W
AnchorPoint: "ArabicAboveLigature" 230 1275 mark 0
AnchorPoint: "ArabicAbove" 230 1275 mark 0
LayerCount: 2
Fore
SplineSet
260 1614 m 0,0,1
 260 1549 260 1549 214 1500 c 0,2,3
 167 1450 167 1450 109 1450 c 0,4,5
 2 1450 2 1450 2 1571 c 0,6,7
 2 1655 2 1655 40 1708 c 0,8,9
 77 1762 77 1762 139 1762 c 0,10,11
 186 1762 186 1762 223 1716 c 0,12,13
 260 1673 260 1673 260 1614 c 0,0,1
205 1590 m 0,14,15
 205 1616 205 1616 162 1647 c 0,16,17
 121 1676 121 1676 94 1676 c 0,18,19
 35 1676 35 1676 35 1608 c 0,20,21
 35 1549 35 1549 127 1549 c 0,22,23
 205 1549 205 1549 205 1590 c 0,14,15
EndSplineSet
AlternateSubs2: "'aalt' Access All Alternates in Latin lookup 1 subtable" sukunisolated sukunlow
EndChar

StartChar: arabicindicdigitzero
Encoding: 1632 1632 49
Width: 466
Flags: W
LayerCount: 2
Fore
SplineSet
362 449 m 1,0,-1
 292 205 l 1,1,-1
 98 325 l 1,2,-1
 168 569 l 1,3,-1
 362 449 l 1,0,-1
EndSplineSet
EndChar

StartChar: arabicindicdigitone
Encoding: 1633 1633 50
Width: 502
Flags: W
LayerCount: 2
Fore
SplineSet
404 134 m 2,0,1
 404 83 404 83 401 46.5 c 128,-1,2
 398 10 398 10 393 -15 c 1,3,-1
 393 -16 l 1,4,5
 385 -66 385 -66 367 -66 c 0,6,7
 355 -66 355 -66 342 0 c 0,8,9
 319 147 319 147 302.5 235 c 128,-1,10
 286 323 286 323 272 359 c 0,11,12
 258 394 258 394 246 425 c 128,-1,13
 234 456 234 456 222 484 c 0,14,15
 211 510 211 510 199 533.5 c 128,-1,16
 187 557 187 557 174 581 c 2,17,-1
 104 701 l 1,18,19
 105 714 105 714 106 723 c 128,-1,20
 107 732 107 732 109 738 c 0,21,22
 113 750 113 750 119.5 770.5 c 128,-1,23
 126 791 126 791 138 827 c 0,24,25
 171 917 171 917 177 919 c 1,26,27
 191 914 191 914 236 847 c 0,28,29
 265 805 265 805 291.5 749 c 128,-1,30
 318 693 318 693 344 618 c 0,31,32
 357 573 357 573 367.5 526 c 128,-1,33
 378 479 378 479 387 428 c 0,34,35
 395 377 395 377 399 329 c 128,-1,36
 403 281 403 281 403 235 c 2,37,-1
 403 199 l 1,38,-1
 404 134 l 2,0,1
EndSplineSet
EndChar

StartChar: arabicindicdigittwo
Encoding: 1634 1634 51
Width: 724
Flags: W
LayerCount: 2
Fore
SplineSet
183 720 m 1,0,-1
 183 792 l 2,1,2
 185 812 185 812 189 834.5 c 128,-1,3
 193 857 193 857 204 875 c 0,4,5
 228 915 228 915 281.5 931 c 128,-1,6
 335 947 335 947 400 950 c 128,-1,7
 465 953 465 953 531 948 c 128,-1,8
 597 943 597 943 673 930 c 1,9,10
 654 809 654 809 648 782 c 1,11,12
 632 788 632 788 569 795.5 c 128,-1,13
 506 803 506 803 484 802 c 128,-1,14
 462 801 462 801 454 800 c 0,15,16
 401 795 401 795 373 777.5 c 128,-1,17
 345 760 345 760 335.5 734.5 c 128,-1,18
 326 709 326 709 330.5 676.5 c 128,-1,19
 335 644 335 644 347.5 609 c 128,-1,20
 360 574 360 574 375.5 538 c 128,-1,21
 391 502 391 502 404 470 c 0,22,23
 405 467 405 467 407 462.5 c 128,-1,24
 409 458 409 458 413 444.5 c 128,-1,25
 417 431 417 431 424.5 404.5 c 128,-1,26
 432 378 432 378 444 331 c 2,27,-1
 460 233 l 1,28,-1
 467 155 l 1,29,-1
 470 73 l 2,30,31
 470 -78 470 -78 440 -78 c 0,32,33
 420 -78 420 -78 402 19 c 0,34,35
 388 95 388 95 369 178 c 0,36,37
 362 211 362 211 348 248 c 2,38,-1
 329 311 l 2,39,40
 297 402 297 402 265.5 475 c 128,-1,41
 234 548 234 548 209 631 c 2,42,-1
 183 720 l 1,0,-1
EndSplineSet
EndChar

StartChar: arabicindicdigitthree
Encoding: 1635 1635 52
Width: 939
Flags: W
LayerCount: 2
Fore
SplineSet
765 964 m 1,0,1
 766 964 766 964 766.5 964.5 c 128,-1,2
 767 965 767 965 768 965 c 1,3,-1
 765 964 l 1,0,1
768 944 m 1,4,5
 771 944 771 944 776 940 c 1,6,-1
 779 927 l 1,7,-1
 781 898 l 2,8,9
 781 856 781 856 773 813 c 128,-1,10
 765 770 765 770 748 720 c 0,11,12
 714 618 714 618 669 602 c 1,13,-1
 668 601 l 1,14,15
 659 599 659 599 650 597.5 c 128,-1,16
 641 596 641 596 637 596 c 0,17,18
 601 596 601 596 568 613 c 1,19,-1
 567 613 l 1,20,-1
 530 630 l 1,21,-1
 510 640 l 1,22,-1
 496 651 l 1,23,-1
 483 649 l 1,24,25
 459 619 459 619 436 599.5 c 128,-1,26
 413 580 413 580 392 569 c 2,27,-1
 353 555 l 1,28,-1
 346 538 l 1,29,-1
 361 472 l 1,30,-1
 376 395 l 1,31,-1
 383 330 l 1,32,-1
 390 273 l 1,33,-1
 390 117 l 2,34,35
 390 61 390 61 389 22.5 c 128,-1,36
 388 -16 388 -16 384 -40.5 c 128,-1,37
 380 -65 380 -65 374 -75.5 c 128,-1,38
 368 -86 368 -86 358 -86 c 0,39,40
 340 -86 340 -86 325 66 c 0,41,42
 309 230 309 230 272 348 c 0,43,44
 259 394 259 394 246.5 434 c 128,-1,45
 234 474 234 474 221 508 c 0,46,47
 208 545 208 545 197.5 573.5 c 128,-1,48
 187 602 187 602 178 623 c 1,49,-1
 177 624 l 1,50,-1
 123 732 l 1,51,-1
 100 778 l 1,52,-1
 122 831 l 2,53,54
 137 862 137 862 152.5 887 c 128,-1,55
 168 912 168 912 184 933 c 1,56,-1
 242 858 l 2,57,58
 319 762 319 762 369 762 c 0,59,60
 384 762 384 762 401 772 c 0,61,62
 455 815 455 815 487 872 c 2,63,-1
 553 981 l 1,64,65
 563 981 563 981 563 950 c 2,66,-1
 563 923 l 1,67,-1
 565 896 l 1,68,-1
 565 894 l 1,69,70
 570 875 570 875 600 846 c 1,71,-1
 600 845 l 1,72,73
 616 833 616 833 633 826 c 128,-1,74
 650 819 650 819 669 819 c 0,75,76
 695 819 695 819 718 848 c 2,77,-1
 721 852 l 1,78,-1
 746 918 l 2,79,80
 754 936 754 936 768 944 c 1,4,5
EndSplineSet
EndChar

StartChar: arabicindicdigitfour
Encoding: 1636 1636 53
Width: 630
Flags: W
LayerCount: 2
Fore
SplineSet
462 -64 m 1,0,-1
 457 -64 l 2,1,2
 402 -64 402 -64 289 -24 c 0,3,4
 116 28 116 28 116 107 c 0,5,6
 116 125 116 125 128.5 154 c 128,-1,7
 141 183 141 183 164 218 c 2,8,-1
 286 386 l 1,9,-1
 288 396 l 1,10,11
 288 416 288 416 188 484 c 0,12,13
 165 498 165 498 145.5 515 c 128,-1,14
 126 532 126 532 112 547 c 1,15,16
 111 555 111 555 110.5 561 c 128,-1,17
 110 567 110 567 109 575 c 0,18,19
 109 598 109 598 115.5 622.5 c 128,-1,20
 122 647 122 647 134 675 c 1,21,-1
 134 674 l 1,22,23
 158 720 158 720 193.5 764.5 c 128,-1,24
 229 809 229 809 274 850 c 0,25,26
 312 882 312 882 344 904 c 128,-1,27
 376 926 376 926 396 933 c 1,28,29
 390 896 390 896 385.5 864 c 128,-1,30
 381 832 381 832 376 795 c 1,31,-1
 311 775 l 1,32,33
 237 740 237 740 226 703 c 1,34,35
 226 670 226 670 309 621 c 0,36,37
 343 605 343 605 374.5 589.5 c 128,-1,38
 406 574 406 574 439 559 c 1,39,-1
 440 551 l 2,40,41
 440 533 440 533 423 501.5 c 128,-1,42
 406 470 406 470 377 433 c 2,43,-1
 295 346 l 2,44,45
 273 324 273 324 251 286 c 0,46,47
 239 266 239 266 237 247.5 c 128,-1,48
 235 229 235 229 240 215 c 1,49,-1
 244 209 l 1,50,51
 251 204 251 204 267 195.5 c 128,-1,52
 283 187 283 187 311 176 c 2,53,-1
 426 134 l 2,54,55
 444 129 444 129 462 124.5 c 128,-1,56
 480 120 480 120 499 115 c 0,57,58
 505 113 505 113 510 111 c 128,-1,59
 515 109 515 109 521 107 c 1,60,-1
 462 -64 l 1,0,-1
EndSplineSet
EndChar

StartChar: arabicindicdigitfive
Encoding: 1637 1637 54
Width: 740
Flags: W
LayerCount: 2
Fore
SplineSet
555 359 m 1,0,1
 560 364 560 364 560.5 367 c 128,-1,2
 561 370 561 370 561 374 c 0,3,4
 561 390 561 390 542.5 420.5 c 128,-1,5
 524 451 524 451 487 502 c 1,6,-1
 486 502 l 1,7,8
 388 624 388 624 313 624 c 0,9,10
 288 624 288 624 244 547 c 0,11,12
 202 472 202 472 202 411 c 2,13,-1
 202 410 l 1,14,-1
 206 368 l 1,15,16
 213 346 213 346 261 319 c 1,17,-1
 263 319 l 1,18,-1
 282 312 l 1,19,-1
 283 311 l 1,20,-1
 314 304 l 1,21,-1
 316 304 l 1,22,-1
 374 300 l 1,23,-1
 396 300 l 1,24,-1
 421 301 l 1,25,-1
 422 301 l 2,26,27
 442 303 442 303 448 306 c 1,28,-1
 473 313 l 2,29,30
 500 320 500 320 520.5 332 c 128,-1,31
 541 344 541 344 556 359 c 1,32,-1
 555 359 l 1,0,1
640 494 m 2,33,34
 640 423 640 423 616 321 c 0,35,36
 593 225 593 225 563 198 c 0,37,38
 513 159 513 159 442 130 c 0,39,40
 425 124 425 124 408 119.5 c 128,-1,41
 391 115 391 115 372 110 c 2,42,-1
 338 105 l 1,43,-1
 305 103 l 2,44,45
 262 103 262 103 221 116.5 c 128,-1,46
 180 130 180 130 143 172 c 0,47,48
 103 215 103 215 103 305 c 0,49,50
 103 454 103 454 206 641 c 0,51,52
 307 823 307 823 390 823 c 0,53,54
 447 823 447 823 522 737 c 0,55,56
 596 651 596 651 635 542 c 1,57,-1
 639 516 l 1,58,-1
 640 494 l 2,33,34
EndSplineSet
EndChar

StartChar: arabicindicdigitsix
Encoding: 1638 1638 55
Width: 770
Flags: W
LayerCount: 2
Fore
SplineSet
634 -57 m 2,0,1
 632 -57 632 -57 632 -55 c 1,2,3
 635 -57 635 -57 636 -57 c 1,4,-1
 634 -57 l 2,0,1
675 150 m 2,5,6
 674 138 674 138 668 107 c 128,-1,7
 662 76 662 76 652 31 c 0,8,9
 630 -43 630 -43 632 -55 c 1,10,11
 621 -48 621 -48 602 -19.5 c 128,-1,12
 583 9 583 9 560 54 c 0,13,14
 522 129 522 129 502 210 c 128,-1,15
 482 291 482 291 482 375 c 2,16,-1
 482 474 l 2,17,18
 485 519 485 519 485.5 549 c 128,-1,19
 486 579 486 579 486 591 c 0,20,21
 487 603 487 603 489.5 625 c 128,-1,22
 492 647 492 647 495 673 c 1,23,-1
 471 698 l 1,24,25
 460 696 460 696 445.5 693 c 128,-1,26
 431 690 431 690 419 688 c 0,27,28
 415 687 415 687 410 687 c 0,29,30
 406 687 406 687 403 686 c 0,31,32
 371 681 371 681 351 678 c 128,-1,33
 331 675 331 675 312 675 c 0,34,35
 230 675 230 675 201 691 c 0,36,37
 145 714 145 714 115 766 c 1,38,-1
 117 763 l 1,39,40
 115 768 115 768 113 775.5 c 128,-1,41
 111 783 111 783 109 789 c 1,42,-1
 107 819 l 2,43,44
 107 859 107 859 133 965 c 1,45,-1
 191 928 l 2,46,47
 236 907 236 907 280.5 896 c 128,-1,48
 325 885 325 885 375 885 c 0,49,50
 406 885 406 885 450 893 c 128,-1,51
 494 901 494 901 546 915 c 1,52,-1
 548 915 l 1,53,-1
 542 885 l 1,54,-1
 542 886 l 1,55,-1
 528 808 l 2,56,57
 527 794 527 794 526 779 c 128,-1,58
 525 764 525 764 524 750 c 2,59,-1
 513 643 l 1,60,-1
 518 643 l 1,61,-1
 518 599 l 1,62,-1
 523 552 l 1,63,-1
 527 516 l 1,64,-1
 545 435 l 2,65,66
 557 388 557 388 574.5 341.5 c 128,-1,67
 592 295 592 295 615 251 c 0,68,69
 630 223 630 223 643 201.5 c 128,-1,70
 656 180 656 180 675 155 c 1,71,-1
 675 150 l 2,5,6
EndSplineSet
EndChar

StartChar: arabicindicdigitseven
Encoding: 1639 1639 56
Width: 919
Flags: W
LayerCount: 2
Fore
SplineSet
814 763 m 1,0,1
 800 749 800 749 776 715.5 c 128,-1,2
 752 682 752 682 720 628 c 0,3,4
 691 579 691 579 661.5 514.5 c 128,-1,5
 632 450 632 450 601 369 c 2,6,-1
 568 271 l 1,7,-1
 510 87 l 2,8,9
 478 -11 478 -11 466 -15 c 1,10,11
 453 -15 453 -15 428 73 c 0,12,13
 416 119 416 119 404 158.5 c 128,-1,14
 392 198 392 198 379 234 c 0,15,16
 368 267 368 267 355.5 297 c 128,-1,17
 343 327 343 327 329 355 c 2,18,-1
 289 442 l 2,19,20
 278 463 278 463 269 480.5 c 128,-1,21
 260 498 260 498 250 514 c 0,22,23
 232 546 232 546 212 576 c 128,-1,24
 192 606 192 606 170 634 c 1,25,-1
 170 635 l 1,26,-1
 119 692 l 1,27,-1
 100 710 l 1,28,-1
 126 784 l 2,29,30
 140 823 140 823 152 849.5 c 128,-1,31
 164 876 164 876 174 889 c 1,32,-1
 217 844 l 1,33,-1
 243 809 l 1,34,-1
 275 759 l 2,35,36
 286 742 286 742 296.5 721 c 128,-1,37
 307 700 307 700 320 674 c 2,38,-1
 418 438 l 1,39,-1
 479 279 l 1,40,-1
 501 279 l 1,41,-1
 544 409 l 1,42,-1
 569 484 l 1,43,-1
 598 562 l 1,44,-1
 626 633 l 1,45,-1
 655 698 l 2,46,47
 670 736 670 736 694.5 776 c 128,-1,48
 719 816 719 816 751 861 c 0,49,50
 770 887 770 887 780.5 901.5 c 128,-1,51
 791 916 791 916 796 921 c 1,52,53
 796 916 796 916 799 895 c 0,54,55
 802 875 802 875 814 763 c 1,0,1
EndSplineSet
EndChar

StartChar: arabicindicdigiteight
Encoding: 1640 1640 57
Width: 903
Flags: W
LayerCount: 2
Fore
SplineSet
793 104 m 2,0,1
 777 47 777 47 764 13.5 c 128,-1,2
 751 -20 751 -20 740 -34 c 1,3,-1
 697 13 l 2,4,5
 681 33 681 33 668 53.5 c 128,-1,6
 655 74 655 74 644 94 c 0,7,8
 637 105 637 105 625.5 127.5 c 128,-1,9
 614 150 614 150 597 186 c 2,10,-1
 558 273 l 1,11,-1
 501 417 l 1,12,-1
 441 573 l 1,13,-1
 419 573 l 1,14,-1
 394 500 l 1,15,-1
 350 382 l 1,16,-1
 315 293 l 1,17,-1
 263 171 l 2,18,19
 246 128 246 128 221.5 84 c 128,-1,20
 197 40 197 40 166 -5 c 0,21,22
 121 -70 121 -70 117 -71 c 1,23,24
 105 -62 105 -62 105 58 c 2,25,-1
 103 115 l 1,26,-1
 195 232 l 1,27,-1
 196 233 l 1,28,29
 223 281 223 281 252 343 c 128,-1,30
 281 405 281 405 313 486 c 2,31,-1
 386 703 l 2,32,33
 439 867 439 867 452 867 c 0,34,35
 469 867 469 867 495 780 c 0,36,37
 514 697 514 697 536 634 c 128,-1,38
 558 571 558 571 590 509 c 0,39,40
 625 431 625 431 655.5 372.5 c 128,-1,41
 686 314 686 314 712 276 c 2,42,-1
 806 152 l 1,43,-1
 793 104 l 2,0,1
EndSplineSet
EndChar

StartChar: arabicindicdigitnine
Encoding: 1641 1641 58
Width: 757
Flags: W
LayerCount: 2
Fore
SplineSet
420 579 m 1,0,1
 412 641 412 641 400 663 c 1,2,3
 374 739 374 739 321 752 c 1,4,-1
 317 752 l 2,5,6
 294 752 294 752 257 709 c 2,7,-1
 256 708 l 1,8,9
 225 665 225 665 225 642 c 1,10,11
 231 628 231 628 251.5 616.5 c 128,-1,12
 272 605 272 605 309 586 c 1,13,-1
 311 586 l 1,14,15
 380 562 380 562 398 562 c 2,16,-1
 400 562 l 1,17,-1
 410 564 l 1,18,-1
 420 579 l 1,0,1
660 111 m 2,19,20
 660 82 660 82 636 -5 c 0,21,22
 610 -95 610 -95 608 -97 c 1,23,24
 584 -92 584 -92 522 52 c 2,25,-1
 499 115 l 1,26,-1
 477 185 l 2,27,28
 469 217 469 217 461 258 c 128,-1,29
 453 299 453 299 445 350 c 1,30,-1
 434 360 l 1,31,-1
 419 363 l 1,32,-1
 370 369 l 2,33,34
 315 369 315 369 258 378 c 0,35,36
 201 388 201 388 154 434 c 1,37,-1
 153 434 l 1,38,39
 107 478 107 478 103 539 c 0,40,41
 103 593 103 593 126.5 657 c 128,-1,42
 150 721 150 721 198 794 c 0,43,44
 294 939 294 939 360 939 c 0,45,46
 427 939 427 939 476 842 c 0,47,48
 529 738 529 738 529 544 c 0,49,50
 529 450 529 450 544.5 368.5 c 128,-1,51
 560 287 560 287 595 217 c 0,52,53
 603 200 603 200 615 180.5 c 128,-1,54
 627 161 627 161 642 138 c 1,55,-1
 643 137 l 1,56,-1
 659 119 l 1,57,-1
 660 111 l 2,19,20
EndSplineSet
EndChar

StartChar: arabicpercentsign
Encoding: 1642 1642 59
Width: 567
Flags: W
LayerCount: 2
Fore
SplineSet
197 869 m 1,0,-1
 31 869 l 1,1,-1
 31 1049 l 1,2,-1
 197 1049 l 1,3,-1
 197 869 l 1,0,-1
520 1049 m 1,4,-1
 109 8 l 1,5,-1
 16 8 l 1,6,-1
 427 1049 l 1,7,-1
 520 1049 l 1,4,-1
508 -7 m 1,8,-1
 341 -7 l 1,9,-1
 341 172 l 1,10,-1
 508 172 l 1,11,-1
 508 -7 l 1,8,-1
EndSplineSet
EndChar

StartChar: arabicfivepointedstar
Encoding: 1645 1645 60
Width: 815
Flags: W
LayerCount: 2
Fore
SplineSet
765 1190 m 1,0,-1
 547 1029 l 1,1,-1
 629 770 l 1,2,-1
 408 928 l 1,3,-1
 187 770 l 1,4,-1
 269 1029 l 1,5,-1
 51 1190 l 1,6,-1
 322 1190 l 1,7,-1
 408 1450 l 1,8,-1
 494 1190 l 1,9,-1
 765 1190 l 1,0,-1
EndSplineSet
EndChar

StartChar: shaddawithdammatanisolated
Encoding: 64606 64606 62
Width: 482
Flags: W
LayerCount: 2
Fore
SplineSet
482 1788 m 0,0,1
 482 1779 482 1779 475 1769 c 1,2,3
 451 1775 451 1775 381 1800 c 1,4,5
 248 1730 248 1730 174 1730 c 0,6,7
 132 1730 132 1730 92 1743 c 1,8,9
 156 1777 156 1777 156 1818 c 0,10,11
 156 1872 156 1872 106 1872 c 1,12,13
 113 1872 113 1872 104 1870.5 c 128,-1,14
 95 1869 95 1869 70 1865 c 1,15,16
 94 1941 94 1941 141 1941 c 0,17,18
 166 1941 166 1941 184.5 1919 c 128,-1,19
 203 1897 203 1897 203 1865 c 0,20,21
 203 1841 203 1841 186 1792 c 1,22,23
 258 1800 258 1800 319 1837 c 1,24,25
 266 1873 266 1873 266 1915 c 0,26,27
 266 1951 266 1951 309 1988 c 0,28,29
 352 2027 352 2027 393 2027 c 0,30,31
 415 2027 415 2027 438 2003 c 0,32,33
 461 1977 461 1977 461 1953 c 0,34,35
 461 1925 461 1925 436 1874 c 1,36,37
 482 1846 482 1846 482 1788 c 0,0,1
455 1677 m 0,38,39
 455 1640 455 1640 447 1609 c 128,-1,40
 439 1578 439 1578 425 1556 c 128,-1,41
 411 1534 411 1534 391.5 1521.5 c 128,-1,42
 372 1509 372 1509 350 1509 c 0,43,44
 330 1509 330 1509 282 1532 c 2,45,-1
 278 1534 l 1,46,47
 233 1450 233 1450 174 1450 c 0,48,49
 94 1450 94 1450 94 1554 c 0,50,51
 94 1583 94 1583 117 1650 c 1,52,-1
 137 1652 l 1,53,54
 141 1552 141 1552 186 1552 c 0,55,56
 233 1552 233 1552 272 1687 c 1,57,-1
 291 1689 l 1,58,59
 307 1616 307 1616 356 1616 c 0,60,61
 407 1616 407 1616 430 1726 c 1,62,-1
 450 1726 l 1,63,64
 452 1715 452 1715 453.5 1703 c 128,-1,65
 455 1691 455 1691 455 1677 c 0,38,39
395 1941 m 0,66,67
 395 1982 395 1982 364 1982 c 0,68,69
 334 1982 334 1982 334 1958 c 256,70,71
 334 1934 334 1934 381 1902 c 1,72,73
 395 1928 395 1928 395 1941 c 0,66,67
EndSplineSet
Ligature2: "'liga' Standard Ligatures in Arabic lookup 7 subtable" shadda dammatan
AlternateSubs2: "'aalt' Access All Alternates in Latin lookup 1 subtable" shaddawithdammatanisolated shaddawithdammatanisolatedlow
EndChar

StartChar: shaddawithkasratanisolated
Encoding: 64607 64607 63
Width: 420
Flags: W
LayerCount: 2
Fore
SplineSet
420 1940 m 0,0,1
 420 1772 420 1772 316 1772 c 0,2,3
 280 1772 280 1772 252 1793 c 1,4,5
 244 1758 244 1758 213 1733 c 0,6,7
 181 1707 181 1707 148 1707 c 0,8,9
 66 1707 66 1707 66 1815 c 0,10,11
 66 1840 66 1840 88 1916 c 1,12,-1
 111 1920 l 1,13,14
 111 1809 111 1809 150 1809 c 0,15,16
 214 1809 214 1809 240 1971 c 1,17,-1
 258 1977 l 1,18,19
 281 1879 281 1879 316 1879 c 0,20,21
 374 1879 374 1879 383 2026 c 1,22,-1
 406 2036 l 1,23,24
 420 1975 420 1975 420 1940 c 0,0,1
412 1773 m 1,25,26
 397 1707 397 1707 353 1687 c 2,27,-1
 70 1560 l 1,28,29
 98 1633 98 1633 156 1659 c 2,30,-1
 412 1773 l 1,25,26
412 1656 m 1,31,32
 397 1594 397 1594 346 1572 c 2,33,-1
 70 1450 l 1,34,35
 90 1520 90 1520 142 1542 c 2,36,-1
 412 1656 l 1,31,32
EndSplineSet
Ligature2: "'liga' Standard Ligatures in Arabic lookup 7 subtable" shadda kasratan
AlternateSubs2: "'aalt' Access All Alternates in Latin lookup 1 subtable" shaddawithkasratanisolated shaddawithkasratanisolatedlow
EndChar

StartChar: shaddawithfathaisolated
Encoding: 64608 64608 64
Width: 414
Flags: W
LayerCount: 2
Fore
SplineSet
408 1845 m 1,0,1
 398 1784 398 1784 359 1769 c 2,2,-1
 64 1653 l 1,3,4
 91 1722 91 1722 150 1745 c 2,5,-1
 408 1845 l 1,0,1
414 1673 m 0,6,7
 414 1638 414 1638 406 1608.5 c 128,-1,8
 398 1579 398 1579 384 1557 c 128,-1,9
 370 1535 370 1535 350.5 1523 c 128,-1,10
 331 1511 331 1511 308 1511 c 0,11,12
 290 1511 290 1511 246 1534 c 2,13,-1
 242 1536 l 1,14,15
 204 1450 204 1450 138 1450 c 0,16,17
 60 1450 60 1450 60 1548 c 1,18,19
 60 1543 60 1543 66 1609 c 1,20,-1
 95 1628 l 1,21,22
 105 1550 105 1550 148 1550 c 0,23,24
 203 1550 203 1550 236 1683 c 1,25,-1
 258 1689 l 1,26,27
 283 1616 283 1616 316 1616 c 0,28,29
 373 1616 373 1616 381 1738 c 1,30,-1
 408 1747 l 1,31,32
 414 1714 414 1714 414 1673 c 0,6,7
EndSplineSet
Ligature2: "'liga' Standard Ligatures in Arabic lookup 7 subtable" shadda fatha
AlternateSubs2: "'aalt' Access All Alternates in Latin lookup 1 subtable" shaddawithfathaisolated shaddawithfathaisolatedlow
EndChar

StartChar: shaddawithdammaisolated
Encoding: 64609 64609 65
Width: 424
Flags: W
LayerCount: 2
Fore
SplineSet
424 1763 m 1,0,1
 381 1769 381 1769 314 1792 c 1,2,3
 192 1694 192 1694 129 1694 c 0,4,5
 107 1694 107 1694 64 1714 c 1,6,7
 130 1736 130 1736 182.5 1760 c 128,-1,8
 235 1784 235 1784 273 1812 c 1,9,10
 224 1849 224 1849 224 1896 c 0,11,12
 224 1938 224 1938 262 1979 c 0,13,14
 301 2019 301 2019 344 2019 c 0,15,16
 366 2019 366 2019 392 1995 c 0,17,18
 418 1972 418 1972 418 1952 c 0,19,20
 418 1907 418 1907 382 1864 c 1,21,22
 390 1860 390 1860 399 1854.5 c 128,-1,23
 408 1849 408 1849 417 1842 c 0,24,25
 424 1835 424 1835 424 1800 c 2,26,-1
 424 1763 l 1,0,1
418 1720 m 1,27,28
 418 1505 418 1505 310 1505 c 0,29,30
 268 1505 268 1505 240 1530 c 1,31,32
 208 1450 208 1450 136 1450 c 0,33,34
 58 1450 58 1450 58 1548 c 0,35,36
 58 1592 58 1592 80 1632 c 1,37,-1
 101 1634 l 1,38,39
 107 1552 107 1552 148 1552 c 0,40,41
 194 1552 194 1552 236 1671 c 1,42,-1
 260 1677 l 1,43,44
 272 1610 272 1610 314 1610 c 0,45,46
 370 1610 370 1610 394 1714 c 1,47,-1
 418 1720 l 1,27,28
353 1927 m 0,48,49
 353 1976 353 1976 310 1976 c 0,50,51
 285 1976 285 1976 285 1946 c 0,52,53
 285 1922 285 1922 344 1884 c 1,54,55
 353 1908 353 1908 353 1927 c 0,48,49
EndSplineSet
Ligature2: "'liga' Standard Ligatures in Arabic lookup 7 subtable" shadda damma
AlternateSubs2: "'aalt' Access All Alternates in Latin lookup 1 subtable" shaddawithdammaisolated shaddawithdammaisolatedlow
EndChar

StartChar: shaddawithkasraisolated
Encoding: 64610 64610 66
Width: 420
Flags: W
LayerCount: 2
Fore
SplineSet
420 1830 m 0,0,1
 420 1662 420 1662 316 1662 c 0,2,3
 280 1662 280 1662 252 1683 c 1,4,5
 244 1648 244 1648 213 1623 c 0,6,7
 181 1597 181 1597 148 1597 c 0,8,9
 66 1597 66 1597 66 1705 c 0,10,11
 66 1730 66 1730 88 1806 c 1,12,-1
 111 1810 l 1,13,14
 111 1699 111 1699 150 1699 c 0,15,16
 214 1699 214 1699 240 1861 c 1,17,-1
 258 1867 l 1,18,19
 281 1769 281 1769 316 1769 c 0,20,21
 374 1769 374 1769 383 1916 c 1,22,-1
 406 1926 l 1,23,24
 420 1865 420 1865 420 1830 c 0,0,1
412 1663 m 1,25,26
 397 1597 397 1597 353 1577 c 2,27,-1
 70 1450 l 1,28,29
 98 1523 98 1523 156 1549 c 2,30,-1
 412 1663 l 1,25,26
EndSplineSet
Ligature2: "'liga' Standard Ligatures in Arabic lookup 7 subtable" shadda kasra
AlternateSubs2: "'aalt' Access All Alternates in Latin lookup 1 subtable" shaddawithkasraisolated shaddawithkasraisolatedlow
EndChar

StartChar: shaddawithfathamedial
Encoding: 64754 64754 67
Width: 1284
Flags: W
LayerCount: 2
Fore
SplineSet
807 1552 m 1,0,1
 807 1486 807 1486 772 1466 c 2,2,-1
 469 1294 l 1,3,4
 472 1332 472 1332 483 1353 c 0,5,6
 495 1373 495 1373 535 1395 c 2,7,-1
 807 1552 l 1,0,1
819 1263 m 0,8,9
 819 1095 819 1095 715 1095 c 0,10,11
 679 1095 679 1095 651 1116 c 1,12,13
 643 1081 643 1081 612 1056 c 0,14,15
 580 1030 580 1030 547 1030 c 0,16,17
 465 1030 465 1030 465 1138 c 0,18,19
 465 1163 465 1163 487 1239 c 1,20,-1
 510 1243 l 1,21,22
 510 1132 510 1132 549 1132 c 0,23,24
 613 1132 613 1132 639 1294 c 1,25,-1
 657 1300 l 1,26,27
 680 1202 680 1202 715 1202 c 0,28,29
 773 1202 773 1202 782 1349 c 1,30,-1
 805 1359 l 1,31,32
 819 1298 819 1298 819 1263 c 0,8,9
1354 129 m 1,33,-1
 0 129 l 1,34,-1
 0 250 l 1,35,-1
 1354 250 l 1,36,-1
 1354 129 l 1,33,-1
EndSplineSet
Ligature2: "'liga' Standard Ligatures in Arabic lookup 6 subtable" tatweel shadda fatha
EndChar

StartChar: shaddawithdammamedial
Encoding: 64755 64755 68
Width: 1284
Flags: W
LayerCount: 2
Fore
SplineSet
813 1503 m 1,0,-1
 805 1404 l 1,1,-1
 725 1456 l 1,2,3
 605 1312 605 1312 528 1312 c 0,4,5
 509 1312 509 1312 469 1324 c 1,6,7
 571 1381 571 1381 682 1480 c 1,8,9
 621 1525 621 1525 621 1570 c 0,10,11
 621 1630 621 1630 666 1695 c 0,12,13
 696 1738 696 1738 737 1738 c 0,14,15
 805 1738 805 1738 805 1650 c 0,16,17
 805 1599 805 1599 774 1533 c 1,18,19
 787 1522 787 1522 813 1503 c 1,0,-1
819 1263 m 0,20,21
 819 1095 819 1095 715 1095 c 0,22,23
 679 1095 679 1095 651 1116 c 1,24,25
 643 1081 643 1081 612 1056 c 0,26,27
 580 1030 580 1030 547 1030 c 0,28,29
 465 1030 465 1030 465 1138 c 0,30,31
 465 1163 465 1163 487 1239 c 1,32,-1
 510 1243 l 1,33,34
 510 1132 510 1132 549 1132 c 0,35,36
 613 1132 613 1132 639 1294 c 1,37,-1
 657 1300 l 1,38,39
 680 1202 680 1202 715 1202 c 0,40,41
 773 1202 773 1202 782 1349 c 1,42,-1
 805 1359 l 1,43,44
 819 1298 819 1298 819 1263 c 0,20,21
743 1591 m 0,45,46
 743 1614 743 1614 727 1633 c 128,-1,47
 711 1652 711 1652 690 1652 c 0,48,49
 672 1652 672 1652 672 1632 c 0,50,51
 672 1601 672 1601 737 1557 c 1,52,53
 743 1576 743 1576 743 1591 c 0,45,46
1354 129 m 1,54,-1
 0 129 l 1,55,-1
 0 250 l 1,56,-1
 1354 250 l 1,57,-1
 1354 129 l 1,54,-1
EndSplineSet
Ligature2: "'liga' Standard Ligatures in Arabic lookup 6 subtable" tatweel shadda damma
EndChar

StartChar: shaddawithkasramedial
Encoding: 64756 64756 69
Width: 1284
Flags: W
LayerCount: 2
Fore
SplineSet
819 1491 m 0,0,1
 819 1323 819 1323 715 1323 c 0,2,3
 679 1323 679 1323 651 1344 c 1,4,5
 643 1309 643 1309 612 1284 c 0,6,7
 580 1258 580 1258 547 1258 c 0,8,9
 465 1258 465 1258 465 1366 c 0,10,11
 465 1391 465 1391 487 1467 c 1,12,-1
 510 1471 l 1,13,14
 510 1360 510 1360 549 1360 c 0,15,16
 613 1360 613 1360 639 1522 c 1,17,-1
 657 1528 l 1,18,19
 680 1430 680 1430 715 1430 c 0,20,21
 773 1430 773 1430 782 1577 c 1,22,-1
 805 1587 l 1,23,24
 819 1526 819 1526 819 1491 c 0,0,1
807 1288 m 1,25,26
 807 1222 807 1222 772 1202 c 2,27,-1
 469 1030 l 1,28,29
 472 1068 472 1068 483 1089 c 0,30,31
 495 1109 495 1109 535 1131 c 2,32,-1
 807 1288 l 1,25,26
1354 129 m 1,33,-1
 0 129 l 1,34,-1
 0 250 l 1,35,-1
 1354 250 l 1,36,-1
 1354 129 l 1,33,-1
EndSplineSet
Ligature2: "'liga' Standard Ligatures in Arabic lookup 6 subtable" tatweel shadda kasra
EndChar

StartChar: ornateleftparenthesis
Encoding: 64830 64830 70
Width: 750
Flags: W
LayerCount: 2
Fore
SplineSet
550 -200 m 1,0,-1
 200 -200 l 1,1,-1
 200 1750 l 1,2,-1
 550 1750 l 1,3,-1
 550 1600 l 1,4,-1
 350 1600 l 1,5,-1
 350 -50 l 1,6,-1
 550 -50 l 1,7,-1
 550 -200 l 1,0,-1
EndSplineSet
EndChar

StartChar: ornaterightparenthesis
Encoding: 64831 64831 71
Width: 750
Flags: W
LayerCount: 2
Fore
SplineSet
544 -200 m 1,0,-1
 194 -200 l 1,1,-1
 194 -50 l 1,2,-1
 394 -50 l 1,3,-1
 394 1600 l 1,4,-1
 194 1600 l 1,5,-1
 194 1750 l 1,6,-1
 544 1750 l 1,7,-1
 544 -200 l 1,0,-1
EndSplineSet
EndChar

StartChar: allahisolated
Encoding: 65010 65010 72
Width: 2109
Flags: W
LayerCount: 2
Fore
SplineSet
1793 154 m 1,0,-1
 1534 154 l 1,1,-1
 1534 1521 l 1,2,3
 1417 1393 1417 1393 1227 1368 c 1,4,-1
 1227 154 l 1,5,-1
 1002 154 l 1,6,-1
 1002 900 l 1,7,-1
 547 900 l 2,8,9
 273 900 273 900 273 747 c 2,10,-1
 273 0 l 1,11,-1
 2104 0 l 1,12,-1
 2104 1749 l 1,13,-1
 2102 1749 l 1,14,15
 1985 1617 1985 1617 1793 1590 c 1,16,-1
 1793 154 l 1,0,-1
597 160 m 1,17,-1
 597 708 l 2,18,19
 597 783 597 783 694 783 c 1,20,-1
 694 216 l 2,21,22
 694 167 694 167 597 160 c 1,17,-1
1539 1527 m 1,23,24
 1535 1523 1535 1523 1534 1521 c 1,25,-1
 1533 1521 l 1,26,-1
 1534 1521 l 1,27,-1
 1539 1527 l 1,23,24
1504 1645 m 0,28,29
 1504 1477 1504 1477 1400 1477 c 0,30,31
 1364 1477 1364 1477 1336 1498 c 1,32,33
 1328 1463 1328 1463 1297 1438 c 0,34,35
 1265 1412 1265 1412 1232 1412 c 0,36,37
 1149 1412 1149 1412 1151 1520 c 0,38,39
 1153 1543 1153 1543 1195 1625 c 1,40,41
 1195 1514 1195 1514 1234 1514 c 0,42,43
 1298 1514 1298 1514 1342 1682 c 1,44,45
 1365 1584 1365 1584 1400 1584 c 0,46,47
 1458 1584 1458 1584 1487 1731 c 2,48,-1
 1490 1741 l 1,49,50
 1504 1680 1504 1680 1504 1645 c 0,28,29
1319 1691 m 1,51,52
 1332 1777 1332 1777 1309 1825 c 2,53,-1
 1293 1858 l 1,54,-1
 1307 1908 l 1,55,56
 1324 1885 1324 1885 1333 1836 c 0,57,58
 1342 1786 1342 1786 1339 1739 c 1,59,-1
 1319 1691 l 1,51,52
EndSplineSet
Ligature2: "'liga' Standard Ligatures in Arabic lookup 6 subtable" laminitial lammedial hehfinal
EndChar

StartChar: fathatanisolated
Encoding: 65136 65136 73
Width: 408
Flags: W
LayerCount: 2
Fore
SplineSet
408 2054 m 1,0,1
 408 1988 408 1988 373 1968 c 2,2,-1
 70 1796 l 1,3,4
 73 1834 73 1834 84 1855 c 0,5,6
 96 1875 96 1875 136 1897 c 2,7,-1
 408 2054 l 1,0,1
408 1908 m 1,8,9
 408 1842 408 1842 373 1822 c 2,10,-1
 70 1650 l 1,11,12
 73 1688 73 1688 84 1709 c 0,13,14
 96 1729 96 1729 136 1751 c 2,15,-1
 408 1908 l 1,8,9
EndSplineSet
EndChar

StartChar: tatweelwithfathatanabove
Encoding: 65137 65137 74
Width: 1284
Flags: W
LayerCount: 2
Fore
SplineSet
811 1434 m 1,0,1
 811 1368 811 1368 776 1348 c 2,2,-1
 473 1176 l 1,3,4
 476 1214 476 1214 487 1235 c 0,5,6
 499 1255 499 1255 539 1277 c 2,7,-1
 811 1434 l 1,0,1
811 1288 m 1,8,9
 811 1222 811 1222 776 1202 c 2,10,-1
 473 1030 l 1,11,12
 476 1068 476 1068 487 1089 c 0,13,14
 499 1109 499 1109 539 1131 c 2,15,-1
 811 1288 l 1,8,9
1354 129 m 1,16,-1
 0 129 l 1,17,-1
 0 250 l 1,18,-1
 1354 250 l 1,19,-1
 1354 129 l 1,16,-1
EndSplineSet
Ligature2: "'liga' Standard Ligatures in Arabic lookup 6 subtable" tatweel fathatan
EndChar

StartChar: dammatanisolated
Encoding: 65138 65138 75
Width: 463
Flags: W
LayerCount: 2
Fore
SplineSet
463 1582 m 0,0,1
 463 1565 463 1565 462.5 1550 c 128,-1,2
 462 1535 462 1535 461 1523 c 1,3,4
 441 1534 441 1534 418 1548.5 c 128,-1,5
 395 1563 395 1563 369 1582 c 1,6,7
 243 1453 243 1453 129 1437 c 1,8,9
 172 1526 172 1526 172 1566 c 0,10,11
 172 1621 172 1621 123 1621 c 0,12,13
 81 1621 81 1621 74 1545 c 1,14,15
 64 1574 64 1574 64 1597 c 256,16,17
 64 1620 64 1620 70.5 1640 c 128,-1,18
 77 1660 77 1660 88.5 1675 c 128,-1,19
 100 1690 100 1690 115 1698.5 c 128,-1,20
 130 1707 130 1707 148 1707 c 0,21,22
 215 1707 215 1707 215 1607 c 2,23,-1
 209 1515 l 1,24,25
 274 1540 274 1540 333 1605 c 1,26,27
 267 1648 267 1648 267 1699 c 0,28,29
 267 1752 267 1752 307 1798 c 0,30,31
 347 1846 347 1846 389 1846 c 0,32,33
 411 1846 411 1846 434 1819 c 0,34,35
 457 1793 457 1793 457 1766 c 0,36,37
 457 1736 457 1736 446 1708 c 128,-1,38
 424 1652 l 1,39,40
 463 1622 463 1622 463 1582 c 0,0,1
387 1726 m 0,41,42
 387 1779 387 1779 346 1779 c 0,43,44
 320 1779 320 1779 320 1756 c 0,45,46
 320 1730 320 1730 383 1687 c 1,47,48
 387 1696 387 1696 387 1726 c 0,41,42
EndSplineSet
EndChar

StartChar: kasratanisolated
Encoding: 65140 65140 76
Width: 408
Flags: W
LayerCount: 2
Fore
SplineSet
408 -620 m 1,0,1
 408 -686 408 -686 373 -706 c 2,2,-1
 70 -878 l 1,3,4
 73 -840 73 -840 84 -818 c 1,5,6
 97 -800 97 -800 136 -777 c 2,7,-1
 408 -620 l 1,0,1
408 -767 m 1,8,9
 408 -833 408 -833 373 -853 c 2,10,-1
 70 -1025 l 1,11,12
 73 -987 73 -987 84 -965 c 1,13,14
 97 -947 97 -947 136 -924 c 2,15,-1
 408 -767 l 1,8,9
EndSplineSet
EndChar

StartChar: fathaisolated
Encoding: 65142 65142 77
Width: 408
Flags: W
LayerCount: 2
Fore
SplineSet
408 1708 m 1,0,1
 408 1642 408 1642 373 1622 c 2,2,-1
 70 1450 l 1,3,4
 73 1488 73 1488 84 1509 c 0,5,6
 96 1529 96 1529 136 1551 c 2,7,-1
 408 1708 l 1,0,1
EndSplineSet
EndChar

StartChar: fathamedial
Encoding: 65143 65143 78
Width: 1284
Flags: W
LayerCount: 2
Fore
SplineSet
811 1288 m 1,0,1
 811 1222 811 1222 776 1202 c 2,2,-1
 473 1030 l 1,3,4
 476 1068 476 1068 487 1089 c 0,5,6
 499 1109 499 1109 539 1131 c 2,7,-1
 811 1288 l 1,0,1
1354 129 m 1,8,-1
 0 129 l 1,9,-1
 0 250 l 1,10,-1
 1354 250 l 1,11,-1
 1354 129 l 1,8,-1
EndSplineSet
Ligature2: "'liga' Standard Ligatures in Arabic lookup 6 subtable" tatweel fatha
EndChar

StartChar: dammaisolated
Encoding: 65144 65144 79
Width: 414
Flags: W
LayerCount: 2
Fore
SplineSet
414 1641 m 1,0,-1
 406 1542 l 1,1,-1
 326 1594 l 1,2,3
 206 1450 206 1450 129 1450 c 0,4,5
 110 1450 110 1450 70 1462 c 1,6,7
 172 1519 172 1519 283 1618 c 1,8,9
 222 1663 222 1663 222 1708 c 0,10,11
 222 1768 222 1768 267 1833 c 0,12,13
 297 1876 297 1876 338 1876 c 0,14,15
 406 1876 406 1876 406 1788 c 0,16,17
 406 1737 406 1737 375 1671 c 1,18,19
 388 1660 388 1660 414 1641 c 1,0,-1
344 1729 m 0,20,21
 344 1752 344 1752 328 1771 c 128,-1,22
 312 1790 312 1790 291 1790 c 0,23,24
 273 1790 273 1790 273 1770 c 0,25,26
 273 1739 273 1739 338 1695 c 1,27,28
 344 1714 344 1714 344 1729 c 0,20,21
EndSplineSet
EndChar

StartChar: dammamedial
Encoding: 65145 65145 80
Width: 1284
Flags: W
LayerCount: 2
Fore
SplineSet
814 1221 m 1,0,-1
 806 1122 l 1,1,-1
 726 1174 l 1,2,3
 606 1030 606 1030 529 1030 c 0,4,5
 510 1030 510 1030 470 1042 c 1,6,7
 572 1099 572 1099 683 1198 c 1,8,9
 622 1243 622 1243 622 1288 c 0,10,11
 622 1348 622 1348 667 1413 c 0,12,13
 697 1456 697 1456 738 1456 c 0,14,15
 806 1456 806 1456 806 1368 c 0,16,17
 806 1317 806 1317 775 1251 c 1,18,19
 788 1240 788 1240 814 1221 c 1,0,-1
744 1309 m 0,20,21
 744 1332 744 1332 728 1351 c 128,-1,22
 712 1370 712 1370 691 1370 c 0,23,24
 673 1370 673 1370 673 1350 c 0,25,26
 673 1319 673 1319 738 1275 c 1,27,28
 744 1294 744 1294 744 1309 c 0,20,21
1354 129 m 1,29,-1
 0 129 l 1,30,-1
 0 250 l 1,31,-1
 1354 250 l 1,32,-1
 1354 129 l 1,29,-1
EndSplineSet
Ligature2: "'liga' Standard Ligatures in Arabic lookup 6 subtable" tatweel damma
EndChar

StartChar: kasraisolated
Encoding: 65146 65146 81
Width: 408
Flags: W
LayerCount: 2
Fore
SplineSet
408 -620 m 1,0,1
 408 -686 408 -686 373 -706 c 2,2,-1
 70 -878 l 1,3,4
 73 -840 73 -840 84 -818 c 1,5,6
 97 -800 97 -800 136 -777 c 2,7,-1
 408 -620 l 1,0,1
EndSplineSet
EndChar

StartChar: kasramedial
Encoding: 65147 65147 82
Width: 1284
Flags: W
LayerCount: 2
Fore
SplineSet
811 -71 m 1,0,1
 811 -137 811 -137 776 -157 c 2,2,-1
 473 -329 l 1,3,4
 476 -291 476 -291 487 -269 c 1,5,6
 500 -251 500 -251 539 -228 c 2,7,-1
 811 -71 l 1,0,1
1354 129 m 1,8,-1
 0 129 l 1,9,-1
 0 250 l 1,10,-1
 1354 250 l 1,11,-1
 1354 129 l 1,8,-1
EndSplineSet
Ligature2: "'liga' Standard Ligatures in Arabic lookup 6 subtable" tatweel kasra
EndChar

StartChar: shaddaisolated
Encoding: 65148 65148 83
Width: 420
Flags: W
LayerCount: 2
Fore
SplineSet
420 1683 m 0,0,1
 420 1515 420 1515 316 1515 c 0,2,3
 280 1515 280 1515 252 1536 c 1,4,5
 244 1501 244 1501 213 1476 c 0,6,7
 181 1450 181 1450 148 1450 c 0,8,9
 66 1450 66 1450 66 1558 c 0,10,11
 66 1583 66 1583 88 1659 c 1,12,-1
 111 1663 l 1,13,14
 111 1552 111 1552 150 1552 c 0,15,16
 214 1552 214 1552 240 1714 c 1,17,-1
 258 1720 l 1,18,19
 281 1622 281 1622 316 1622 c 0,20,21
 374 1622 374 1622 383 1769 c 1,22,-1
 406 1779 l 1,23,24
 420 1718 420 1718 420 1683 c 0,0,1
EndSplineSet
EndChar

StartChar: shaddamedial
Encoding: 65149 65149 84
Width: 1284
Flags: W
LayerCount: 2
Fore
SplineSet
819 1263 m 0,0,1
 819 1095 819 1095 715 1095 c 0,2,3
 679 1095 679 1095 651 1116 c 1,4,5
 643 1081 643 1081 612 1056 c 0,6,7
 580 1030 580 1030 547 1030 c 0,8,9
 465 1030 465 1030 465 1138 c 0,10,11
 465 1163 465 1163 487 1239 c 1,12,-1
 510 1243 l 1,13,14
 510 1132 510 1132 549 1132 c 0,15,16
 613 1132 613 1132 639 1294 c 1,17,-1
 657 1300 l 1,18,19
 680 1202 680 1202 715 1202 c 0,20,21
 773 1202 773 1202 782 1349 c 1,22,-1
 805 1359 l 1,23,24
 819 1298 819 1298 819 1263 c 0,0,1
1354 129 m 1,25,-1
 0 129 l 1,26,-1
 0 250 l 1,27,-1
 1354 250 l 1,28,-1
 1354 129 l 1,25,-1
EndSplineSet
Ligature2: "'liga' Standard Ligatures in Arabic lookup 6 subtable" tatweel shadda
EndChar

StartChar: sukunisolated
Encoding: 65150 65150 85
Width: 332
Flags: W
LayerCount: 2
Fore
SplineSet
332 1614 m 0,0,1
 332 1549 332 1549 286 1500 c 0,2,3
 239 1450 239 1450 181 1450 c 0,4,5
 74 1450 74 1450 74 1571 c 0,6,7
 74 1655 74 1655 112 1708 c 0,8,9
 149 1762 149 1762 211 1762 c 0,10,11
 258 1762 258 1762 295 1716 c 0,12,13
 332 1673 332 1673 332 1614 c 0,0,1
277 1590 m 0,14,15
 277 1616 277 1616 234 1647 c 0,16,17
 193 1676 193 1676 166 1676 c 0,18,19
 107 1676 107 1676 107 1608 c 0,20,21
 107 1549 107 1549 199 1549 c 0,22,23
 277 1549 277 1549 277 1590 c 0,14,15
EndSplineSet
EndChar

StartChar: sukunmedial
Encoding: 65151 65151 86
Width: 1284
Flags: W
LayerCount: 2
Fore
SplineSet
771 1194 m 0,0,1
 771 1129 771 1129 725 1080 c 0,2,3
 678 1030 678 1030 620 1030 c 0,4,5
 513 1030 513 1030 513 1151 c 0,6,7
 513 1235 513 1235 551 1288 c 0,8,9
 588 1342 588 1342 650 1342 c 0,10,11
 697 1342 697 1342 734 1296 c 0,12,13
 771 1253 771 1253 771 1194 c 0,0,1
716 1170 m 0,14,15
 716 1196 716 1196 673 1227 c 0,16,17
 632 1256 632 1256 605 1256 c 0,18,19
 546 1256 546 1256 546 1188 c 0,20,21
 546 1129 546 1129 638 1129 c 0,22,23
 716 1129 716 1129 716 1170 c 0,14,15
1354 129 m 1,24,-1
 0 129 l 1,25,-1
 0 250 l 1,26,-1
 1354 250 l 1,27,-1
 1354 129 l 1,24,-1
EndSplineSet
Ligature2: "'liga' Standard Ligatures in Arabic lookup 6 subtable" tatweel sukun
EndChar

StartChar: hamzaisolated
Encoding: 65152 65152 87
Width: 721
Flags: W
AnchorPoint: "ArabicBelow" 360 -198 basechar 0
AnchorPoint: "ArabicAbove" 360 603 basechar 0
LayerCount: 2
Fore
SplineSet
216 52 m 1,0,1
 142 66 142 66 127 212 c 1,2,3
 183 108 183 108 308 132 c 1,4,-1
 308 284 l 2,5,6
 308 353 308 353 441 353 c 0,7,8
 570 353 570 353 570 290 c 2,9,-1
 570 258 l 1,10,11
 524 242 524 242 470 168 c 1,12,-1
 470 267 l 2,13,14
 470 287 470 287 443 287 c 0,15,16
 407 287 407 287 407 267 c 2,17,-1
 407 142 l 1,18,-1
 592 142 l 1,19,-1
 592 52 l 1,20,-1
 216 52 l 1,0,1
EndSplineSet
EndChar

StartChar: alefwithmaddaaboveisolated
Encoding: 65153 65153 88
Width: 691
Flags: W
AnchorPoint: "ArabicBelow" 345 -451 basechar 0
AnchorPoint: "ArabicAbove" 345 2170 basechar 0
LayerCount: 2
Fore
SplineSet
636 1920 m 1,0,1
 636 1780 636 1780 625 1750 c 0,2,3
 593 1666 593 1666 463 1666 c 2,4,-1
 150 1666 l 2,5,6
 109 1666 109 1666 76 1619 c 0,7,8
 43 1573 43 1573 37 1528 c 1,9,10
 37 1670 37 1670 46 1699 c 0,11,12
 78 1782 78 1782 208 1782 c 2,13,-1
 522 1782 l 2,14,15
 564 1782 564 1782 597 1828 c 0,16,17
 630 1875 630 1875 636 1920 c 1,0,1
585 1657 m 1,18,19
 468 1525 468 1525 274 1498 c 1,20,-1
 274 0 l 2,21,22
 274 -201 274 -201 676 -201 c 1,23,24
 612 -158 612 -158 585 -85 c 1,25,-1
 585 1657 l 1,18,19
EndSplineSet
EndChar

StartChar: alefwithmaddaabovefinal
Encoding: 65154 65154 89
Width: 636
Flags: W
AnchorPoint: "ArabicBelow" 318 -251 basechar 0
AnchorPoint: "ArabicAbove" 318 2198 basechar 0
LayerCount: 2
Fore
SplineSet
624 1948 m 1,0,1
 624 1809 624 1809 613 1779 c 0,2,3
 583 1695 583 1695 453 1695 c 2,4,-1
 138 1695 l 2,5,6
 97 1695 97 1695 64 1647 c 0,7,8
 31 1600 31 1600 25 1557 c 1,9,10
 25 1698 25 1698 34 1728 c 0,11,12
 65 1810 65 1810 196 1810 c 2,13,-1
 511 1810 l 2,14,15
 552 1810 552 1810 585 1856 c 0,16,17
 618 1903 618 1903 624 1948 c 1,0,1
195 -1 m 1,18,-1
 195 1656 l 1,19,20
 313 1524 313 1524 505 1495 c 1,21,-1
 505 156 l 1,22,-1
 696 156 l 1,23,-1
 696 -1 l 1,24,-1
 195 -1 l 1,18,-1
EndSplineSet
EndChar

StartChar: alefwithhamzaaboveisolated
Encoding: 65155 65155 90
Width: 495
Flags: W
AnchorPoint: "ArabicBelow" 247 -451 basechar 0
AnchorPoint: "ArabicAbove" 247 2172 basechar 0
LayerCount: 2
Fore
SplineSet
390 -66 m 1,0,1
 417 -157 417 -157 482 -201 c 1,2,3
 80 -201 80 -201 80 0 c 2,4,-1
 80 1488 l 1,5,6
 273 1515 273 1515 390 1647 c 1,7,-1
 390 -66 l 1,0,1
132 1669 m 1,8,9
 70 1679 70 1679 57 1804 c 1,10,11
 103 1716 103 1716 209 1738 c 1,12,-1
 209 1864 l 2,13,14
 209 1922 209 1922 320 1922 c 0,15,16
 428 1922 428 1922 428 1869 c 2,17,-1
 428 1841 l 1,18,19
 390 1828 390 1828 343 1766 c 1,20,-1
 343 1850 l 2,21,22
 343 1865 343 1865 323 1865 c 0,23,24
 292 1865 292 1865 292 1850 c 2,25,-1
 292 1744 l 1,26,-1
 446 1744 l 1,27,-1
 446 1669 l 1,28,-1
 132 1669 l 1,8,9
EndSplineSet
EndChar

StartChar: alefwithhamzaabovefinal
Encoding: 65156 65156 91
Width: 508
Flags: W
AnchorPoint: "ArabicBelow" 254 -251 basechar 0
AnchorPoint: "ArabicAbove" 254 2197 basechar 0
LayerCount: 2
Fore
SplineSet
78 -1 m 1,0,-1
 78 1666 l 1,1,2
 196 1534 196 1534 388 1505 c 1,3,-1
 388 156 l 1,4,-1
 579 156 l 1,5,-1
 579 -1 l 1,6,-1
 78 -1 l 1,0,-1
138 1674 m 1,7,8
 70 1686 70 1686 57 1819 c 1,9,10
 106 1725 106 1725 220 1747 c 1,11,-1
 220 1884 l 2,12,13
 220 1947 220 1947 340 1947 c 0,14,15
 457 1947 457 1947 457 1890 c 2,16,-1
 457 1861 l 1,17,18
 417 1845 417 1845 366 1779 c 1,19,-1
 366 1869 l 2,20,21
 366 1885 366 1885 343 1885 c 0,22,23
 310 1885 310 1885 310 1869 c 2,24,-1
 310 1755 l 1,25,-1
 477 1755 l 1,26,-1
 477 1674 l 1,27,-1
 138 1674 l 1,7,8
EndSplineSet
EndChar

StartChar: wawwithhamzaaboveisolated
Encoding: 65157 65157 92
Width: 828
Flags: W
AnchorPoint: "ArabicBelow" 414 -466 basechar 0
AnchorPoint: "ArabicAbove" 414 1719 basechar 0
LayerCount: 2
Fore
SplineSet
825 0 m 2,0,1
 825 -216 825 -216 327 -216 c 0,2,3
 213 -216 213 -216 83 -135 c 1,4,5
 311 -142 311 -142 404 -109 c 0,6,7
 484 -79 484 -79 494 0 c 1,8,-1
 78 0 l 1,9,-1
 78 872 l 2,10,11
 78 1025 78 1025 320 1025 c 2,12,-1
 825 1025 l 1,13,-1
 825 0 l 2,0,1
513 158 m 1,14,-1
 513 908 l 1,15,16
 478 908 478 908 435 888 c 0,17,18
 389 864 389 864 389 833 c 2,19,-1
 389 158 l 1,20,-1
 513 158 l 1,14,-1
282 1196 m 1,21,22
 214 1208 214 1208 201 1341 c 1,23,24
 252 1246 252 1246 365 1269 c 1,25,-1
 365 1406 l 2,26,27
 365 1469 365 1469 486 1469 c 0,28,29
 603 1469 603 1469 603 1412 c 2,30,-1
 603 1383 l 1,31,32
 561 1367 561 1367 512 1301 c 1,33,-1
 512 1391 l 2,34,35
 512 1409 512 1409 488 1409 c 0,36,37
 455 1409 455 1409 455 1391 c 2,38,-1
 455 1278 l 1,39,-1
 623 1278 l 1,40,-1
 623 1196 l 1,41,-1
 282 1196 l 1,21,22
EndSplineSet
EndChar

StartChar: wawwithhamzaabovefinal
Encoding: 65158 65158 93
Width: 961
Flags: W
AnchorPoint: "ArabicBelow" 480 -469 basechar 0
AnchorPoint: "ArabicAbove" 480 1718 basechar 0
LayerCount: 2
Fore
SplineSet
1020 -2 m 1,0,-1
 825 -2 l 1,1,2
 825 -219 825 -219 327 -219 c 0,3,4
 212 -219 212 -219 82 -137 c 1,5,6
 310 -144 310 -144 403 -111 c 0,7,8
 482 -83 482 -83 493 -2 c 1,9,-1
 78 -2 l 1,10,-1
 78 870 l 2,11,12
 78 1021 78 1021 319 1021 c 2,13,-1
 825 1021 l 1,14,-1
 825 156 l 1,15,-1
 1020 156 l 1,16,-1
 1020 -2 l 1,0,-1
513 156 m 1,17,-1
 513 904 l 1,18,19
 473 904 473 904 435 885 c 0,20,21
 388 862 388 862 388 831 c 2,22,-1
 388 156 l 1,23,-1
 513 156 l 1,17,-1
282 1195 m 1,24,25
 215 1207 215 1207 201 1341 c 1,26,27
 252 1247 252 1247 364 1269 c 1,28,-1
 364 1405 l 2,29,30
 364 1468 364 1468 486 1468 c 0,31,32
 603 1468 603 1468 603 1411 c 2,33,-1
 603 1383 l 1,34,35
 561 1366 561 1366 511 1300 c 1,36,-1
 511 1390 l 2,37,38
 511 1408 511 1408 487 1408 c 0,39,40
 454 1408 454 1408 454 1390 c 2,41,-1
 454 1278 l 1,42,-1
 622 1278 l 1,43,-1
 622 1195 l 1,44,-1
 282 1195 l 1,24,25
EndSplineSet
EndChar

StartChar: alefwithhamzabelowisolated
Encoding: 65159 65159 94
Width: 516
Flags: W
AnchorPoint: "ArabicBelow" 258 -752 basechar 0
AnchorPoint: "ArabicAbove" 258 2137 basechar 0
LayerCount: 2
Fore
SplineSet
409 -85 m 1,0,1
 436 -157 436 -157 501 -201 c 1,2,3
 99 -201 99 -201 99 0 c 2,4,-1
 99 1728 l 1,5,6
 292 1755 292 1755 409 1887 c 1,7,-1
 409 -85 l 1,0,1
111 -502 m 1,8,9
 43 -491 43 -491 28 -357 c 1,10,11
 79 -453 79 -453 193 -429 c 1,12,-1
 193 -292 l 2,13,14
 193 -229 193 -229 313 -229 c 0,15,16
 430 -229 430 -229 430 -286 c 2,17,-1
 430 -316 l 1,18,19
 390 -331 390 -331 339 -397 c 1,20,-1
 339 -307 l 2,21,22
 339 -291 339 -291 316 -291 c 0,23,24
 282 -291 282 -291 282 -307 c 2,25,-1
 282 -421 l 1,26,-1
 450 -421 l 1,27,-1
 450 -502 l 1,28,-1
 111 -502 l 1,8,9
EndSplineSet
EndChar

StartChar: alefwithhamzabelowfinal
Encoding: 65160 65160 95
Width: 548
Flags: W
AnchorPoint: "ArabicBelow" 274 -600 basechar 0
AnchorPoint: "ArabicAbove" 274 2146 basechar 0
LayerCount: 2
Fore
SplineSet
98 -2 m 1,0,-1
 98 1896 l 1,1,2
 215 1764 215 1764 408 1736 c 1,3,-1
 408 156 l 1,4,-1
 599 156 l 1,5,-1
 599 -2 l 1,6,-1
 98 -2 l 1,0,-1
450 -350 m 1,7,-1
 450 -267 l 1,8,-1
 282 -267 l 1,9,-1
 282 -155 l 2,10,11
 282 -137 282 -137 317 -137 c 0,12,13
 339 -137 339 -137 339 -155 c 2,14,-1
 339 -245 l 1,15,16
 390 -177 390 -177 431 -162 c 1,17,-1
 431 -132 l 2,18,19
 431 -77 431 -77 314 -77 c 0,20,21
 194 -77 194 -77 194 -138 c 2,22,-1
 194 -275 l 1,23,24
 80 -299 80 -299 29 -203 c 1,25,26
 44 -338 44 -338 111 -350 c 1,27,-1
 450 -350 l 1,7,-1
EndSplineSet
EndChar

StartChar: yehwithhamzaaboveisolated
Encoding: 65161 65161 96
Width: 1347
Flags: W
AnchorPoint: "ArabicBelow" 673 -469 basechar 0
AnchorPoint: "ArabicAbove" 673 1744 basechar 0
LayerCount: 2
Fore
SplineSet
1347 0 m 2,0,1
 1347 -101 1347 -101 1150 -163 c 0,2,3
 967 -219 967 -219 714 -219 c 0,4,5
 454 -219 454 -219 277 -162 c 0,6,7
 78 -99 78 -99 78 8 c 2,8,-1
 78 951 l 2,9,10
 78 1079 78 1079 259 1113 c 0,11,12
 316 1122 316 1122 526 1122 c 1,13,14
 481 1116 481 1116 434 1083 c 0,15,16
 388 1050 388 1050 388 1009 c 2,17,-1
 388 9 l 2,18,19
 388 -102 388 -102 711 -102 c 0,20,21
 1038 -102 1038 -102 1038 8 c 2,22,-1
 1038 109 l 1,23,-1
 600 109 l 1,24,-1
 600 912 l 2,25,26
 600 1029 600 1029 967 1029 c 0,27,28
 1347 1029 1347 1029 1347 901 c 2,29,-1
 1347 655 l 1,30,31
 1132 625 1132 625 1035 496 c 1,32,-1
 1035 880 l 2,33,34
 1035 913 1035 913 973 913 c 0,35,36
 910 913 910 913 910 880 c 2,37,-1
 910 282 l 1,38,-1
 1347 282 l 1,39,-1
 1347 0 l 2,0,1
157 1221 m 1,40,41
 89 1233 89 1233 76 1368 c 1,42,43
 126 1272 126 1272 240 1296 c 1,44,-1
 240 1432 l 2,45,46
 240 1494 240 1494 360 1494 c 0,47,48
 477 1494 477 1494 477 1438 c 2,49,-1
 477 1408 l 1,50,51
 436 1393 436 1393 385 1327 c 1,52,-1
 385 1416 l 2,53,54
 385 1434 385 1434 363 1434 c 0,55,56
 330 1434 330 1434 330 1416 c 2,57,-1
 330 1303 l 1,58,-1
 496 1303 l 1,59,-1
 496 1221 l 1,60,-1
 157 1221 l 1,40,41
EndSplineSet
EndChar

StartChar: yehwithhamzaabovefinal
Encoding: 65162 65162 97
Width: 1344
Flags: W
AnchorPoint: "ArabicBelow" 672 -471 basechar 0
AnchorPoint: "ArabicAbove" 672 1174 basechar 0
LayerCount: 2
Fore
SplineSet
1349 -2 m 2,0,1
 1349 -104 1349 -104 1153 -167 c 0,2,3
 973 -221 973 -221 716 -221 c 0,4,5
 457 -221 457 -221 280 -164 c 0,6,7
 80 -102 80 -102 80 6 c 2,8,-1
 80 427 l 2,9,10
 80 556 80 556 262 589 c 0,11,12
 291 594 291 594 357 597 c 128,-1,13
 423 600 423 600 529 600 c 1,14,15
 484 594 484 594 437 561 c 0,16,17
 391 528 391 528 391 486 c 2,18,-1
 391 7 l 2,19,20
 391 -50 391 -50 499 -83 c 0,21,22
 599 -113 599 -113 737 -113 c 0,23,24
 1040 -113 1040 -113 1040 -2 c 1,25,-1
 602 -2 l 1,26,-1
 602 156 l 1,27,-1
 1349 156 l 1,28,-1
 1349 -2 l 2,0,1
159 651 m 1,29,30
 91 663 91 663 78 798 c 1,31,32
 128 702 128 702 242 726 c 1,33,-1
 242 862 l 2,34,35
 242 924 242 924 362 924 c 0,36,37
 479 924 479 924 479 868 c 2,38,-1
 479 838 l 1,39,40
 438 823 438 823 387 757 c 1,41,-1
 387 846 l 2,42,43
 387 864 387 864 365 864 c 0,44,45
 332 864 332 864 332 846 c 2,46,-1
 332 733 l 1,47,-1
 498 733 l 1,48,-1
 498 651 l 1,49,-1
 159 651 l 1,29,30
EndSplineSet
EndChar

StartChar: yehwithhamzaaboveinitial
Encoding: 65163 65163 98
Width: 444
Flags: W
AnchorPoint: "ArabicBelow" 222 -251 basechar 0
AnchorPoint: "ArabicAbove" 222 1641 basechar 0
LayerCount: 2
Fore
SplineSet
-59 -1 m 1,0,-1
 -59 156 l 1,1,-1
 126 156 l 1,2,-1
 126 858 l 1,3,4
 315 884 315 884 430 1010 c 1,5,-1
 435 1020 l 1,6,-1
 435 1013 l 1,7,8
 436 1016 436 1016 435 1019 c 1,9,-1
 435 -1 l 1,10,-1
 -59 -1 l 1,0,-1
91 1118 m 1,11,12
 24 1130 24 1130 9 1263 c 1,13,14
 60 1168 60 1168 174 1191 c 1,15,-1
 174 1328 l 2,16,17
 174 1391 174 1391 294 1391 c 0,18,19
 411 1391 411 1391 411 1334 c 2,20,-1
 411 1305 l 1,21,22
 369 1289 369 1289 319 1223 c 1,23,-1
 319 1313 l 2,24,25
 319 1331 319 1331 297 1331 c 0,26,27
 262 1331 262 1331 262 1313 c 2,28,-1
 262 1200 l 1,29,-1
 430 1200 l 1,30,-1
 430 1118 l 1,31,-1
 91 1118 l 1,11,12
EndSplineSet
EndChar

StartChar: yehwithhamzaabovemedial
Encoding: 65164 65164 99
Width: 566
Flags: W
AnchorPoint: "ArabicBelow" 283 -252 basechar 0
AnchorPoint: "ArabicAbove" 283 1665 basechar 0
LayerCount: 2
Fore
SplineSet
435 156 m 1,0,-1
 620 156 l 1,1,-1
 620 -2 l 1,2,-1
 -58 -2 l 1,3,-1
 -58 156 l 1,4,-1
 126 156 l 1,5,-1
 126 868 l 1,6,7
 318 893 318 893 431 1019 c 1,8,-1
 435 1030 l 1,9,-1
 435 1022 l 1,10,-1
 438 1028 l 1,11,-1
 435 156 l 1,0,-1
111 1142 m 1,12,13
 44 1154 44 1154 29 1289 c 1,14,15
 80 1193 80 1193 194 1217 c 1,16,-1
 194 1354 l 2,17,18
 194 1415 194 1415 314 1415 c 0,19,20
 431 1415 431 1415 431 1360 c 2,21,-1
 431 1330 l 1,22,23
 390 1315 390 1315 339 1249 c 1,24,-1
 339 1337 l 2,25,26
 339 1355 339 1355 317 1355 c 0,27,28
 282 1355 282 1355 282 1337 c 2,29,-1
 282 1225 l 1,30,-1
 450 1225 l 1,31,-1
 450 1142 l 1,32,-1
 111 1142 l 1,12,13
EndSplineSet
EndChar

StartChar: alefisolated
Encoding: 65165 65165 100
Width: 508
Flags: W
AnchorPoint: "ArabicBelow" 254 -451 basechar 0
AnchorPoint: "ArabicAbove" 254 2147 basechar 0
LayerCount: 2
Fore
SplineSet
409 -86 m 1,0,1
 436 -157 436 -157 501 -201 c 1,2,3
 99 -201 99 -201 99 0 c 2,4,-1
 99 1738 l 1,5,6
 292 1765 292 1765 409 1897 c 1,7,-1
 409 -86 l 1,0,1
EndSplineSet
EndChar

StartChar: aleffinal
Encoding: 65166 65166 101
Width: 532
Flags: W
AnchorPoint: "ArabicBelow" 266 -252 basechar 0
AnchorPoint: "ArabicAbove" 266 2145 basechar 0
LayerCount: 2
Fore
SplineSet
97 -2 m 1,0,-1
 97 1895 l 1,1,2
 213 1763 213 1763 408 1735 c 1,3,-1
 408 156 l 1,4,-1
 598 156 l 1,5,-1
 598 -2 l 1,6,-1
 97 -2 l 1,0,-1
EndSplineSet
EndChar

StartChar: behisolated
Encoding: 65167 65167 102
Width: 1058
Flags: W
AnchorPoint: "ArabicBelow" 529 -607 basechar 0
AnchorPoint: "ArabicAbove" 529 1380 basechar 0
LayerCount: 2
Fore
SplineSet
78 0 m 1,0,-1
 78 882 l 2,1,2
 78 1018 78 1018 168 1065 c 0,3,4
 241 1100 241 1100 495 1130 c 1,5,6
 410 1085 410 1085 396 1041 c 1,7,-1
 389 951 l 1,8,-1
 389 158 l 1,9,-1
 747 158 l 1,10,-1
 747 816 l 1,11,12
 942 843 942 843 1059 976 c 1,13,-1
 1059 416 l 1,14,-1
 1058 416 l 1,15,-1
 1058 0 l 1,16,-1
 78 0 l 1,0,-1
662 -303 m 2,17,18
 662 -357 662 -357 606 -357 c 2,19,-1
 497 -357 l 2,20,21
 444 -357 444 -357 444 -303 c 2,22,-1
 444 -195 l 2,23,24
 444 -142 444 -142 497 -142 c 2,25,-1
 606 -142 l 2,26,27
 662 -142 662 -142 662 -195 c 2,28,-1
 662 -303 l 2,17,18
EndSplineSet
EndChar

StartChar: behfinal
Encoding: 65168 65168 103
Width: 1165
Flags: W
AnchorPoint: "ArabicBelow" 582 -609 basechar 0
AnchorPoint: "ArabicAbove" 582 1386 basechar 0
LayerCount: 2
Fore
SplineSet
1038 980 m 1,0,-1
 1038 156 l 1,1,-1
 1221 156 l 1,2,-1
 1221 -2 l 1,3,-1
 58 -2 l 1,4,-1
 58 889 l 2,5,6
 58 1023 58 1023 148 1070 c 0,7,8
 220 1109 220 1109 475 1136 c 1,9,10
 389 1092 389 1092 376 1049 c 1,11,-1
 369 959 l 1,12,-1
 369 154 l 1,13,-1
 723 154 l 1,14,-1
 723 818 l 1,15,16
 918 845 918 845 1035 978 c 1,17,-1
 1038 980 l 1,0,-1
661 -305 m 2,18,19
 661 -359 661 -359 606 -359 c 2,20,-1
 496 -359 l 2,21,22
 444 -359 444 -359 444 -305 c 2,23,-1
 444 -197 l 2,24,25
 444 -144 444 -144 496 -144 c 2,26,-1
 606 -144 l 2,27,28
 661 -144 661 -144 661 -197 c 2,29,-1
 661 -305 l 2,18,19
EndSplineSet
EndChar

StartChar: behinitial
Encoding: 65169 65169 104
Width: 433
Flags: W
AnchorPoint: "ArabicBelow" 216 -609 basechar 0
AnchorPoint: "ArabicAbove" 216 1270 basechar 0
LayerCount: 2
Fore
SplineSet
-59 -2 m 1,0,-1
 -59 156 l 1,1,-1
 126 156 l 1,2,-1
 126 858 l 1,3,4
 316 883 316 883 430 1009 c 1,5,-1
 435 1020 l 1,6,-1
 435 1012 l 1,7,-1
 438 1018 l 1,8,-1
 438 265 l 1,9,-1
 435 265 l 1,10,-1
 435 -2 l 1,11,-1
 -59 -2 l 1,0,-1
232 -305 m 2,12,13
 232 -359 232 -359 177 -359 c 2,14,-1
 67 -359 l 2,15,16
 15 -359 15 -359 15 -305 c 2,17,-1
 15 -197 l 2,18,19
 15 -144 15 -144 67 -144 c 2,20,-1
 177 -144 l 2,21,22
 232 -144 232 -144 232 -197 c 2,23,-1
 232 -305 l 2,12,13
EndSplineSet
EndChar

StartChar: behmedial
Encoding: 65170 65170 105
Width: 561
Flags: W
AnchorPoint: "ArabicBelow" 280 -609 basechar 0
AnchorPoint: "ArabicAbove" 280 1270 basechar 0
LayerCount: 2
Fore
SplineSet
-58 -2 m 1,0,-1
 -58 156 l 1,1,-1
 126 156 l 1,2,-1
 126 858 l 1,3,4
 315 883 315 883 435 1009 c 1,5,-1
 435 156 l 1,6,-1
 620 156 l 1,7,-1
 620 -2 l 1,8,-1
 -58 -2 l 1,0,-1
389 -305 m 2,9,10
 389 -359 389 -359 333 -359 c 2,11,-1
 224 -359 l 2,12,13
 171 -359 171 -359 171 -305 c 2,14,-1
 171 -197 l 2,15,16
 171 -144 171 -144 224 -144 c 2,17,-1
 333 -144 l 2,18,19
 389 -144 389 -144 389 -197 c 2,20,-1
 389 -305 l 2,9,10
435 1012 m 1,21,-1
 431 1009 l 1,22,-1
 435 1020 l 1,23,-1
 435 1012 l 1,24,-1
 438 1018 l 1,25,-1
 435 1012 l 1,21,-1
EndSplineSet
EndChar

StartChar: tehmarbutaisolated
Encoding: 65171 65171 106
Width: 827
Flags: W
AnchorPoint: "ArabicBelow" 413 -250 basechar 0
AnchorPoint: "ArabicAbove" 413 1659 basechar 0
LayerCount: 2
Fore
SplineSet
704 1353 m 2,0,-1
 704 1247 l 2,1,2
 704 1194 704 1194 649 1194 c 2,3,-1
 541 1194 l 2,4,5
 488 1194 488 1194 488 1247 c 2,6,-1
 488 1355 l 2,7,8
 488 1409 488 1409 541 1409 c 2,9,-1
 649 1409 l 2,10,11
 704 1409 704 1409 704 1353 c 2,0,-1
450 1353 m 2,12,-1
 450 1247 l 2,13,14
 450 1194 450 1194 395 1194 c 2,15,-1
 287 1194 l 2,16,17
 234 1194 234 1194 234 1247 c 2,18,-1
 234 1355 l 2,19,20
 234 1409 234 1409 287 1409 c 2,21,-1
 395 1409 l 2,22,23
 450 1409 450 1409 450 1353 c 2,12,-1
825 0 m 1,24,-1
 78 0 l 1,25,-1
 78 872 l 2,26,27
 78 1025 78 1025 320 1025 c 2,28,-1
 825 1025 l 1,29,-1
 825 0 l 1,24,-1
513 158 m 1,30,-1
 513 908 l 1,31,32
 478 908 478 908 435 888 c 0,33,34
 389 864 389 864 389 833 c 2,35,-1
 389 158 l 1,36,-1
 513 158 l 1,30,-1
EndSplineSet
EndChar

StartChar: tehmarbutafinal
Encoding: 65172 65172 107
Width: 940
Flags: W
AnchorPoint: "ArabicBelow" 470 -252 basechar 0
AnchorPoint: "ArabicAbove" 470 1665 basechar 0
LayerCount: 2
Fore
SplineSet
703 1361 m 2,0,-1
 703 1255 l 2,1,2
 703 1201 703 1201 648 1201 c 2,3,-1
 540 1201 l 2,4,5
 487 1201 487 1201 487 1255 c 2,6,-1
 487 1362 l 2,7,8
 487 1415 487 1415 540 1415 c 2,9,-1
 648 1415 l 2,10,11
 703 1415 703 1415 703 1361 c 2,0,-1
450 1361 m 2,12,-1
 450 1255 l 2,13,14
 450 1201 450 1201 395 1201 c 2,15,-1
 287 1201 l 2,16,17
 234 1201 234 1201 234 1255 c 2,18,-1
 234 1362 l 2,19,20
 234 1415 234 1415 287 1415 c 2,21,-1
 395 1415 l 2,22,23
 450 1415 450 1415 450 1361 c 2,12,-1
1020 -2 m 1,24,-1
 78 -2 l 1,25,-1
 78 880 l 2,26,27
 78 1031 78 1031 319 1031 c 2,28,-1
 825 1031 l 1,29,-1
 825 156 l 1,30,-1
 1020 156 l 1,31,-1
 1020 -2 l 1,24,-1
513 156 m 1,32,-1
 513 914 l 1,33,34
 473 914 473 914 435 895 c 0,35,36
 388 872 388 872 388 841 c 2,37,-1
 388 156 l 1,38,-1
 513 156 l 1,32,-1
EndSplineSet
EndChar

StartChar: tehisolated
Encoding: 65173 65173 108
Width: 1057
Flags: W
AnchorPoint: "ArabicBelow" 528 -250 basechar 0
AnchorPoint: "ArabicAbove" 528 1659 basechar 0
LayerCount: 2
Fore
SplineSet
78 0 m 1,0,-1
 78 882 l 2,1,2
 78 1018 78 1018 168 1065 c 0,3,4
 241 1100 241 1100 495 1130 c 1,5,6
 410 1085 410 1085 396 1041 c 1,7,-1
 388 951 l 1,8,-1
 388 158 l 1,9,-1
 745 158 l 1,10,-1
 745 813 l 1,11,12
 940 840 940 840 1057 972 c 1,13,-1
 1057 0 l 1,14,-1
 78 0 l 1,0,-1
565 1247 m 2,15,16
 565 1194 565 1194 511 1194 c 2,17,-1
 402 1194 l 2,18,19
 349 1194 349 1194 349 1247 c 2,20,-1
 349 1353 l 2,21,22
 349 1409 349 1409 402 1409 c 2,23,-1
 511 1409 l 2,24,25
 565 1409 565 1409 565 1353 c 2,26,-1
 565 1247 l 2,15,16
807 1247 m 2,27,28
 807 1194 807 1194 753 1194 c 2,29,-1
 643 1194 l 2,30,31
 591 1194 591 1194 591 1247 c 2,32,-1
 591 1353 l 2,33,34
 591 1409 591 1409 643 1409 c 2,35,-1
 753 1409 l 2,36,37
 807 1409 807 1409 807 1353 c 2,38,-1
 807 1247 l 2,27,28
EndSplineSet
EndChar

StartChar: tehfinal
Encoding: 65174 65174 109
Width: 1190
Flags: W
AnchorPoint: "ArabicBelow" 595 -252 basechar 0
AnchorPoint: "ArabicAbove" 595 1665 basechar 0
LayerCount: 2
Fore
SplineSet
78 -2 m 1,0,-1
 78 889 l 2,1,2
 78 1023 78 1023 168 1070 c 0,3,4
 240 1109 240 1109 495 1136 c 1,5,6
 409 1092 409 1092 396 1049 c 1,7,-1
 389 959 l 1,8,-1
 389 154 l 1,9,-1
 746 154 l 1,10,-1
 747 160 l 1,11,-1
 747 818 l 1,12,13
 940 845 940 845 1055 972 c 1,14,-1
 1058 969 l 1,15,-1
 1058 156 l 1,16,-1
 1241 156 l 1,17,-1
 1241 -2 l 1,18,-1
 78 -2 l 1,0,-1
546 1253 m 2,19,20
 546 1201 546 1201 492 1201 c 2,21,-1
 383 1201 l 2,22,23
 330 1201 330 1201 330 1253 c 2,24,-1
 330 1361 l 2,25,26
 330 1415 330 1415 383 1415 c 2,27,-1
 492 1415 l 2,28,29
 546 1415 546 1415 546 1361 c 2,30,-1
 546 1253 l 2,19,20
788 1253 m 2,31,32
 788 1201 788 1201 734 1201 c 2,33,-1
 624 1201 l 2,34,35
 572 1201 572 1201 572 1253 c 2,36,-1
 572 1361 l 2,37,38
 572 1415 572 1415 624 1415 c 2,39,-1
 734 1415 l 2,40,41
 788 1415 788 1415 788 1361 c 2,42,-1
 788 1253 l 2,31,32
EndSplineSet
EndChar

StartChar: tehinitial
Encoding: 65175 65175 110
Width: 505
Flags: W
AnchorPoint: "ArabicBelow" 252 -252 basechar 0
AnchorPoint: "ArabicAbove" 252 1655 basechar 0
LayerCount: 2
Fore
SplineSet
-59 -2 m 1,0,-1
 -59 156 l 1,1,-1
 123 156 l 1,2,-1
 123 859 l 1,3,4
 318 888 318 888 435 1020 c 1,5,-1
 435 -2 l 1,6,-1
 -59 -2 l 1,0,-1
226 1243 m 2,7,8
 226 1191 226 1191 171 1191 c 2,9,-1
 63 1191 l 2,10,11
 9 1191 9 1191 9 1243 c 2,12,-1
 9 1351 l 2,13,14
 9 1405 9 1405 63 1405 c 2,15,-1
 171 1405 l 2,16,17
 226 1405 226 1405 226 1351 c 2,18,-1
 226 1243 l 2,7,8
468 1243 m 2,19,20
 468 1191 468 1191 414 1191 c 2,21,-1
 304 1191 l 2,22,23
 252 1191 252 1191 252 1243 c 2,24,-1
 252 1351 l 2,25,26
 252 1405 252 1405 304 1405 c 2,27,-1
 414 1405 l 2,28,29
 468 1405 468 1405 468 1351 c 2,30,-1
 468 1243 l 2,19,20
EndSplineSet
EndChar

StartChar: tehmedial
Encoding: 65176 65176 111
Width: 566
Flags: W
AnchorPoint: "ArabicBelow" 283 -252 basechar 0
AnchorPoint: "ArabicAbove" 283 1655 basechar 0
LayerCount: 2
Fore
SplineSet
-58 -2 m 1,0,-1
 -58 156 l 1,1,-1
 125 156 l 1,2,-1
 126 162 l 1,3,-1
 126 858 l 1,4,5
 318 883 318 883 431 1009 c 1,6,-1
 435 1005 l 1,7,-1
 435 156 l 1,8,-1
 620 156 l 1,9,-1
 620 -2 l 1,10,-1
 -58 -2 l 1,0,-1
500 1243 m 2,11,12
 500 1191 500 1191 444 1191 c 2,13,-1
 336 1191 l 2,14,15
 282 1191 282 1191 282 1243 c 2,16,-1
 282 1351 l 2,17,18
 282 1405 282 1405 336 1405 c 2,19,-1
 444 1405 l 2,20,21
 500 1405 500 1405 500 1351 c 2,22,-1
 500 1243 l 2,11,12
258 1243 m 2,23,24
 258 1191 258 1191 203 1191 c 2,25,-1
 93 1191 l 2,26,27
 41 1191 41 1191 41 1243 c 2,28,-1
 41 1351 l 2,29,30
 41 1405 41 1405 93 1405 c 2,31,-1
 203 1405 l 2,32,33
 258 1405 258 1405 258 1351 c 2,34,-1
 258 1243 l 2,23,24
435 1005 m 1,35,-1
 435 1012 l 1,36,-1
 431 1009 l 1,37,-1
 435 1020 l 1,38,-1
 435 1012 l 1,39,-1
 438 1018 l 1,40,-1
 435 1005 l 1,35,-1
EndSplineSet
EndChar

StartChar: thehisolated
Encoding: 65177 65177 112
Width: 1057
Flags: W
AnchorPoint: "ArabicBelow" 528 -250 basechar 0
AnchorPoint: "ArabicAbove" 528 1893 basechar 0
LayerCount: 2
Fore
SplineSet
78 0 m 1,0,-1
 78 892 l 2,1,2
 78 1028 78 1028 168 1075 c 0,3,4
 236 1109 236 1109 495 1139 c 1,5,6
 409 1094 409 1094 396 1051 c 1,7,-1
 388 961 l 1,8,-1
 388 157 l 1,9,-1
 745 157 l 1,10,-1
 745 822 l 1,11,12
 940 849 940 849 1057 981 c 1,13,-1
 1057 0 l 1,14,-1
 78 0 l 1,0,-1
682 1483 m 2,15,16
 682 1429 682 1429 628 1429 c 2,17,-1
 519 1429 l 2,18,19
 466 1429 466 1429 466 1483 c 2,20,-1
 466 1589 l 2,21,22
 466 1643 466 1643 519 1643 c 2,23,-1
 628 1643 l 2,24,25
 682 1643 682 1643 682 1589 c 2,26,-1
 682 1483 l 2,15,16
807 1259 m 2,27,28
 807 1207 807 1207 753 1207 c 2,29,-1
 643 1207 l 2,30,31
 591 1207 591 1207 591 1259 c 2,32,-1
 591 1367 l 2,33,34
 591 1421 591 1421 643 1421 c 2,35,-1
 753 1421 l 2,36,37
 807 1421 807 1421 807 1367 c 2,38,-1
 807 1259 l 2,27,28
558 1259 m 2,39,40
 558 1207 558 1207 502 1207 c 2,41,-1
 394 1207 l 2,42,43
 340 1207 340 1207 340 1259 c 2,44,-1
 340 1367 l 2,45,46
 340 1421 340 1421 394 1421 c 2,47,-1
 502 1421 l 2,48,49
 558 1421 558 1421 558 1367 c 2,50,-1
 558 1259 l 2,39,40
EndSplineSet
EndChar

StartChar: thehfinal
Encoding: 65178 65178 113
Width: 1183
Flags: W
AnchorPoint: "ArabicBelow" 591 -252 basechar 0
AnchorPoint: "ArabicAbove" 591 1883 basechar 0
LayerCount: 2
Fore
SplineSet
82 -2 m 1,0,-1
 82 879 l 2,1,2
 82 1013 82 1013 171 1060 c 0,3,4
 243 1099 243 1099 499 1126 c 1,5,6
 414 1083 414 1083 399 1039 c 1,7,-1
 391 949 l 1,8,-1
 391 156 l 1,9,-1
 747 156 l 1,10,-1
 747 808 l 1,11,12
 942 835 942 835 1059 968 c 1,13,-1
 1060 970 l 1,14,-1
 1060 156 l 1,15,-1
 1243 156 l 1,16,-1
 1243 -2 l 1,17,-1
 82 -2 l 1,0,-1
687 1473 m 2,18,19
 687 1419 687 1419 631 1419 c 2,20,-1
 522 1419 l 2,21,22
 469 1419 469 1419 469 1473 c 2,23,-1
 469 1579 l 2,24,25
 469 1633 469 1633 522 1633 c 2,26,-1
 631 1633 l 2,27,28
 687 1633 687 1633 687 1579 c 2,29,-1
 687 1473 l 2,18,19
811 1248 m 2,30,31
 811 1195 811 1195 756 1195 c 2,32,-1
 648 1195 l 2,33,34
 594 1195 594 1195 594 1248 c 2,35,-1
 594 1356 l 2,36,37
 594 1410 594 1410 648 1410 c 2,38,-1
 756 1410 l 2,39,40
 811 1410 811 1410 811 1356 c 2,41,-1
 811 1248 l 2,30,31
561 1248 m 2,42,43
 561 1195 561 1195 507 1195 c 2,44,-1
 397 1195 l 2,45,46
 345 1195 345 1195 345 1248 c 2,47,-1
 345 1356 l 2,48,49
 345 1410 345 1410 397 1410 c 2,50,-1
 507 1410 l 2,51,52
 561 1410 561 1410 561 1356 c 2,53,-1
 561 1248 l 2,42,43
EndSplineSet
EndChar

StartChar: thehinitial
Encoding: 65179 65179 114
Width: 512
Flags: W
AnchorPoint: "ArabicBelow" 256 -251 basechar 0
AnchorPoint: "ArabicAbove" 256 1876 basechar 0
LayerCount: 2
Fore
SplineSet
-58 -1 m 1,0,-1
 -58 156 l 1,1,-1
 123 156 l 1,2,-1
 123 860 l 1,3,4
 318 888 318 888 435 1020 c 1,5,-1
 435 -1 l 1,6,-1
 -58 -1 l 1,0,-1
383 1464 m 2,7,8
 383 1412 383 1412 327 1412 c 2,9,-1
 219 1412 l 2,10,11
 165 1412 165 1412 165 1464 c 2,12,-1
 165 1572 l 2,13,14
 165 1626 165 1626 219 1626 c 2,15,-1
 327 1626 l 2,16,17
 383 1626 383 1626 383 1572 c 2,18,-1
 383 1464 l 2,7,8
507 1242 m 2,19,20
 507 1190 507 1190 453 1190 c 2,21,-1
 344 1190 l 2,22,23
 291 1190 291 1190 291 1242 c 2,24,-1
 291 1350 l 2,25,26
 291 1404 291 1404 344 1404 c 2,27,-1
 453 1404 l 2,28,29
 507 1404 507 1404 507 1350 c 2,30,-1
 507 1242 l 2,19,20
258 1242 m 2,31,32
 258 1190 258 1190 203 1190 c 2,33,-1
 93 1190 l 2,34,35
 41 1190 41 1190 41 1242 c 2,36,-1
 41 1350 l 2,37,38
 41 1404 41 1404 93 1404 c 2,39,-1
 203 1404 l 2,40,41
 258 1404 258 1404 258 1350 c 2,42,-1
 258 1242 l 2,31,32
EndSplineSet
EndChar

StartChar: thehmedial
Encoding: 65180 65180 115
Width: 561
Flags: W
AnchorPoint: "ArabicBelow" 280 -251 basechar 0
AnchorPoint: "ArabicAbove" 280 1886 basechar 0
LayerCount: 2
Fore
SplineSet
-58 -1 m 1,0,-1
 -58 156 l 1,1,-1
 125 156 l 1,2,-1
 126 162 l 1,3,-1
 126 868 l 1,4,5
 317 894 317 894 431 1020 c 1,6,-1
 435 1015 l 1,7,-1
 435 156 l 1,8,-1
 620 156 l 1,9,-1
 620 -1 l 1,10,-1
 -58 -1 l 1,0,-1
383 1474 m 2,11,12
 383 1422 383 1422 327 1422 c 2,13,-1
 219 1422 l 2,14,15
 165 1422 165 1422 165 1474 c 2,16,-1
 165 1582 l 2,17,18
 165 1636 165 1636 219 1636 c 2,19,-1
 327 1636 l 2,20,21
 383 1636 383 1636 383 1582 c 2,22,-1
 383 1474 l 2,11,12
507 1252 m 2,23,24
 507 1200 507 1200 453 1200 c 2,25,-1
 344 1200 l 2,26,27
 291 1200 291 1200 291 1252 c 2,28,-1
 291 1360 l 2,29,30
 291 1414 291 1414 344 1414 c 2,31,-1
 453 1414 l 2,32,33
 507 1414 507 1414 507 1360 c 2,34,-1
 507 1252 l 2,23,24
258 1252 m 2,35,36
 258 1200 258 1200 203 1200 c 2,37,-1
 93 1200 l 2,38,39
 41 1200 41 1200 41 1252 c 2,40,-1
 41 1360 l 2,41,42
 41 1414 41 1414 93 1414 c 2,43,-1
 203 1414 l 2,44,45
 258 1414 258 1414 258 1360 c 2,46,-1
 258 1252 l 2,35,36
435 1015 m 1,47,-1
 435 1023 l 1,48,-1
 431 1020 l 1,49,-1
 435 1030 l 1,50,-1
 435 1023 l 1,51,-1
 438 1029 l 1,52,-1
 435 1015 l 1,47,-1
EndSplineSet
EndChar

StartChar: jeemisolated
Encoding: 65181 65181 116
Width: 1062
Flags: W
AnchorPoint: "ArabicBelow" 531 -831 basechar 0
AnchorPoint: "ArabicAbove" 531 1268 basechar 0
LayerCount: 2
Fore
SplineSet
658 -195 m 2,0,-1
 658 -303 l 2,1,2
 658 -357 658 -357 604 -357 c 2,3,-1
 496 -357 l 2,4,5
 442 -357 442 -357 442 -303 c 2,6,-1
 442 -196 l 2,7,8
 442 -143 442 -143 496 -143 c 2,9,-1
 604 -143 l 2,10,11
 658 -143 658 -143 658 -195 c 2,0,-1
1057 -207 m 1,12,13
 648 -207 648 -207 648 -2 c 1,14,15
 625 1 625 1 597 1 c 0,16,17
 306 1 306 1 306 -269 c 0,18,19
 306 -343 306 -343 402 -428 c 0,20,21
 502 -519 502 -519 649 -581 c 1,22,23
 422 -581 422 -581 246 -444 c 0,24,25
 78 -317 78 -317 78 -164 c 0,26,27
 78 -16 78 -16 201 73 c 0,28,29
 326 162 326 162 555 162 c 0,30,31
 578 162 578 162 601 160.5 c 128,-1,32
 624 159 624 159 648 157 c 1,33,-1
 648 870 l 2,34,35
 648 903 648 903 586 903 c 0,36,37
 525 903 525 903 525 870 c 2,38,-1
 525 297 l 1,39,40
 423 431 423 431 234 458 c 1,41,-1
 234 891 l 2,42,43
 234 1018 234 1018 603 1018 c 0,44,45
 960 1018 960 1018 957 901 c 2,46,-1
 957 -123 l 1,47,48
 970 -154 970 -154 1057 -207 c 1,12,13
EndSplineSet
EndChar

StartChar: jeemfinal
Encoding: 65182 65182 117
Width: 1120
Flags: W
AnchorPoint: "ArabicBelow" 560 -831 basechar 0
AnchorPoint: "ArabicAbove" 560 1268 basechar 0
LayerCount: 2
Fore
SplineSet
658 -195 m 2,0,-1
 658 -303 l 2,1,2
 658 -357 658 -357 604 -357 c 2,3,-1
 496 -357 l 2,4,5
 442 -357 442 -357 442 -303 c 2,6,-1
 442 -196 l 2,7,8
 442 -143 442 -143 496 -143 c 2,9,-1
 604 -143 l 2,10,11
 658 -143 658 -143 658 -195 c 2,0,-1
1183 -2 m 1,12,-1
 970 -2 l 1,13,-1
 970 -123 l 1,14,15
 976 -155 976 -155 1054 -207 c 1,16,17
 658 -207 658 -207 658 -5 c 1,18,19
 630 0 630 0 604 0 c 0,20,21
 304 0 304 0 304 -269 c 0,22,23
 304 -342 304 -342 399 -428 c 0,24,25
 501 -520 501 -520 648 -581 c 1,26,27
 419 -581 419 -581 243 -444 c 0,28,29
 76 -316 76 -316 76 -164 c 0,30,31
 76 -18 76 -18 204 72 c 0,32,33
 333 162 333 162 567 162 c 0,34,35
 590 162 590 162 612.5 160.5 c 128,-1,36
 635 159 635 159 658 157 c 1,37,-1
 658 870 l 2,38,39
 658 903 658 903 598 903 c 0,40,41
 535 903 535 903 535 870 c 2,42,-1
 535 297 l 1,43,44
 434 431 434 431 246 458 c 1,45,-1
 246 891 l 2,46,47
 246 1018 246 1018 613 1018 c 0,48,49
 970 1018 970 1018 970 901 c 2,50,-1
 970 156 l 1,51,-1
 1183 156 l 1,52,-1
 1183 -2 l 1,12,-1
EndSplineSet
EndChar

StartChar: jeeminitial
Encoding: 65183 65183 118
Width: 825
Flags: W
AnchorPoint: "ArabicBelow" 412 -611 basechar 0
AnchorPoint: "ArabicAbove" 412 1264 basechar 0
LayerCount: 2
Fore
SplineSet
438 -199 m 2,0,-1
 438 -307 l 2,1,2
 438 -361 438 -361 384 -361 c 2,3,-1
 276 -361 l 2,4,5
 222 -361 222 -361 222 -307 c 2,6,-1
 222 -200 l 2,7,8
 222 -147 222 -147 276 -147 c 2,9,-1
 384 -147 l 2,10,11
 438 -147 438 -147 438 -199 c 2,0,-1
815 -202 m 1,12,13
 414 -202 414 -202 414 -1 c 1,14,-1
 -78 -1 l 1,15,-1
 -78 156 l 1,16,-1
 414 156 l 1,17,-1
 414 866 l 2,18,19
 414 899 414 899 353 899 c 0,20,21
 291 899 291 899 291 866 c 2,22,-1
 291 295 l 1,23,24
 189 427 189 427 0 454 c 1,25,-1
 0 888 l 2,26,27
 0 1014 0 1014 369 1014 c 0,28,29
 726 1014 726 1014 726 897 c 2,30,-1
 726 -127 l 1,31,32
 749 -158 749 -158 815 -202 c 1,12,13
EndSplineSet
EndChar

StartChar: jeemmedial
Encoding: 65184 65184 119
Width: 882
Flags: W
AnchorPoint: "ArabicBelow" 441 -612 basechar 0
AnchorPoint: "ArabicAbove" 441 1265 basechar 0
LayerCount: 2
Fore
SplineSet
438 -200 m 2,0,-1
 438 -308 l 2,1,2
 438 -362 438 -362 384 -362 c 2,3,-1
 276 -362 l 2,4,5
 222 -362 222 -362 222 -308 c 2,6,-1
 222 -200 l 2,7,8
 222 -147 222 -147 276 -147 c 2,9,-1
 384 -147 l 2,10,11
 438 -147 438 -147 438 -200 c 2,0,-1
954 -2 m 1,12,-1
 722 -2 l 1,13,-1
 722 -135 l 1,14,15
 728 -158 728 -158 806 -201 c 1,16,17
 410 -201 410 -201 410 -2 c 1,18,-1
 -69 -2 l 1,19,-1
 -69 156 l 1,20,-1
 410 156 l 1,21,-1
 410 868 l 2,22,23
 410 901 410 901 351 901 c 0,24,25
 291 901 291 901 291 868 c 2,26,-1
 291 296 l 1,27,28
 189 428 189 428 0 455 c 1,29,-1
 0 889 l 2,30,31
 0 1015 0 1015 369 1015 c 0,32,33
 726 1015 726 1015 726 898 c 2,34,-1
 726 156 l 1,35,-1
 954 156 l 1,36,-1
 954 -2 l 1,12,-1
EndSplineSet
EndChar

StartChar: hahisolated
Encoding: 65185 65185 120
Width: 1057
Flags: W
AnchorPoint: "ArabicBelow" 528 -831 basechar 0
AnchorPoint: "ArabicAbove" 528 1268 basechar 0
LayerCount: 2
Fore
SplineSet
1057 -207 m 1,0,1
 648 -207 648 -207 648 -2 c 1,2,3
 625 1 625 1 597 1 c 0,4,5
 306 1 306 1 306 -269 c 0,6,7
 306 -343 306 -343 402 -428 c 0,8,9
 502 -519 502 -519 649 -581 c 1,10,11
 422 -581 422 -581 246 -444 c 0,12,13
 78 -317 78 -317 78 -164 c 0,14,15
 78 -16 78 -16 201 73 c 0,16,17
 326 162 326 162 555 162 c 0,18,19
 578 162 578 162 601 160.5 c 128,-1,20
 624 159 624 159 648 157 c 1,21,-1
 648 870 l 2,22,23
 648 903 648 903 586 903 c 0,24,25
 525 903 525 903 525 870 c 2,26,-1
 525 297 l 1,27,28
 423 431 423 431 234 458 c 1,29,-1
 234 891 l 2,30,31
 234 1018 234 1018 603 1018 c 0,32,33
 960 1018 960 1018 957 901 c 2,34,-1
 957 -123 l 1,35,36
 970 -154 970 -154 1057 -207 c 1,0,1
EndSplineSet
EndChar

StartChar: hahfinal
Encoding: 65186 65186 121
Width: 1125
Flags: W
AnchorPoint: "ArabicBelow" 562 -831 basechar 0
AnchorPoint: "ArabicAbove" 562 1268 basechar 0
LayerCount: 2
Fore
SplineSet
1183 -2 m 1,0,-1
 970 -2 l 1,1,-1
 970 -123 l 1,2,3
 976 -155 976 -155 1054 -207 c 1,4,5
 658 -207 658 -207 658 -5 c 1,6,7
 630 0 630 0 604 0 c 0,8,9
 304 0 304 0 304 -269 c 0,10,11
 304 -342 304 -342 399 -428 c 0,12,13
 501 -520 501 -520 648 -581 c 1,14,15
 419 -581 419 -581 243 -444 c 0,16,17
 76 -316 76 -316 76 -164 c 0,18,19
 76 -18 76 -18 204 72 c 0,20,21
 333 162 333 162 567 162 c 0,22,23
 590 162 590 162 612.5 160.5 c 128,-1,24
 635 159 635 159 658 157 c 1,25,-1
 658 870 l 2,26,27
 658 903 658 903 598 903 c 0,28,29
 535 903 535 903 535 870 c 2,30,-1
 535 297 l 1,31,32
 434 431 434 431 246 458 c 1,33,-1
 246 891 l 2,34,35
 246 1018 246 1018 613 1018 c 0,36,37
 970 1018 970 1018 970 901 c 2,38,-1
 970 156 l 1,39,-1
 1183 156 l 1,40,-1
 1183 -2 l 1,0,-1
EndSplineSet
EndChar

StartChar: hahinitial
Encoding: 65187 65187 122
Width: 815
Flags: W
AnchorPoint: "ArabicBelow" 407 -453 basechar 0
AnchorPoint: "ArabicAbove" 407 1264 basechar 0
LayerCount: 2
Fore
SplineSet
815 -203 m 1,0,1
 414 -203 414 -203 414 -2 c 1,2,-1
 -78 -2 l 1,3,-1
 -78 156 l 1,4,-1
 414 156 l 1,5,-1
 414 865 l 2,6,7
 414 898 414 898 353 898 c 0,8,9
 291 898 291 898 291 865 c 2,10,-1
 291 294 l 1,11,12
 189 426 189 426 0 453 c 1,13,-1
 0 888 l 2,14,15
 0 1014 0 1014 369 1014 c 0,16,17
 726 1014 726 1014 723 897 c 2,18,-1
 723 -128 l 1,19,20
 748 -159 748 -159 815 -203 c 1,0,1
EndSplineSet
EndChar

StartChar: hahmedial
Encoding: 65188 65188 123
Width: 882
Flags: W
AnchorPoint: "ArabicBelow" 441 -451 basechar 0
AnchorPoint: "ArabicAbove" 441 1266 basechar 0
LayerCount: 2
Fore
SplineSet
954 -1 m 1,0,-1
 722 -1 l 1,1,-1
 722 -135 l 1,2,3
 728 -158 728 -158 806 -201 c 1,4,5
 410 -201 410 -201 410 -1 c 1,6,-1
 -69 -1 l 1,7,-1
 -69 156 l 1,8,-1
 410 156 l 1,9,-1
 410 869 l 2,10,11
 410 902 410 902 351 902 c 0,12,13
 291 902 291 902 291 869 c 2,14,-1
 291 296 l 1,15,16
 189 428 189 428 0 455 c 1,17,-1
 0 890 l 2,18,19
 0 1016 0 1016 369 1016 c 0,20,21
 726 1016 726 1016 726 899 c 2,22,-1
 726 156 l 1,23,-1
 954 156 l 1,24,-1
 954 -1 l 1,0,-1
EndSplineSet
EndChar

StartChar: khahisolated
Encoding: 65189 65189 124
Width: 1062
Flags: W
AnchorPoint: "ArabicBelow" 531 -830 basechar 0
AnchorPoint: "ArabicAbove" 531 1656 basechar 0
LayerCount: 2
Fore
SplineSet
696 1352 m 2,0,-1
 696 1245 l 2,1,2
 696 1191 696 1191 641 1191 c 2,3,-1
 533 1191 l 2,4,5
 480 1191 480 1191 480 1245 c 2,6,-1
 480 1352 l 2,7,8
 480 1406 480 1406 533 1406 c 2,9,-1
 641 1406 l 2,10,11
 696 1406 696 1406 696 1352 c 2,0,-1
1057 -207 m 1,12,13
 648 -207 648 -207 648 -1 c 1,14,15
 625 2 625 2 597 2 c 0,16,17
 306 2 306 2 306 -268 c 0,18,19
 306 -342 306 -342 402 -427 c 0,20,21
 502 -518 502 -518 649 -580 c 1,22,23
 421 -580 421 -580 246 -444 c 0,24,25
 78 -317 78 -317 78 -163 c 0,26,27
 78 -16 78 -16 201 73 c 0,28,29
 326 162 326 162 555 162 c 0,30,31
 578 162 578 162 601 161 c 128,-1,32
 624 160 624 160 648 158 c 1,33,-1
 648 870 l 2,34,35
 648 903 648 903 586 903 c 0,36,37
 525 903 525 903 525 870 c 2,38,-1
 525 298 l 1,39,40
 423 431 423 431 234 458 c 1,41,-1
 234 891 l 2,42,43
 234 1019 234 1019 603 1019 c 0,44,45
 960 1019 960 1019 957 902 c 2,46,-1
 957 -123 l 1,47,48
 970 -154 970 -154 1057 -207 c 1,12,13
EndSplineSet
EndChar

StartChar: khahfinal
Encoding: 65190 65190 125
Width: 1119
Flags: W
AnchorPoint: "ArabicBelow" 559 -830 basechar 0
AnchorPoint: "ArabicAbove" 559 1656 basechar 0
LayerCount: 2
Fore
SplineSet
696 1352 m 2,0,-1
 696 1245 l 2,1,2
 696 1191 696 1191 641 1191 c 2,3,-1
 533 1191 l 2,4,5
 480 1191 480 1191 480 1245 c 2,6,-1
 480 1352 l 2,7,8
 480 1406 480 1406 533 1406 c 2,9,-1
 641 1406 l 2,10,11
 696 1406 696 1406 696 1352 c 2,0,-1
1183 -1 m 1,12,-1
 970 -1 l 1,13,-1
 970 -123 l 1,14,15
 976 -155 976 -155 1054 -207 c 1,16,17
 658 -207 658 -207 658 -4 c 1,18,19
 641 0 641 0 604 0 c 0,20,21
 304 0 304 0 304 -268 c 0,22,23
 304 -341 304 -341 399 -427 c 0,24,25
 501 -519 501 -519 648 -580 c 1,26,27
 418 -580 418 -580 243 -444 c 0,28,29
 76 -316 76 -316 76 -163 c 0,30,31
 76 -18 76 -18 204 72 c 0,32,33
 333 162 333 162 567 162 c 0,34,35
 590 162 590 162 612.5 161 c 128,-1,36
 635 160 635 160 658 158 c 1,37,-1
 658 870 l 2,38,39
 658 903 658 903 598 903 c 0,40,41
 535 903 535 903 535 870 c 2,42,-1
 535 298 l 1,43,44
 435 431 435 431 246 458 c 1,45,-1
 246 891 l 2,46,47
 246 1019 246 1019 613 1019 c 0,48,49
 970 1019 970 1019 970 902 c 2,50,-1
 970 156 l 1,51,-1
 1183 156 l 1,52,-1
 1183 -1 l 1,12,-1
EndSplineSet
EndChar

StartChar: khahinitial
Encoding: 65191 65191 126
Width: 825
Flags: W
AnchorPoint: "ArabicBelow" 412 -451 basechar 0
AnchorPoint: "ArabicAbove" 412 1656 basechar 0
LayerCount: 2
Fore
SplineSet
464 1352 m 2,0,-1
 464 1245 l 2,1,2
 464 1191 464 1191 410 1191 c 2,3,-1
 302 1191 l 2,4,5
 248 1191 248 1191 248 1245 c 2,6,-1
 248 1352 l 2,7,8
 248 1406 248 1406 302 1406 c 2,9,-1
 410 1406 l 2,10,11
 464 1406 464 1406 464 1352 c 2,0,-1
815 -201 m 1,12,13
 414 -201 414 -201 414 0 c 1,14,-1
 -78 0 l 1,15,-1
 -78 158 l 1,16,-1
 414 158 l 1,17,-1
 414 869 l 2,18,19
 414 902 414 902 353 902 c 0,20,21
 291 902 291 902 291 869 c 2,22,-1
 291 296 l 1,23,24
 189 428 189 428 0 455 c 1,25,-1
 0 890 l 2,26,27
 0 1016 0 1016 369 1016 c 0,28,29
 726 1016 726 1016 726 899 c 2,30,-1
 723 -124 l 1,31,32
 750 -157 750 -157 815 -201 c 1,12,13
EndSplineSet
EndChar

StartChar: khahmedial
Encoding: 65192 65192 127
Width: 866
Flags: W
AnchorPoint: "ArabicBelow" 433 -451 basechar 0
AnchorPoint: "ArabicAbove" 433 1654 basechar 0
LayerCount: 2
Fore
SplineSet
464 1350 m 2,0,-1
 464 1244 l 2,1,2
 464 1190 464 1190 410 1190 c 2,3,-1
 302 1190 l 2,4,5
 248 1190 248 1190 248 1244 c 2,6,-1
 248 1351 l 2,7,8
 248 1404 248 1404 302 1404 c 2,9,-1
 410 1404 l 2,10,11
 464 1404 464 1404 464 1350 c 2,0,-1
954 -1 m 1,12,-1
 722 -1 l 1,13,-1
 722 -135 l 1,14,15
 728 -158 728 -158 806 -201 c 1,16,17
 410 -201 410 -201 410 -1 c 1,18,-1
 -69 -1 l 1,19,-1
 -69 156 l 1,20,-1
 410 156 l 1,21,-1
 410 869 l 2,22,23
 410 902 410 902 351 902 c 0,24,25
 291 902 291 902 291 869 c 2,26,-1
 291 296 l 1,27,28
 189 428 189 428 0 455 c 1,29,-1
 0 890 l 2,30,31
 0 1016 0 1016 369 1016 c 0,32,33
 726 1016 726 1016 726 899 c 2,34,-1
 726 156 l 1,35,-1
 954 156 l 1,36,-1
 954 -1 l 1,12,-1
EndSplineSet
EndChar

StartChar: dalisolated
Encoding: 65193 65193 128
Width: 750
Flags: W
AnchorPoint: "ArabicBelow" 375 -250 basechar 0
AnchorPoint: "ArabicAbove" 375 1276 basechar 0
LayerCount: 2
Fore
SplineSet
750 0 m 1,0,-1
 78 0 l 1,1,-1
 78 157 l 1,2,-1
 442 157 l 1,3,-1
 442 801 l 2,4,5
 442 928 442 928 135 928 c 1,6,7
 314 1026 314 1026 349 1026 c 0,8,9
 750 1026 750 1026 750 831 c 2,10,-1
 750 0 l 1,0,-1
EndSplineSet
EndChar

StartChar: dalfinal
Encoding: 65194 65194 129
Width: 895
Flags: W
AnchorPoint: "ArabicBelow" 447 -251 basechar 0
AnchorPoint: "ArabicAbove" 447 1275 basechar 0
LayerCount: 2
Fore
SplineSet
954 -1 m 1,0,-1
 78 -1 l 1,1,-1
 78 156 l 1,2,-1
 442 156 l 1,3,-1
 442 800 l 2,4,5
 442 927 442 927 135 927 c 1,6,7
 314 1025 314 1025 349 1025 c 0,8,9
 750 1025 750 1025 750 830 c 2,10,-1
 750 156 l 1,11,-1
 954 156 l 1,12,-1
 954 -1 l 1,0,-1
EndSplineSet
EndChar

StartChar: thalisolated
Encoding: 65195 65195 130
Width: 748
Flags: W
AnchorPoint: "ArabicBelow" 374 -250 basechar 0
AnchorPoint: "ArabicAbove" 374 1670 basechar 0
LayerCount: 2
Fore
SplineSet
618 1366 m 2,0,-1
 618 1258 l 2,1,2
 618 1205 618 1205 563 1205 c 2,3,-1
 455 1205 l 2,4,5
 402 1205 402 1205 402 1258 c 2,6,-1
 402 1366 l 2,7,8
 402 1420 402 1420 455 1420 c 2,9,-1
 563 1420 l 2,10,11
 618 1420 618 1420 618 1366 c 2,0,-1
750 0 m 1,12,-1
 78 0 l 1,13,-1
 78 157 l 1,14,-1
 442 157 l 1,15,-1
 442 811 l 2,16,17
 442 938 442 938 135 938 c 1,18,19
 314 1036 314 1036 349 1036 c 0,20,21
 750 1036 750 1036 750 841 c 2,22,-1
 750 0 l 1,12,-1
EndSplineSet
EndChar

StartChar: thalfinal
Encoding: 65196 65196 131
Width: 865
Flags: W
AnchorPoint: "ArabicBelow" 432 -251 basechar 0
AnchorPoint: "ArabicAbove" 432 1659 basechar 0
LayerCount: 2
Fore
SplineSet
954 -1 m 1,0,-1
 78 -1 l 1,1,-1
 78 156 l 1,2,-1
 442 156 l 1,3,-1
 442 800 l 2,4,5
 442 927 442 927 135 927 c 1,6,7
 314 1025 314 1025 349 1025 c 0,8,9
 750 1025 750 1025 750 830 c 2,10,-1
 750 156 l 1,11,-1
 954 156 l 1,12,-1
 954 -1 l 1,0,-1
618 1353 m 2,13,-1
 618 1247 l 2,14,15
 618 1194 618 1194 563 1194 c 2,16,-1
 455 1194 l 2,17,18
 402 1194 402 1194 402 1247 c 2,19,-1
 402 1355 l 2,20,21
 402 1409 402 1409 455 1409 c 2,22,-1
 563 1409 l 2,23,24
 618 1409 618 1409 618 1353 c 2,13,-1
EndSplineSet
EndChar

StartChar: rehisolated
Encoding: 65197 65197 132
Width: 702
Flags: W
AnchorPoint: "ArabicBelow" 351 -479 basechar 0
AnchorPoint: "ArabicAbove" 351 1286 basechar 0
LayerCount: 2
Fore
SplineSet
701 1025 m 1,0,-1
 702 1034 l 1,1,-1
 702 -41 l 2,2,3
 702 -189 702 -189 431 -228 c 0,4,5
 344 -240 344 -240 35 -170 c 1,6,7
 395 -183 395 -183 389 -12 c 2,8,-1
 389 875 l 1,9,10
 584 902 584 902 701 1036 c 1,11,-1
 701 1025 l 1,0,-1
EndSplineSet
EndChar

StartChar: rehfinal
Encoding: 65198 65198 133
Width: 854
Flags: W
AnchorPoint: "ArabicBelow" 427 -480 basechar 0
AnchorPoint: "ArabicAbove" 427 1276 basechar 0
LayerCount: 2
Fore
SplineSet
702 -1 m 1,0,-1
 702 -43 l 2,1,2
 702 -190 702 -190 431 -229 c 0,3,4
 344 -241 344 -241 35 -171 c 1,5,6
 395 -186 395 -186 389 -13 c 2,7,-1
 389 866 l 1,8,9
 584 893 584 893 701 1026 c 1,10,-1
 701 1014 l 1,11,-1
 702 1022 l 1,12,-1
 702 156 l 1,13,-1
 924 156 l 1,14,-1
 924 -1 l 1,15,-1
 702 -1 l 1,0,-1
EndSplineSet
EndChar

StartChar: zainisolated
Encoding: 65199 65199 134
Width: 707
Flags: W
AnchorPoint: "ArabicBelow" 353 -479 basechar 0
AnchorPoint: "ArabicAbove" 353 1655 basechar 0
LayerCount: 2
Fore
SplineSet
702 -41 m 2,0,1
 702 -189 702 -189 431 -228 c 0,2,3
 344 -240 344 -240 35 -170 c 1,4,5
 395 -183 395 -183 390 -12 c 2,6,-1
 390 864 l 1,7,8
 585 891 585 891 702 1024 c 1,9,-1
 702 -41 l 2,0,1
653 1243 m 2,10,11
 653 1191 653 1191 599 1191 c 2,12,-1
 489 1191 l 2,13,14
 437 1191 437 1191 437 1243 c 2,15,-1
 437 1351 l 2,16,17
 437 1405 437 1405 489 1405 c 2,18,-1
 599 1405 l 2,19,20
 653 1405 653 1405 653 1351 c 2,21,-1
 653 1243 l 2,10,11
EndSplineSet
EndChar

StartChar: zainfinal
Encoding: 65200 65200 135
Width: 858
Flags: W
AnchorPoint: "ArabicBelow" 429 -480 basechar 0
AnchorPoint: "ArabicAbove" 429 1654 basechar 0
LayerCount: 2
Fore
SplineSet
702 -1 m 1,0,-1
 702 -43 l 2,1,2
 702 -190 702 -190 431 -229 c 0,3,4
 344 -241 344 -241 35 -171 c 1,5,6
 395 -186 395 -186 389 -13 c 2,7,-1
 389 866 l 1,8,9
 584 893 584 893 701 1026 c 1,10,-1
 701 1014 l 1,11,-1
 702 1022 l 1,12,-1
 702 156 l 1,13,-1
 924 156 l 1,14,-1
 924 -1 l 1,15,-1
 702 -1 l 1,0,-1
653 1242 m 2,16,17
 653 1190 653 1190 599 1190 c 2,18,-1
 489 1190 l 2,19,20
 437 1190 437 1190 437 1242 c 2,21,-1
 437 1350 l 2,22,23
 437 1404 437 1404 489 1404 c 2,24,-1
 599 1404 l 2,25,26
 653 1404 653 1404 653 1350 c 2,27,-1
 653 1242 l 2,16,17
EndSplineSet
EndChar

StartChar: seenisolated
Encoding: 65201 65201 136
Width: 1776
Flags: W
AnchorPoint: "ArabicBelow" 888 -460 basechar 0
AnchorPoint: "ArabicAbove" 888 1361 basechar 0
LayerCount: 2
Fore
SplineSet
891 157 m 1,0,-1
 1021 157 l 1,1,-1
 1015 162 l 1,2,-1
 1015 835 l 1,3,4
 1210 862 1210 862 1327 996 c 1,5,-1
 1330 985 l 1,6,-1
 1332 994 l 1,7,-1
 1332 157 l 1,8,-1
 1462 157 l 1,9,-1
 1458 160 l 1,10,-1
 1458 834 l 1,11,12
 1653 861 1653 861 1770 994 c 1,13,-1
 1770 0 l 1,14,-1
 891 0 l 1,15,-1
 891 -50 l 2,16,17
 891 -128 891 -128 765 -170 c 0,18,19
 654 -210 654 -210 486 -210 c 0,20,21
 321 -210 321 -210 204 -171 c 0,22,23
 78 -128 78 -128 78 -54 c 2,24,-1
 78 940 l 2,25,26
 78 1068 78 1068 259 1102 c 0,27,28
 316 1111 316 1111 522 1111 c 1,29,30
 477 1102 477 1102 435 1072 c 0,31,32
 388 1039 388 1039 388 999 c 2,33,-1
 388 -35 l 2,34,35
 388 -99 388 -99 487 -99 c 0,36,37
 580 -99 580 -99 579 -35 c 2,38,-1
 579 835 l 1,39,40
 774 862 774 862 891 996 c 1,41,-1
 891 157 l 1,0,-1
EndSplineSet
EndChar

StartChar: seenfinal
Encoding: 65202 65202 137
Width: 1911
Flags: W
AnchorPoint: "ArabicBelow" 955 -463 basechar 0
AnchorPoint: "ArabicAbove" 955 1360 basechar 0
LayerCount: 2
Fore
SplineSet
893 992 m 1,0,-1
 893 156 l 1,1,-1
 1023 156 l 1,2,-1
 1023 836 l 1,3,4
 1219 863 1219 863 1334 996 c 1,5,-1
 1334 156 l 1,6,-1
 1463 156 l 1,7,-1
 1463 836 l 1,8,9
 1658 863 1658 863 1773 996 c 1,10,-1
 1773 156 l 1,11,-1
 1971 156 l 1,12,-1
 1971 -1 l 1,13,-1
 884 -1 l 1,14,-1
 884 -51 l 2,15,16
 884 -129 884 -129 741 -171 c 0,17,18
 631 -213 631 -213 473 -213 c 0,19,20
 312 -213 312 -213 201 -174 c 0,21,22
 78 -129 78 -129 78 -57 c 2,23,-1
 78 938 l 2,24,25
 78 1067 78 1067 260 1100 c 0,26,27
 288 1105 288 1105 354 1107.5 c 128,-1,28
 420 1110 420 1110 525 1110 c 1,29,30
 502 1105 502 1105 480 1095.5 c 128,-1,31
 458 1086 458 1086 438 1073 c 0,32,33
 389 1039 389 1039 389 996 c 2,34,-1
 389 -37 l 2,35,36
 389 -102 389 -102 488 -102 c 0,37,38
 584 -102 584 -102 579 -37 c 2,39,-1
 579 828 l 1,40,41
 774 855 774 855 891 989 c 2,42,-1
 893 992 l 1,0,-1
EndSplineSet
EndChar

StartChar: seeninitial
Encoding: 65203 65203 138
Width: 1322
Flags: W
AnchorPoint: "ArabicBelow" 661 -251 basechar 0
AnchorPoint: "ArabicAbove" 661 1276 basechar 0
LayerCount: 2
Fore
SplineSet
876 1014 m 1,0,-1
 878 1022 l 1,1,-1
 878 156 l 1,2,-1
 1004 156 l 1,3,-1
 1004 863 l 1,4,5
 1199 890 1199 890 1316 1022 c 1,6,-1
 1316 -1 l 1,7,-1
 -64 -1 l 1,8,-1
 -64 156 l 1,9,-1
 126 156 l 1,10,-1
 126 866 l 1,11,12
 322 893 322 893 437 1026 c 1,13,-1
 437 156 l 1,14,-1
 564 156 l 1,15,-1
 564 866 l 1,16,17
 759 893 759 893 876 1026 c 1,18,-1
 876 1014 l 1,0,-1
EndSplineSet
EndChar

StartChar: seenmedial
Encoding: 65204 65204 139
Width: 1457
Flags: W
AnchorPoint: "ArabicBelow" 728 -251 basechar 0
AnchorPoint: "ArabicAbove" 728 1276 basechar 0
LayerCount: 2
Fore
SplineSet
-64 -1 m 1,0,-1
 -64 156 l 1,1,-1
 126 156 l 1,2,-1
 126 866 l 1,3,4
 321 893 321 893 438 1026 c 1,5,-1
 437 1022 l 1,6,-1
 437 156 l 1,7,-1
 564 156 l 1,8,-1
 564 866 l 1,9,10
 759 893 759 893 876 1026 c 1,11,-1
 876 1014 l 1,12,-1
 878 1022 l 1,13,-1
 878 156 l 1,14,-1
 1002 156 l 1,15,-1
 1002 866 l 1,16,17
 1197 893 1197 893 1314 1026 c 1,18,-1
 1314 1014 l 1,19,-1
 1316 1022 l 1,20,-1
 1316 156 l 1,21,-1
 1514 156 l 1,22,-1
 1514 -1 l 1,23,-1
 -64 -1 l 1,0,-1
EndSplineSet
EndChar

StartChar: sheenisolated
Encoding: 65205 65205 140
Width: 1776
Flags: W
AnchorPoint: "ArabicBelow" 888 -460 basechar 0
AnchorPoint: "ArabicAbove" 888 1894 basechar 0
LayerCount: 2
Fore
SplineSet
891 157 m 1,0,-1
 1021 157 l 1,1,-1
 1015 162 l 1,2,-1
 1015 835 l 1,3,4
 1210 862 1210 862 1327 996 c 1,5,-1
 1330 985 l 1,6,-1
 1332 994 l 1,7,-1
 1332 157 l 1,8,-1
 1462 157 l 1,9,-1
 1458 160 l 1,10,-1
 1458 834 l 1,11,12
 1653 861 1653 861 1770 994 c 1,13,-1
 1770 0 l 1,14,-1
 891 0 l 1,15,-1
 891 -50 l 2,16,17
 891 -128 891 -128 765 -170 c 0,18,19
 654 -210 654 -210 486 -210 c 0,20,21
 321 -210 321 -210 204 -171 c 0,22,23
 78 -128 78 -128 78 -54 c 2,24,-1
 78 940 l 2,25,26
 78 1068 78 1068 259 1102 c 0,27,28
 316 1111 316 1111 522 1111 c 1,29,30
 477 1102 477 1102 435 1072 c 0,31,32
 388 1039 388 1039 388 999 c 2,33,-1
 388 -35 l 2,34,35
 388 -99 388 -99 487 -99 c 0,36,37
 580 -99 580 -99 579 -35 c 2,38,-1
 579 835 l 1,39,40
 774 862 774 862 891 996 c 1,41,-1
 891 157 l 1,0,-1
1296 1482 m 2,42,43
 1296 1429 1296 1429 1242 1429 c 2,44,-1
 1132 1429 l 2,45,46
 1080 1429 1080 1429 1080 1482 c 2,47,-1
 1080 1590 l 2,48,49
 1080 1644 1080 1644 1132 1644 c 2,50,-1
 1242 1644 l 2,51,52
 1296 1644 1296 1644 1296 1590 c 2,53,-1
 1296 1482 l 2,42,43
1419 1248 m 2,54,55
 1419 1195 1419 1195 1365 1195 c 2,56,-1
 1255 1195 l 2,57,58
 1203 1195 1203 1195 1203 1248 c 2,59,-1
 1203 1356 l 2,60,61
 1203 1410 1203 1410 1255 1410 c 2,62,-1
 1365 1410 l 2,63,64
 1419 1410 1419 1410 1419 1356 c 2,65,-1
 1419 1248 l 2,54,55
1165 1248 m 2,66,67
 1165 1195 1165 1195 1111 1195 c 2,68,-1
 1002 1195 l 2,69,70
 949 1195 949 1195 949 1248 c 2,71,-1
 949 1356 l 2,72,73
 949 1410 949 1410 1002 1410 c 2,74,-1
 1111 1410 l 2,75,76
 1165 1410 1165 1410 1165 1356 c 2,77,-1
 1165 1248 l 2,66,67
EndSplineSet
EndChar

StartChar: sheenfinal
Encoding: 65206 65206 141
Width: 1911
Flags: W
AnchorPoint: "ArabicBelow" 955 -463 basechar 0
AnchorPoint: "ArabicAbove" 955 1882 basechar 0
LayerCount: 2
Fore
SplineSet
893 992 m 1,0,-1
 893 156 l 1,1,-1
 1023 156 l 1,2,-1
 1023 836 l 1,3,4
 1219 863 1219 863 1334 996 c 1,5,-1
 1334 156 l 1,6,-1
 1463 156 l 1,7,-1
 1463 836 l 1,8,9
 1658 863 1658 863 1773 996 c 1,10,-1
 1773 156 l 1,11,-1
 1971 156 l 1,12,-1
 1971 -1 l 1,13,-1
 884 -1 l 1,14,-1
 884 -51 l 2,15,16
 884 -129 884 -129 741 -171 c 0,17,18
 631 -213 631 -213 473 -213 c 0,19,20
 312 -213 312 -213 201 -174 c 0,21,22
 78 -129 78 -129 78 -57 c 2,23,-1
 78 938 l 2,24,25
 78 1067 78 1067 260 1100 c 0,26,27
 288 1105 288 1105 354 1107.5 c 128,-1,28
 420 1110 420 1110 525 1110 c 1,29,30
 502 1105 502 1105 480 1095.5 c 128,-1,31
 458 1086 458 1086 438 1073 c 0,32,33
 389 1039 389 1039 389 996 c 2,34,-1
 389 -37 l 2,35,36
 389 -102 389 -102 488 -102 c 0,37,38
 584 -102 584 -102 579 -37 c 2,39,-1
 579 828 l 1,40,41
 774 855 774 855 891 989 c 2,42,-1
 893 992 l 1,0,-1
1419 1247 m 2,43,44
 1419 1194 1419 1194 1365 1194 c 2,45,-1
 1256 1194 l 2,46,47
 1203 1194 1203 1194 1203 1247 c 2,48,-1
 1203 1353 l 2,49,50
 1203 1409 1203 1409 1256 1409 c 2,51,-1
 1365 1409 l 2,52,53
 1419 1409 1419 1409 1419 1353 c 2,54,-1
 1419 1247 l 2,43,44
1296 1470 m 2,55,56
 1296 1418 1296 1418 1242 1418 c 2,57,-1
 1133 1418 l 2,58,59
 1080 1418 1080 1418 1080 1470 c 2,60,-1
 1080 1578 l 2,61,62
 1080 1632 1080 1632 1133 1632 c 2,63,-1
 1242 1632 l 2,64,65
 1296 1632 1296 1632 1296 1578 c 2,66,-1
 1296 1470 l 2,55,56
1166 1247 m 2,67,68
 1166 1194 1166 1194 1112 1194 c 2,69,-1
 1002 1194 l 2,70,71
 950 1194 950 1194 950 1247 c 2,72,-1
 950 1353 l 2,73,74
 950 1409 950 1409 1002 1409 c 2,75,-1
 1112 1409 l 2,76,77
 1166 1409 1166 1409 1166 1353 c 2,78,-1
 1166 1247 l 2,67,68
EndSplineSet
EndChar

StartChar: sheeninitial
Encoding: 65207 65207 142
Width: 1322
Flags: W
AnchorPoint: "ArabicBelow" 661 -251 basechar 0
AnchorPoint: "ArabicAbove" 661 1892 basechar 0
LayerCount: 2
Fore
SplineSet
876 1024 m 1,0,-1
 878 1032 l 1,1,-1
 878 156 l 1,2,-1
 1004 156 l 1,3,-1
 1004 873 l 1,4,5
 1199 900 1199 900 1316 1032 c 1,6,-1
 1316 -1 l 1,7,-1
 -64 -1 l 1,8,-1
 -64 156 l 1,9,-1
 126 156 l 1,10,-1
 126 876 l 1,11,12
 322 903 322 903 437 1036 c 1,13,-1
 437 156 l 1,14,-1
 564 156 l 1,15,-1
 564 876 l 1,16,17
 759 903 759 903 876 1036 c 1,18,-1
 876 1024 l 1,0,-1
846 1480 m 2,19,20
 846 1428 846 1428 792 1428 c 2,21,-1
 683 1428 l 2,22,23
 630 1428 630 1428 630 1480 c 2,24,-1
 630 1588 l 2,25,26
 630 1642 630 1642 683 1642 c 2,27,-1
 792 1642 l 2,28,29
 846 1642 846 1642 846 1588 c 2,30,-1
 846 1480 l 2,19,20
716 1257 m 2,31,32
 716 1204 716 1204 662 1204 c 2,33,-1
 552 1204 l 2,34,35
 500 1204 500 1204 500 1257 c 2,36,-1
 500 1363 l 2,37,38
 500 1419 500 1419 552 1419 c 2,39,-1
 662 1419 l 2,40,41
 716 1419 716 1419 716 1363 c 2,42,-1
 716 1257 l 2,31,32
969 1257 m 2,43,44
 969 1204 969 1204 915 1204 c 2,45,-1
 806 1204 l 2,46,47
 753 1204 753 1204 753 1257 c 2,48,-1
 753 1363 l 2,49,50
 753 1419 753 1419 806 1419 c 2,51,-1
 915 1419 l 2,52,53
 969 1419 969 1419 969 1363 c 2,54,-1
 969 1257 l 2,43,44
EndSplineSet
EndChar

StartChar: sheenmedial
Encoding: 65208 65208 143
Width: 1457
Flags: W
AnchorPoint: "ArabicBelow" 728 -251 basechar 0
AnchorPoint: "ArabicAbove" 728 1882 basechar 0
LayerCount: 2
Fore
SplineSet
-64 -1 m 1,0,-1
 -64 156 l 1,1,-1
 126 156 l 1,2,-1
 126 866 l 1,3,4
 321 893 321 893 438 1026 c 1,5,-1
 437 1022 l 1,6,-1
 437 156 l 1,7,-1
 564 156 l 1,8,-1
 564 866 l 1,9,10
 759 893 759 893 876 1026 c 1,11,-1
 876 1014 l 1,12,-1
 878 1022 l 1,13,-1
 878 156 l 1,14,-1
 1002 156 l 1,15,-1
 1002 866 l 1,16,17
 1197 893 1197 893 1314 1026 c 1,18,-1
 1314 1014 l 1,19,-1
 1316 1022 l 1,20,-1
 1316 156 l 1,21,-1
 1514 156 l 1,22,-1
 1514 -1 l 1,23,-1
 -64 -1 l 1,0,-1
959 1245 m 2,24,25
 959 1193 959 1193 905 1193 c 2,26,-1
 795 1193 l 2,27,28
 743 1193 743 1193 743 1245 c 2,29,-1
 743 1353 l 2,30,31
 743 1407 743 1407 795 1407 c 2,32,-1
 905 1407 l 2,33,34
 959 1407 959 1407 959 1353 c 2,35,-1
 959 1245 l 2,24,25
702 1247 m 2,36,37
 702 1194 702 1194 648 1194 c 2,38,-1
 539 1194 l 2,39,40
 486 1194 486 1194 486 1247 c 2,41,-1
 486 1353 l 2,42,43
 486 1409 486 1409 539 1409 c 2,44,-1
 648 1409 l 2,45,46
 702 1409 702 1409 702 1353 c 2,47,-1
 702 1247 l 2,36,37
833 1470 m 2,48,49
 833 1418 833 1418 779 1418 c 2,50,-1
 669 1418 l 2,51,52
 617 1418 617 1418 617 1470 c 2,53,-1
 617 1578 l 2,54,55
 617 1632 617 1632 669 1632 c 2,56,-1
 779 1632 l 2,57,58
 833 1632 833 1632 833 1578 c 2,59,-1
 833 1470 l 2,48,49
EndSplineSet
EndChar

StartChar: sadisolated
Encoding: 65209 65209 144
Width: 1566
Flags: W
AnchorPoint: "ArabicBelow" 783 -460 basechar 0
AnchorPoint: "ArabicAbove" 783 1361 basechar 0
LayerCount: 2
Fore
SplineSet
891 481 m 1,0,1
 1059 1024 1059 1024 1565 1024 c 1,2,-1
 1565 0 l 1,3,-1
 891 0 l 1,4,-1
 891 -50 l 2,5,6
 891 -128 891 -128 765 -170 c 0,7,8
 654 -210 654 -210 486 -210 c 0,9,10
 321 -210 321 -210 204 -171 c 0,11,12
 78 -128 78 -128 78 -54 c 2,13,-1
 78 940 l 2,14,15
 78 1067 78 1067 260 1102 c 0,16,17
 317 1111 317 1111 522 1111 c 1,18,19
 477 1102 477 1102 435 1072 c 0,20,21
 389 1039 389 1039 389 999 c 2,22,-1
 389 -35 l 2,23,24
 389 -99 389 -99 488 -99 c 0,25,26
 580 -99 580 -99 579 -35 c 2,27,-1
 579 815 l 1,28,29
 774 842 774 842 891 976 c 1,30,-1
 891 481 l 1,0,1
1254 843 m 1,31,32
 1113 784 1113 784 1008 564 c 0,33,34
 891 319 891 319 891 157 c 1,35,-1
 1254 157 l 1,36,-1
 1254 843 l 1,31,32
EndSplineSet
EndChar

StartChar: sadfinal
Encoding: 65210 65210 145
Width: 1706
Flags: W
AnchorPoint: "ArabicBelow" 853 -463 basechar 0
AnchorPoint: "ArabicAbove" 853 1360 basechar 0
LayerCount: 2
Fore
SplineSet
891 480 m 1,0,1
 1059 1022 1059 1022 1565 1022 c 1,2,-1
 1565 156 l 1,3,-1
 1763 156 l 1,4,-1
 1763 -1 l 1,5,-1
 863 -1 l 1,6,-1
 863 -51 l 2,7,8
 863 -129 863 -129 740 -171 c 0,9,10
 630 -213 630 -213 473 -213 c 0,11,12
 312 -213 312 -213 201 -174 c 0,13,14
 78 -129 78 -129 78 -57 c 2,15,-1
 78 938 l 2,16,17
 78 1067 78 1067 260 1100 c 0,18,19
 316 1110 316 1110 522 1110 c 1,20,21
 477 1099 477 1099 435 1071 c 0,22,23
 389 1038 389 1038 389 996 c 2,24,-1
 389 -37 l 2,25,26
 389 -102 389 -102 488 -102 c 0,27,28
 581 -102 581 -102 579 -37 c 2,29,-1
 579 816 l 1,30,31
 774 843 774 843 891 976 c 1,32,-1
 891 480 l 1,0,1
1254 840 m 1,33,34
 1113 781 1113 781 1008 561 c 0,35,36
 891 318 891 318 891 156 c 1,37,-1
 1254 156 l 1,38,-1
 1254 840 l 1,33,34
EndSplineSet
EndChar

StartChar: sadinitial
Encoding: 65211 65211 146
Width: 1111
Flags: W
AnchorPoint: "ArabicBelow" 555 -251 basechar 0
AnchorPoint: "ArabicAbove" 555 1276 basechar 0
LayerCount: 2
Fore
SplineSet
442 480 m 1,0,1
 610 1022 610 1022 1116 1022 c 1,2,-1
 1116 -1 l 1,3,-1
 -59 -1 l 1,4,-1
 -59 156 l 1,5,-1
 132 156 l 1,6,-1
 132 866 l 1,7,8
 327 893 327 893 444 1026 c 1,9,-1
 442 480 l 1,0,1
805 840 m 1,10,11
 664 781 664 781 559 561 c 0,12,13
 442 318 442 318 442 156 c 1,14,-1
 805 156 l 1,15,-1
 805 840 l 1,10,11
EndSplineSet
EndChar

StartChar: sadmedial
Encoding: 65212 65212 147
Width: 1252
Flags: W
AnchorPoint: "ArabicBelow" 626 -251 basechar 0
AnchorPoint: "ArabicAbove" 626 1276 basechar 0
LayerCount: 2
Fore
SplineSet
442 480 m 1,0,1
 610 1022 610 1022 1116 1022 c 1,2,-1
 1116 156 l 1,3,-1
 1312 156 l 1,4,-1
 1312 -1 l 1,5,-1
 -59 -1 l 1,6,-1
 -59 156 l 1,7,-1
 132 156 l 1,8,-1
 132 866 l 1,9,10
 327 893 327 893 444 1026 c 1,11,-1
 442 480 l 1,0,1
805 840 m 1,12,13
 664 781 664 781 559 561 c 0,14,15
 442 318 442 318 442 156 c 1,16,-1
 805 156 l 1,17,-1
 805 840 l 1,12,13
EndSplineSet
EndChar

StartChar: dadisolated
Encoding: 65213 65213 148
Width: 1566
Flags: W
AnchorPoint: "ArabicBelow" 783 -460 basechar 0
AnchorPoint: "ArabicAbove" 783 1659 basechar 0
LayerCount: 2
Fore
SplineSet
891 482 m 1,0,1
 1059 1025 1059 1025 1565 1025 c 1,2,-1
 1565 0 l 1,3,-1
 891 0 l 1,4,-1
 891 -49 l 2,5,6
 891 -127 891 -127 765 -169 c 0,7,8
 648 -210 648 -210 486 -210 c 0,9,10
 321 -210 321 -210 204 -171 c 0,11,12
 78 -128 78 -128 78 -54 c 2,13,-1
 78 941 l 2,14,15
 78 1068 78 1068 260 1103 c 0,16,17
 317 1112 317 1112 522 1112 c 1,18,19
 477 1103 477 1103 435 1073 c 0,20,21
 389 1040 389 1040 389 999 c 2,22,-1
 389 -34 l 2,23,24
 389 -99 389 -99 488 -99 c 0,25,26
 581 -99 581 -99 579 -34 c 2,27,-1
 579 816 l 1,28,29
 774 843 774 843 891 976 c 1,30,-1
 891 482 l 1,0,1
1254 843 m 1,31,32
 1113 784 1113 784 1008 564 c 0,33,34
 891 319 891 319 891 158 c 1,35,-1
 1254 158 l 1,36,-1
 1254 843 l 1,31,32
1217 1247 m 2,37,38
 1217 1194 1217 1194 1163 1194 c 2,39,-1
 1053 1194 l 2,40,41
 1001 1194 1001 1194 1001 1247 c 2,42,-1
 1001 1353 l 2,43,44
 1001 1409 1001 1409 1053 1409 c 2,45,-1
 1163 1409 l 2,46,47
 1217 1409 1217 1409 1217 1353 c 2,48,-1
 1217 1247 l 2,37,38
EndSplineSet
EndChar

StartChar: dadfinal
Encoding: 65214 65214 149
Width: 1706
Flags: W
AnchorPoint: "ArabicBelow" 853 -463 basechar 0
AnchorPoint: "ArabicAbove" 853 1656 basechar 0
LayerCount: 2
Fore
SplineSet
891 480 m 1,0,1
 1059 1022 1059 1022 1565 1022 c 1,2,-1
 1565 156 l 1,3,-1
 1763 156 l 1,4,-1
 1763 -1 l 1,5,-1
 863 -1 l 1,6,-1
 863 -51 l 2,7,8
 863 -129 863 -129 740 -171 c 0,9,10
 630 -213 630 -213 473 -213 c 0,11,12
 312 -213 312 -213 201 -174 c 0,13,14
 78 -129 78 -129 78 -57 c 2,15,-1
 78 938 l 2,16,17
 78 1067 78 1067 260 1100 c 0,18,19
 316 1110 316 1110 522 1110 c 1,20,21
 477 1099 477 1099 435 1071 c 0,22,23
 389 1038 389 1038 389 996 c 2,24,-1
 389 -37 l 2,25,26
 389 -102 389 -102 488 -102 c 0,27,28
 581 -102 581 -102 579 -37 c 2,29,-1
 579 816 l 1,30,31
 774 843 774 843 891 976 c 1,32,-1
 891 480 l 1,0,1
1254 840 m 1,33,34
 1113 781 1113 781 1008 561 c 0,35,36
 891 318 891 318 891 156 c 1,37,-1
 1254 156 l 1,38,-1
 1254 840 l 1,33,34
1178 1244 m 2,39,40
 1178 1191 1178 1191 1124 1191 c 2,41,-1
 1014 1191 l 2,42,43
 962 1191 962 1191 962 1244 c 2,44,-1
 962 1352 l 2,45,46
 962 1406 962 1406 1014 1406 c 2,47,-1
 1124 1406 l 2,48,49
 1178 1406 1178 1406 1178 1352 c 2,50,-1
 1178 1244 l 2,39,40
EndSplineSet
EndChar

StartChar: dadinitial
Encoding: 65215 65215 150
Width: 1111
Flags: W
AnchorPoint: "ArabicBelow" 555 -251 basechar 0
AnchorPoint: "ArabicAbove" 555 1660 basechar 0
LayerCount: 2
Fore
SplineSet
442 480 m 1,0,1
 610 1022 610 1022 1116 1022 c 1,2,-1
 1116 -1 l 1,3,-1
 -59 -1 l 1,4,-1
 -59 156 l 1,5,-1
 132 156 l 1,6,-1
 132 866 l 1,7,8
 327 893 327 893 444 1026 c 1,9,-1
 442 480 l 1,0,1
805 840 m 1,10,11
 664 781 664 781 559 561 c 0,12,13
 442 318 442 318 442 156 c 1,14,-1
 805 156 l 1,15,-1
 805 840 l 1,10,11
736 1248 m 2,16,17
 736 1196 736 1196 682 1196 c 2,18,-1
 573 1196 l 2,19,20
 520 1196 520 1196 520 1248 c 2,21,-1
 520 1356 l 2,22,23
 520 1410 520 1410 573 1410 c 2,24,-1
 682 1410 l 2,25,26
 736 1410 736 1410 736 1356 c 2,27,-1
 736 1248 l 2,16,17
EndSplineSet
EndChar

StartChar: dadmedial
Encoding: 65216 65216 151
Width: 1252
Flags: W
AnchorPoint: "ArabicBelow" 626 -251 basechar 0
AnchorPoint: "ArabicAbove" 626 1660 basechar 0
LayerCount: 2
Fore
SplineSet
442 480 m 1,0,1
 610 1022 610 1022 1116 1022 c 1,2,-1
 1116 156 l 1,3,-1
 1312 156 l 1,4,-1
 1312 -1 l 1,5,-1
 -59 -1 l 1,6,-1
 -59 156 l 1,7,-1
 132 156 l 1,8,-1
 132 866 l 1,9,10
 327 893 327 893 444 1026 c 1,11,-1
 442 480 l 1,0,1
805 840 m 1,12,13
 664 781 664 781 559 561 c 0,14,15
 442 318 442 318 442 156 c 1,16,-1
 805 156 l 1,17,-1
 805 840 l 1,12,13
736 1248 m 2,18,19
 736 1196 736 1196 682 1196 c 2,20,-1
 573 1196 l 2,21,22
 520 1196 520 1196 520 1248 c 2,23,-1
 520 1356 l 2,24,25
 520 1410 520 1410 573 1410 c 2,26,-1
 682 1410 l 2,27,28
 736 1410 736 1410 736 1356 c 2,29,-1
 736 1248 l 2,18,19
EndSplineSet
EndChar

StartChar: tahisolated
Encoding: 65217 65217 152
Width: 1311
Flags: W
AnchorPoint: "ArabicBelow" 655 -250 basechar 0
AnchorPoint: "ArabicAbove" 655 2157 basechar 0
LayerCount: 2
Fore
SplineSet
636 532 m 1,0,1
 804 1075 804 1075 1308 1075 c 1,2,-1
 1308 0 l 1,3,-1
 223 0 l 2,4,5
 73 0 73 0 73 158 c 1,6,-1
 325 158 l 1,7,-1
 325 1748 l 1,8,9
 516 1774 516 1774 630 1900 c 2,10,-1
 636 1907 l 1,11,-1
 636 532 l 1,0,1
999 893 m 1,12,13
 858 834 858 834 753 614 c 0,14,15
 636 369 636 369 636 158 c 1,16,-1
 999 158 l 1,17,-1
 999 893 l 1,12,13
EndSplineSet
EndChar

StartChar: tahfinal
Encoding: 65218 65218 153
Width: 1433
Flags: W
AnchorPoint: "ArabicBelow" 716 -252 basechar 0
AnchorPoint: "ArabicAbove" 716 2157 basechar 0
LayerCount: 2
Fore
SplineSet
636 530 m 1,0,1
 804 1071 804 1071 1308 1071 c 1,2,-1
 1308 156 l 1,3,-1
 1491 156 l 1,4,-1
 1491 -2 l 1,5,-1
 224 -2 l 2,6,7
 74 -2 74 -2 74 156 c 1,8,-1
 326 156 l 1,9,-1
 326 1748 l 1,10,11
 522 1775 522 1775 636 1907 c 1,12,-1
 636 530 l 1,0,1
999 890 m 1,13,14
 858 831 858 831 753 611 c 0,15,16
 636 368 636 368 636 156 c 1,17,-1
 999 156 l 1,18,-1
 999 890 l 1,13,14
EndSplineSet
EndChar

StartChar: tahinitial
Encoding: 65219 65219 154
Width: 1107
Flags: W
AnchorPoint: "ArabicBelow" 553 -252 basechar 0
AnchorPoint: "ArabicAbove" 553 2157 basechar 0
LayerCount: 2
Fore
SplineSet
-58 -2 m 1,0,-1
 -58 156 l 1,1,-1
 125 156 l 1,2,-1
 125 1748 l 1,3,4
 318 1775 318 1775 435 1907 c 1,5,-1
 435 530 l 1,6,7
 603 1071 603 1071 1107 1071 c 1,8,-1
 1107 -2 l 1,9,-1
 -58 -2 l 1,0,-1
798 890 m 1,10,11
 657 831 657 831 552 611 c 0,12,13
 435 368 435 368 435 156 c 1,14,-1
 798 156 l 1,15,-1
 798 890 l 1,10,11
EndSplineSet
EndChar

StartChar: tahmedial
Encoding: 65220 65220 155
Width: 1233
Flags: W
AnchorPoint: "ArabicBelow" 616 -252 basechar 0
AnchorPoint: "ArabicAbove" 616 2157 basechar 0
LayerCount: 2
Fore
SplineSet
-58 -2 m 1,0,-1
 -58 156 l 1,1,-1
 125 156 l 1,2,-1
 125 1748 l 1,3,4
 318 1775 318 1775 435 1907 c 1,5,-1
 435 530 l 1,6,7
 603 1071 603 1071 1107 1071 c 1,8,-1
 1107 156 l 1,9,-1
 1292 156 l 1,10,-1
 1292 -2 l 1,11,-1
 -58 -2 l 1,0,-1
798 890 m 1,12,13
 657 831 657 831 552 611 c 0,14,15
 435 368 435 368 435 156 c 1,16,-1
 798 156 l 1,17,-1
 798 890 l 1,12,13
EndSplineSet
EndChar

StartChar: zahisolated
Encoding: 65221 65221 156
Width: 1311
Flags: W
AnchorPoint: "ArabicBelow" 655 -250 basechar 0
AnchorPoint: "ArabicAbove" 655 2156 basechar 0
LayerCount: 2
Fore
SplineSet
1123 1403 m 2,0,-1
 1123 1297 l 2,1,2
 1123 1244 1123 1244 1068 1244 c 2,3,-1
 960 1244 l 2,4,5
 906 1244 906 1244 906 1297 c 2,6,-1
 906 1405 l 2,7,8
 906 1459 906 1459 960 1459 c 2,9,-1
 1068 1459 l 2,10,11
 1123 1459 1123 1459 1123 1403 c 2,0,-1
636 532 m 1,12,13
 804 1075 804 1075 1308 1075 c 1,14,-1
 1308 0 l 1,15,-1
 223 0 l 2,16,17
 73 0 73 0 73 158 c 1,18,-1
 325 158 l 1,19,-1
 325 1747 l 1,20,21
 516 1773 516 1773 630 1899 c 2,22,-1
 636 1906 l 1,23,-1
 636 532 l 1,12,13
999 893 m 1,24,25
 858 834 858 834 753 614 c 0,26,27
 636 369 636 369 636 158 c 1,28,-1
 999 158 l 1,29,-1
 999 893 l 1,24,25
EndSplineSet
EndChar

StartChar: zahfinal
Encoding: 65222 65222 157
Width: 1431
Flags: W
AnchorPoint: "ArabicBelow" 715 -252 basechar 0
AnchorPoint: "ArabicAbove" 715 2158 basechar 0
LayerCount: 2
Fore
SplineSet
1124 1401 m 2,0,-1
 1124 1295 l 2,1,2
 1124 1241 1124 1241 1069 1241 c 2,3,-1
 960 1241 l 2,4,5
 906 1241 906 1241 906 1295 c 2,6,-1
 906 1402 l 2,7,8
 906 1455 906 1455 960 1455 c 2,9,-1
 1069 1455 l 2,10,11
 1124 1455 1124 1455 1124 1401 c 2,0,-1
636 530 m 1,12,13
 804 1071 804 1071 1308 1071 c 1,14,-1
 1308 156 l 1,15,-1
 1491 156 l 1,16,-1
 1491 -2 l 1,17,-1
 224 -2 l 2,18,19
 74 -2 74 -2 74 156 c 1,20,-1
 326 156 l 1,21,-1
 326 1749 l 1,22,23
 522 1776 522 1776 636 1908 c 1,24,-1
 636 530 l 1,12,13
999 890 m 1,25,26
 858 831 858 831 753 611 c 0,27,28
 636 368 636 368 636 156 c 1,29,-1
 999 156 l 1,30,-1
 999 890 l 1,25,26
EndSplineSet
EndChar

StartChar: zahinitial
Encoding: 65223 65223 158
Width: 1112
Flags: W
AnchorPoint: "ArabicBelow" 556 -252 basechar 0
AnchorPoint: "ArabicAbove" 556 2157 basechar 0
LayerCount: 2
Fore
SplineSet
929 1402 m 2,0,-1
 929 1295 l 2,1,2
 929 1241 929 1241 874 1241 c 2,3,-1
 765 1241 l 2,4,5
 711 1241 711 1241 711 1295 c 2,6,-1
 711 1402 l 2,7,8
 711 1455 711 1455 765 1455 c 2,9,-1
 874 1455 l 2,10,11
 929 1455 929 1455 929 1402 c 2,0,-1
-58 -2 m 1,12,-1
 -58 156 l 1,13,-1
 125 156 l 1,14,-1
 125 1748 l 1,15,16
 318 1775 318 1775 435 1907 c 1,17,-1
 435 530 l 1,18,19
 603 1071 603 1071 1107 1071 c 1,20,-1
 1107 -2 l 1,21,-1
 -58 -2 l 1,12,-1
798 890 m 1,22,23
 657 831 657 831 552 611 c 0,24,25
 435 368 435 368 435 156 c 1,26,-1
 798 156 l 1,27,-1
 798 890 l 1,22,23
EndSplineSet
EndChar

StartChar: zahmedial
Encoding: 65224 65224 159
Width: 1229
Flags: W
AnchorPoint: "ArabicBelow" 614 -252 basechar 0
AnchorPoint: "ArabicAbove" 614 2157 basechar 0
LayerCount: 2
Fore
SplineSet
929 1402 m 2,0,-1
 929 1295 l 2,1,2
 929 1241 929 1241 874 1241 c 2,3,-1
 765 1241 l 2,4,5
 711 1241 711 1241 711 1295 c 2,6,-1
 711 1402 l 2,7,8
 711 1455 711 1455 765 1455 c 2,9,-1
 874 1455 l 2,10,11
 929 1455 929 1455 929 1402 c 2,0,-1
-58 -2 m 1,12,-1
 -58 156 l 1,13,-1
 125 156 l 1,14,-1
 125 1748 l 1,15,16
 318 1775 318 1775 435 1907 c 1,17,-1
 435 530 l 1,18,19
 603 1071 603 1071 1107 1071 c 1,20,-1
 1107 156 l 1,21,-1
 1292 156 l 1,22,-1
 1292 -2 l 1,23,-1
 -58 -2 l 1,12,-1
798 890 m 1,24,25
 657 831 657 831 552 611 c 0,26,27
 435 368 435 368 435 156 c 1,28,-1
 798 156 l 1,29,-1
 798 890 l 1,24,25
EndSplineSet
EndChar

StartChar: ainisolated
Encoding: 65225 65225 160
Width: 1372
Flags: W
AnchorPoint: "ArabicBelow" 686 -833 basechar 0
AnchorPoint: "ArabicAbove" 686 1269 basechar 0
LayerCount: 2
Fore
SplineSet
1371 0 m 1,0,-1
 624 0 l 2,1,2
 620 0 620 0 611.5 0.5 c 128,-1,3
 603 1 603 1 589 2 c 2,4,-1
 544 2 l 2,5,6
 284 2 284 2 304 -271 c 0,7,8
 310 -345 310 -345 402 -429 c 0,9,10
 500 -520 500 -520 648 -583 c 1,11,12
 418 -583 418 -583 243 -447 c 0,13,14
 76 -318 76 -318 76 -166 c 0,15,16
 76 12 76 12 213 87 c 0,17,18
 341 158 341 158 624 158 c 1,19,-1
 624 902 l 2,20,21
 624 1019 624 1019 990 1019 c 0,22,23
 1371 1019 1371 1019 1371 891 c 2,24,-1
 1371 508 l 1,25,26
 1157 477 1157 477 1059 348 c 1,27,-1
 1059 870 l 2,28,29
 1059 903 1059 903 996 903 c 0,30,31
 934 903 934 903 934 870 c 2,32,-1
 934 158 l 1,33,-1
 1371 158 l 1,34,-1
 1371 0 l 1,0,-1
EndSplineSet
EndChar

StartChar: ainfinal
Encoding: 65226 65226 161
Width: 1314
Flags: W
AnchorPoint: "ArabicBelow" 657 -835 basechar 0
AnchorPoint: "ArabicAbove" 657 1266 basechar 0
LayerCount: 2
Fore
SplineSet
1374 -1 m 1,0,-1
 625 -1 l 1,1,-1
 609 -1 l 2,2,3
 604 -1 604 -1 598 -1 c 256,4,5
 592 -1 592 -1 585 0 c 1,6,-1
 541 0 l 2,7,8
 306 0 306 0 306 -273 c 0,9,10
 306 -345 306 -345 402 -430 c 0,11,12
 505 -524 505 -524 649 -585 c 1,13,14
 422 -585 422 -585 246 -448 c 0,15,16
 78 -319 78 -319 78 -168 c 0,17,18
 78 156 78 156 625 156 c 2,19,-1
 714 156 l 1,20,21
 637 304 637 304 456 330 c 1,22,-1
 456 896 l 2,23,24
 456 1016 456 1016 840 1016 c 0,25,26
 1203 1016 1203 1016 1203 896 c 2,27,-1
 1203 330 l 1,28,29
 1038 306 1038 306 945 156 c 1,30,-1
 1374 156 l 1,31,-1
 1374 -1 l 1,0,-1
891 156 m 1,32,-1
 891 873 l 2,33,34
 891 908 891 908 831 908 c 0,35,36
 768 908 768 908 768 873 c 2,37,-1
 768 156 l 1,38,-1
 891 156 l 1,32,-1
EndSplineSet
EndChar

StartChar: aininitial
Encoding: 65227 65227 162
Width: 876
Flags: W
AnchorPoint: "ArabicBelow" 438 -252 basechar 0
AnchorPoint: "ArabicAbove" 438 1265 basechar 0
LayerCount: 2
Fore
SplineSet
871 -2 m 1,0,-1
 -60 -2 l 1,1,-1
 -60 156 l 1,2,-1
 124 156 l 1,3,-1
 124 898 l 2,4,5
 124 1015 124 1015 492 1015 c 0,6,7
 871 1015 871 1015 871 889 c 2,8,-1
 871 505 l 1,9,10
 656 475 656 475 559 346 c 1,11,-1
 559 868 l 2,12,13
 559 901 559 901 496 901 c 0,14,15
 435 901 435 901 435 868 c 2,16,-1
 435 156 l 1,17,-1
 871 156 l 1,18,-1
 871 -2 l 1,0,-1
EndSplineSet
EndChar

StartChar: ainmedial
Encoding: 65228 65228 163
Width: 984
Flags: W
AnchorPoint: "ArabicBelow" 492 -252 basechar 0
AnchorPoint: "ArabicAbove" 492 1265 basechar 0
LayerCount: 2
Fore
SplineSet
1042 -2 m 1,0,-1
 -59 -2 l 1,1,-1
 -59 156 l 1,2,-1
 382 156 l 1,3,4
 305 304 305 304 124 330 c 1,5,-1
 124 895 l 2,6,7
 124 1015 124 1015 508 1015 c 0,8,9
 871 1015 871 1015 871 895 c 2,10,-1
 871 330 l 1,11,12
 706 306 706 306 613 156 c 1,13,-1
 1042 156 l 1,14,-1
 1042 -2 l 1,0,-1
559 156 m 1,15,-1
 559 873 l 2,16,17
 559 907 559 907 499 907 c 0,18,19
 436 907 436 907 436 873 c 2,20,-1
 436 156 l 1,21,-1
 559 156 l 1,15,-1
EndSplineSet
EndChar

StartChar: ghainisolated
Encoding: 65229 65229 164
Width: 1377
Flags: W
AnchorPoint: "ArabicBelow" 688 -833 basechar 0
AnchorPoint: "ArabicAbove" 688 1659 basechar 0
LayerCount: 2
Fore
SplineSet
1100 1355 m 2,0,-1
 1100 1247 l 2,1,2
 1100 1194 1100 1194 1045 1194 c 2,3,-1
 937 1194 l 2,4,5
 884 1194 884 1194 884 1247 c 2,6,-1
 884 1355 l 2,7,8
 884 1409 884 1409 937 1409 c 2,9,-1
 1045 1409 l 2,10,11
 1100 1409 1100 1409 1100 1355 c 2,0,-1
1373 0 m 1,12,-1
 626 0 l 2,13,14
 622 0 622 0 613.5 0.5 c 128,-1,15
 605 1 605 1 591 2 c 2,16,-1
 546 2 l 2,17,18
 286 2 286 2 306 -271 c 0,19,20
 312 -345 312 -345 404 -429 c 0,21,22
 503 -520 503 -520 650 -583 c 1,23,24
 421 -583 421 -583 246 -447 c 0,25,26
 78 -318 78 -318 78 -166 c 0,27,28
 78 12 78 12 215 87 c 0,29,30
 343 158 343 158 626 158 c 1,31,-1
 626 902 l 2,32,33
 626 1019 626 1019 993 1019 c 0,34,35
 1373 1019 1373 1019 1373 891 c 2,36,-1
 1373 508 l 1,37,38
 1159 477 1159 477 1061 348 c 1,39,-1
 1061 870 l 2,40,41
 1061 903 1061 903 999 903 c 0,42,43
 936 903 936 903 936 870 c 2,44,-1
 936 158 l 1,45,-1
 1373 158 l 1,46,-1
 1373 0 l 1,12,-1
EndSplineSet
EndChar

StartChar: ghainfinal
Encoding: 65230 65230 165
Width: 1314
Flags: W
AnchorPoint: "ArabicBelow" 657 -835 basechar 0
AnchorPoint: "ArabicAbove" 657 1656 basechar 0
LayerCount: 2
Fore
SplineSet
945 1352 m 2,0,-1
 945 1245 l 2,1,2
 945 1191 945 1191 891 1191 c 2,3,-1
 783 1191 l 2,4,5
 729 1191 729 1191 729 1245 c 2,6,-1
 729 1352 l 2,7,8
 729 1406 729 1406 783 1406 c 2,9,-1
 891 1406 l 2,10,11
 945 1406 945 1406 945 1352 c 2,0,-1
1374 -1 m 1,12,-1
 625 -1 l 1,13,-1
 609 -1 l 2,14,15
 604 -1 604 -1 598 -1 c 256,16,17
 592 -1 592 -1 585 0 c 1,18,-1
 541 0 l 2,19,20
 306 0 306 0 306 -273 c 0,21,22
 306 -345 306 -345 402 -430 c 0,23,24
 505 -524 505 -524 649 -585 c 1,25,26
 422 -585 422 -585 246 -448 c 0,27,28
 78 -319 78 -319 78 -168 c 0,29,30
 78 156 78 156 625 156 c 2,31,-1
 714 156 l 1,32,33
 637 304 637 304 456 330 c 1,34,-1
 456 896 l 2,35,36
 456 1016 456 1016 840 1016 c 0,37,38
 1203 1016 1203 1016 1203 896 c 2,39,-1
 1203 330 l 1,40,41
 1038 306 1038 306 945 156 c 1,42,-1
 1374 156 l 1,43,-1
 1374 -1 l 1,12,-1
891 156 m 1,44,-1
 891 873 l 2,45,46
 891 908 891 908 831 908 c 0,47,48
 768 908 768 908 768 873 c 2,49,-1
 768 156 l 1,50,-1
 891 156 l 1,44,-1
EndSplineSet
EndChar

StartChar: ghaininitial
Encoding: 65231 65231 166
Width: 873
Flags: W
AnchorPoint: "ArabicBelow" 436 -251 basechar 0
AnchorPoint: "ArabicAbove" 436 1654 basechar 0
LayerCount: 2
Fore
SplineSet
871 -1 m 1,0,-1
 -60 -1 l 1,1,-1
 -60 156 l 1,2,-1
 124 156 l 1,3,-1
 124 899 l 2,4,5
 124 1016 124 1016 492 1016 c 0,6,7
 871 1016 871 1016 871 890 c 2,8,-1
 871 505 l 1,9,10
 656 475 656 475 559 346 c 1,11,-1
 559 869 l 2,12,13
 559 902 559 902 496 902 c 0,14,15
 435 902 435 902 435 869 c 2,16,-1
 435 156 l 1,17,-1
 871 156 l 1,18,-1
 871 -1 l 1,0,-1
610 1351 m 2,19,-1
 610 1244 l 2,20,21
 610 1190 610 1190 555 1190 c 2,22,-1
 447 1190 l 2,23,24
 394 1190 394 1190 394 1244 c 2,25,-1
 394 1351 l 2,26,27
 394 1404 394 1404 447 1404 c 2,28,-1
 555 1404 l 2,29,30
 610 1404 610 1404 610 1351 c 2,19,-1
EndSplineSet
EndChar

StartChar: ghainmedial
Encoding: 65232 65232 167
Width: 982
Flags: W
AnchorPoint: "ArabicBelow" 491 -252 basechar 0
AnchorPoint: "ArabicAbove" 491 1655 basechar 0
LayerCount: 2
Fore
SplineSet
610 1352 m 2,0,-1
 610 1245 l 2,1,2
 610 1191 610 1191 555 1191 c 2,3,-1
 447 1191 l 2,4,5
 394 1191 394 1191 394 1245 c 2,6,-1
 394 1352 l 2,7,8
 394 1405 394 1405 447 1405 c 2,9,-1
 555 1405 l 2,10,11
 610 1405 610 1405 610 1352 c 2,0,-1
1042 -2 m 1,12,-1
 -59 -2 l 1,13,-1
 -59 156 l 1,14,-1
 382 156 l 1,15,16
 305 304 305 304 124 330 c 1,17,-1
 124 895 l 2,18,19
 124 1015 124 1015 508 1015 c 0,20,21
 871 1015 871 1015 871 895 c 2,22,-1
 871 330 l 1,23,24
 706 306 706 306 613 156 c 1,25,-1
 1042 156 l 1,26,-1
 1042 -2 l 1,12,-1
559 156 m 1,27,-1
 559 873 l 2,28,29
 559 907 559 907 499 907 c 0,30,31
 436 907 436 907 436 873 c 2,32,-1
 436 156 l 1,33,-1
 559 156 l 1,27,-1
EndSplineSet
EndChar

StartChar: fehisolated
Encoding: 65233 65233 168
Width: 1491
Flags: W
AnchorPoint: "ArabicBelow" 745 -250 basechar 0
AnchorPoint: "ArabicAbove" 745 1639 basechar 0
LayerCount: 2
Fore
SplineSet
1215 1335 m 2,0,-1
 1215 1227 l 2,1,2
 1215 1174 1215 1174 1160 1174 c 2,3,-1
 1052 1174 l 2,4,5
 999 1174 999 1174 999 1227 c 2,6,-1
 999 1335 l 2,7,8
 999 1389 999 1389 1052 1389 c 2,9,-1
 1160 1389 l 2,10,11
 1215 1389 1215 1389 1215 1335 c 2,0,-1
1491 0 m 1,12,-1
 78 0 l 1,13,-1
 78 884 l 2,14,15
 78 1018 78 1018 168 1065 c 0,16,17
 242 1103 242 1103 497 1131 c 1,18,19
 423 1092 423 1092 404 1052 c 0,20,21
 390 1026 390 1026 390 954 c 2,22,-1
 390 158 l 1,23,-1
 746 158 l 1,24,-1
 746 853 l 2,25,26
 746 970 746 970 1112 970 c 0,27,28
 1491 970 1491 970 1491 843 c 2,29,-1
 1491 0 l 1,12,-1
1179 158 m 1,30,-1
 1179 843 l 2,31,32
 1179 867 1179 867 1118 868 c 0,33,34
 1055 871 1055 871 1055 843 c 2,35,-1
 1055 158 l 1,36,-1
 1179 158 l 1,30,-1
EndSplineSet
EndChar

StartChar: fehfinal
Encoding: 65234 65234 169
Width: 1626
Flags: W
AnchorPoint: "ArabicBelow" 813 -252 basechar 0
AnchorPoint: "ArabicAbove" 813 1635 basechar 0
LayerCount: 2
Fore
SplineSet
1215 1332 m 2,0,-1
 1215 1225 l 2,1,2
 1215 1171 1215 1171 1160 1171 c 2,3,-1
 1052 1171 l 2,4,5
 999 1171 999 1171 999 1225 c 2,6,-1
 999 1332 l 2,7,8
 999 1385 999 1385 1052 1385 c 2,9,-1
 1160 1385 l 2,10,11
 1215 1385 1215 1385 1215 1332 c 2,0,-1
1691 -2 m 1,12,-1
 78 -2 l 1,13,-1
 78 882 l 2,14,15
 78 1015 78 1015 168 1063 c 0,16,17
 242 1099 242 1099 497 1129 c 1,18,19
 422 1091 422 1091 402 1048 c 0,20,21
 390 1024 390 1024 390 951 c 2,22,-1
 390 156 l 1,23,-1
 746 156 l 1,24,-1
 746 851 l 2,25,26
 746 968 746 968 1112 968 c 0,27,28
 1491 968 1491 968 1491 841 c 2,29,-1
 1491 156 l 1,30,-1
 1691 156 l 1,31,-1
 1691 -2 l 1,12,-1
1179 156 m 1,32,-1
 1179 841 l 2,33,34
 1179 865 1179 865 1118 866 c 0,35,36
 1055 867 1055 867 1055 841 c 2,37,-1
 1055 156 l 1,38,-1
 1179 156 l 1,32,-1
EndSplineSet
EndChar

StartChar: fehinitial
Encoding: 65235 65235 170
Width: 872
Flags: W
AnchorPoint: "ArabicBelow" 436 -252 basechar 0
AnchorPoint: "ArabicAbove" 436 1655 basechar 0
LayerCount: 2
Fore
SplineSet
597 1352 m 2,0,-1
 597 1245 l 2,1,2
 597 1191 597 1191 542 1191 c 2,3,-1
 434 1191 l 2,4,5
 380 1191 380 1191 380 1245 c 2,6,-1
 380 1352 l 2,7,8
 380 1405 380 1405 434 1405 c 2,9,-1
 542 1405 l 2,10,11
 597 1405 597 1405 597 1352 c 2,0,-1
873 -2 m 1,12,-1
 -60 -2 l 1,13,-1
 -60 156 l 1,14,-1
 126 156 l 1,15,-1
 126 901 l 2,16,17
 126 1018 126 1018 494 1018 c 0,18,19
 873 1018 873 1018 873 891 c 2,20,-1
 873 -2 l 1,12,-1
561 156 m 1,21,-1
 561 891 l 2,22,23
 561 915 561 915 500 916 c 0,24,25
 437 917 437 917 437 891 c 2,26,-1
 437 156 l 1,27,-1
 561 156 l 1,21,-1
EndSplineSet
EndChar

StartChar: fehmedial
Encoding: 65236 65236 171
Width: 1013
Flags: W
AnchorPoint: "ArabicBelow" 506 -252 basechar 0
AnchorPoint: "ArabicAbove" 506 1665 basechar 0
LayerCount: 2
Fore
SplineSet
597 1362 m 2,0,-1
 597 1255 l 2,1,2
 597 1201 597 1201 542 1201 c 2,3,-1
 434 1201 l 2,4,5
 380 1201 380 1201 380 1255 c 2,6,-1
 380 1362 l 2,7,8
 380 1415 380 1415 434 1415 c 2,9,-1
 542 1415 l 2,10,11
 597 1415 597 1415 597 1362 c 2,0,-1
1071 -2 m 1,12,-1
 -60 -2 l 1,13,-1
 -60 156 l 1,14,-1
 126 156 l 1,15,-1
 126 911 l 2,16,17
 126 1028 126 1028 494 1028 c 0,18,19
 873 1028 873 1028 873 901 c 2,20,-1
 873 156 l 1,21,-1
 1071 156 l 1,22,-1
 1071 -2 l 1,12,-1
561 156 m 1,23,-1
 561 901 l 2,24,25
 561 925 561 925 500 926 c 0,26,27
 437 927 437 927 437 901 c 2,28,-1
 437 156 l 1,29,-1
 561 156 l 1,23,-1
EndSplineSet
EndChar

StartChar: qafisolated
Encoding: 65237 65237 172
Width: 1331
Flags: W
AnchorPoint: "ArabicBelow" 665 -463 basechar 0
AnchorPoint: "ArabicAbove" 665 1648 basechar 0
LayerCount: 2
Fore
SplineSet
1185 1344 m 2,0,-1
 1185 1237 l 2,1,2
 1185 1184 1185 1184 1131 1184 c 2,3,-1
 1023 1184 l 2,4,5
 969 1184 969 1184 969 1237 c 2,6,-1
 969 1344 l 2,7,8
 969 1398 969 1398 1023 1398 c 2,9,-1
 1131 1398 l 2,10,11
 1185 1398 1185 1398 1185 1344 c 2,0,-1
935 1344 m 2,12,-1
 935 1237 l 2,13,14
 935 1184 935 1184 880 1184 c 2,15,-1
 771 1184 l 2,16,17
 717 1184 717 1184 717 1237 c 2,18,-1
 717 1344 l 2,19,20
 717 1398 717 1398 771 1398 c 2,21,-1
 880 1398 l 2,22,23
 935 1398 935 1398 935 1344 c 2,12,-1
1331 19 m 2,24,25
 1331 -89 1331 -89 1130 -155 c 0,26,27
 949 -213 949 -213 689 -213 c 0,28,29
 438 -213 438 -213 267 -156 c 0,30,31
 78 -92 78 -92 78 19 c 2,32,-1
 78 940 l 2,33,34
 78 1067 78 1067 260 1102 c 0,35,36
 317 1111 317 1111 527 1111 c 1,37,38
 482 1105 482 1105 435 1072 c 0,39,40
 389 1039 389 1039 389 999 c 2,41,-1
 389 4 l 2,42,43
 389 -93 389 -93 690 -93 c 0,44,45
 1001 -93 1001 -93 1001 0 c 1,46,-1
 584 0 l 1,47,-1
 584 853 l 2,48,49
 584 970 584 970 950 970 c 0,50,51
 1331 970 1331 970 1331 842 c 2,52,-1
 1331 19 l 2,24,25
1019 157 m 1,53,-1
 1019 842 l 2,54,55
 1019 866 1019 866 956 868 c 0,56,57
 893 871 893 871 893 842 c 2,58,-1
 893 157 l 1,59,-1
 1019 157 l 1,53,-1
EndSplineSet
EndChar

StartChar: qaffinal
Encoding: 65238 65238 173
Width: 1451
Flags: W
AnchorPoint: "ArabicBelow" 725 -463 basechar 0
AnchorPoint: "ArabicAbove" 725 1646 basechar 0
LayerCount: 2
Fore
SplineSet
1185 1342 m 2,0,-1
 1185 1235 l 2,1,2
 1185 1181 1185 1181 1131 1181 c 2,3,-1
 1023 1181 l 2,4,5
 969 1181 969 1181 969 1235 c 2,6,-1
 969 1342 l 2,7,8
 969 1396 969 1396 1023 1396 c 2,9,-1
 1131 1396 l 2,10,11
 1185 1396 1185 1396 1185 1342 c 2,0,-1
935 1342 m 2,12,-1
 935 1235 l 2,13,14
 935 1181 935 1181 880 1181 c 2,15,-1
 771 1181 l 2,16,17
 717 1181 717 1181 717 1235 c 2,18,-1
 717 1342 l 2,19,20
 717 1396 717 1396 771 1396 c 2,21,-1
 880 1396 l 2,22,23
 935 1396 935 1396 935 1342 c 2,12,-1
1509 -1 m 1,24,-1
 1328 -1 l 1,25,26
 1305 -99 1305 -99 1106 -157 c 0,27,28
 921 -213 921 -213 681 -213 c 0,29,30
 434 -213 434 -213 266 -156 c 0,31,32
 78 -91 78 -91 78 18 c 2,33,-1
 78 938 l 2,34,35
 78 1067 78 1067 260 1100 c 0,36,37
 316 1110 316 1110 527 1110 c 1,38,39
 482 1104 482 1104 435 1071 c 0,40,41
 389 1038 389 1038 389 996 c 2,42,-1
 389 2 l 2,43,44
 389 -96 389 -96 690 -96 c 0,45,46
 1001 -96 1001 -96 1001 -1 c 1,47,-1
 584 -1 l 1,48,-1
 584 852 l 2,49,50
 584 969 584 969 950 969 c 0,51,52
 1331 969 1331 969 1331 841 c 2,53,-1
 1331 156 l 1,54,-1
 1509 156 l 1,55,-1
 1509 -1 l 1,24,-1
1019 156 m 1,56,-1
 1019 841 l 2,57,58
 1019 865 1019 865 956 867 c 0,59,60
 893 868 893 868 893 841 c 2,61,-1
 893 156 l 1,62,-1
 1019 156 l 1,56,-1
EndSplineSet
EndChar

StartChar: qafinitial
Encoding: 65239 65239 174
Width: 872
Flags: W
AnchorPoint: "ArabicBelow" 436 -252 basechar 0
AnchorPoint: "ArabicAbove" 436 1655 basechar 0
LayerCount: 2
Fore
SplineSet
729 1352 m 2,0,-1
 729 1245 l 2,1,2
 729 1191 729 1191 674 1191 c 2,3,-1
 566 1191 l 2,4,5
 513 1191 513 1191 513 1245 c 2,6,-1
 513 1352 l 2,7,8
 513 1405 513 1405 566 1405 c 2,9,-1
 674 1405 l 2,10,11
 729 1405 729 1405 729 1352 c 2,0,-1
477 1352 m 2,12,-1
 477 1245 l 2,13,14
 477 1191 477 1191 423 1191 c 2,15,-1
 315 1191 l 2,16,17
 261 1191 261 1191 261 1245 c 2,18,-1
 261 1352 l 2,19,20
 261 1405 261 1405 315 1405 c 2,21,-1
 423 1405 l 2,22,23
 477 1405 477 1405 477 1352 c 2,12,-1
873 -2 m 1,24,-1
 -60 -2 l 1,25,-1
 -60 156 l 1,26,-1
 126 156 l 1,27,-1
 126 901 l 2,28,29
 126 1018 126 1018 494 1018 c 0,30,31
 873 1018 873 1018 873 891 c 2,32,-1
 873 -2 l 1,24,-1
561 156 m 1,33,-1
 561 891 l 2,34,35
 561 915 561 915 500 916 c 0,36,37
 437 917 437 917 437 891 c 2,38,-1
 437 156 l 1,39,-1
 561 156 l 1,33,-1
EndSplineSet
EndChar

StartChar: qafmedial
Encoding: 65240 65240 175
Width: 1013
Flags: W
AnchorPoint: "ArabicBelow" 506 -252 basechar 0
AnchorPoint: "ArabicAbove" 506 1655 basechar 0
LayerCount: 2
Fore
SplineSet
729 1352 m 2,0,-1
 729 1245 l 2,1,2
 729 1191 729 1191 674 1191 c 2,3,-1
 566 1191 l 2,4,5
 513 1191 513 1191 513 1245 c 2,6,-1
 513 1352 l 2,7,8
 513 1405 513 1405 566 1405 c 2,9,-1
 674 1405 l 2,10,11
 729 1405 729 1405 729 1352 c 2,0,-1
477 1352 m 2,12,-1
 477 1245 l 2,13,14
 477 1191 477 1191 423 1191 c 2,15,-1
 315 1191 l 2,16,17
 261 1191 261 1191 261 1245 c 2,18,-1
 261 1352 l 2,19,20
 261 1405 261 1405 315 1405 c 2,21,-1
 423 1405 l 2,22,23
 477 1405 477 1405 477 1352 c 2,12,-1
1071 -2 m 1,24,-1
 -60 -2 l 1,25,-1
 -60 156 l 1,26,-1
 126 156 l 1,27,-1
 126 901 l 2,28,29
 126 1018 126 1018 494 1018 c 0,30,31
 873 1018 873 1018 873 891 c 2,32,-1
 873 156 l 1,33,-1
 1071 156 l 1,34,-1
 1071 -2 l 1,24,-1
561 156 m 1,35,-1
 561 891 l 2,36,37
 561 915 561 915 500 916 c 0,38,39
 437 917 437 917 437 891 c 2,40,-1
 437 156 l 1,41,-1
 561 156 l 1,35,-1
EndSplineSet
EndChar

StartChar: kafisolated
Encoding: 65241 65241 176
Width: 1475
Flags: W
AnchorPoint: "ArabicBelow" 737 -250 basechar 0
AnchorPoint: "ArabicAbove" 737 2137 basechar 0
LayerCount: 2
Fore
SplineSet
78 0 m 1,0,-1
 78 783 l 2,1,2
 78 918 78 918 168 965 c 0,3,4
 242 1003 242 1003 497 1031 c 1,5,6
 417 987 417 987 399 948 c 0,7,8
 390 928 390 928 390 854 c 2,9,-1
 390 157 l 1,10,-1
 1163 157 l 1,11,-1
 1163 1727 l 1,12,13
 1358 1754 1358 1754 1475 1887 c 1,14,-1
 1475 0 l 1,15,-1
 78 0 l 1,0,-1
633 611 m 1,16,17
 565 623 565 623 552 758 c 1,18,19
 603 662 603 662 716 686 c 1,20,-1
 716 823 l 2,21,22
 716 884 716 884 837 884 c 0,23,24
 954 884 954 884 954 827 c 2,25,-1
 954 799 l 1,26,27
 913 784 913 784 863 716 c 1,28,-1
 863 806 l 2,29,30
 863 824 863 824 839 824 c 0,31,32
 806 824 806 824 806 806 c 2,33,-1
 806 694 l 1,34,-1
 974 694 l 1,35,-1
 974 611 l 1,36,-1
 633 611 l 1,16,17
EndSplineSet
EndChar

StartChar: arabickaffinal
Encoding: 65242 65242 177
Width: 1608
Flags: W
AnchorPoint: "ArabicBelow" 804 -251 basechar 0
AnchorPoint: "ArabicAbove" 804 2136 basechar 0
LayerCount: 2
Fore
SplineSet
78 -1 m 1,0,-1
 78 782 l 2,1,2
 78 916 78 916 168 964 c 0,3,4
 242 1000 242 1000 497 1030 c 1,5,6
 417 986 417 986 399 947 c 0,7,8
 390 927 390 927 390 851 c 2,9,-1
 390 156 l 1,10,-1
 1163 156 l 1,11,-1
 1163 1724 l 1,12,13
 1355 1751 1355 1751 1472 1883 c 2,14,-1
 1475 1886 l 1,15,-1
 1475 156 l 1,16,-1
 1667 156 l 1,17,-1
 1667 -1 l 1,18,-1
 78 -1 l 1,0,-1
633 610 m 1,19,20
 566 622 566 622 552 756 c 1,21,22
 603 661 603 661 716 684 c 1,23,-1
 716 820 l 2,24,25
 716 883 716 883 837 883 c 0,26,27
 954 883 954 883 954 826 c 2,28,-1
 954 798 l 1,29,30
 934 790 934 790 911 769.5 c 128,-1,31
 888 749 888 749 863 715 c 1,32,-1
 863 805 l 2,33,34
 863 823 863 823 839 823 c 0,35,36
 806 823 806 823 806 805 c 2,37,-1
 806 691 l 1,38,-1
 974 691 l 1,39,-1
 974 610 l 1,40,-1
 633 610 l 1,19,20
EndSplineSet
EndChar

StartChar: kafinitial
Encoding: 65243 65243 178
Width: 711
Flags: W
AnchorPoint: "ArabicBelow" 355 -251 basechar 0
AnchorPoint: "ArabicAbove" 355 2167 basechar 0
LayerCount: 2
Fore
SplineSet
-58 -1 m 1,0,-1
 -58 156 l 1,1,-1
 399 156 l 1,2,-1
 399 279 l 2,3,4
 399 412 399 412 312 517 c 0,5,6
 226 625 226 625 125 625 c 1,7,-1
 125 789 l 1,8,-1
 710 1917 l 1,9,-1
 710 1360 l 1,10,-1
 396 748 l 1,11,12
 710 644 710 644 710 294 c 2,13,-1
 710 -1 l 1,14,-1
 -58 -1 l 1,0,-1
EndSplineSet
EndChar

StartChar: kafmedial
Encoding: 65244 65244 179
Width: 846
Flags: W
AnchorPoint: "ArabicBelow" 423 -251 basechar 0
AnchorPoint: "ArabicAbove" 423 2157 basechar 0
LayerCount: 2
Fore
SplineSet
904 -1 m 1,0,-1
 -59 -1 l 1,1,-1
 -59 156 l 1,2,-1
 399 156 l 1,3,-1
 399 269 l 2,4,5
 399 401 399 401 312 508 c 0,6,7
 226 615 226 615 124 615 c 1,8,-1
 124 779 l 1,9,-1
 711 1907 l 1,10,-1
 711 1350 l 1,11,-1
 396 738 l 1,12,13
 709 635 709 635 709 284 c 2,14,-1
 709 156 l 1,15,-1
 904 156 l 1,16,-1
 904 -1 l 1,0,-1
EndSplineSet
EndChar

StartChar: lamisolated
Encoding: 65245 65245 180
Width: 891
Flags: W
AnchorPoint: "ArabicBelow" 445 -460 basechar 0
AnchorPoint: "ArabicAbove" 445 2117 basechar 0
LayerCount: 2
Fore
SplineSet
891 -53 m 2,0,1
 891 -129 891 -129 767 -171 c 0,2,3
 653 -210 653 -210 489 -210 c 0,4,5
 324 -210 324 -210 207 -171 c 0,6,7
 78 -128 78 -128 78 -54 c 2,8,-1
 78 490 l 2,9,10
 78 617 78 617 260 652 c 0,11,12
 317 661 317 661 522 661 c 1,13,14
 477 652 477 652 435 622 c 0,15,16
 389 589 389 589 389 549 c 2,17,-1
 389 -35 l 2,18,19
 389 -99 389 -99 488 -99 c 0,20,21
 581 -99 581 -99 581 -35 c 2,22,-1
 581 1706 l 1,23,24
 772 1733 772 1733 891 1867 c 1,25,-1
 891 -53 l 2,0,1
EndSplineSet
EndChar

StartChar: lamfinal
Encoding: 65246 65246 181
Width: 1027
Flags: W
AnchorPoint: "ArabicBelow" 513 -463 basechar 0
AnchorPoint: "ArabicAbove" 513 2127 basechar 0
LayerCount: 2
Fore
SplineSet
891 -2 m 1,0,-1
 891 -54 l 2,1,2
 891 -130 891 -130 766 -174 c 0,3,4
 652 -213 652 -213 489 -213 c 0,5,6
 324 -213 324 -213 207 -174 c 0,7,8
 78 -129 78 -129 78 -57 c 2,9,-1
 78 487 l 2,10,11
 78 616 78 616 259 649 c 0,12,13
 288 654 288 654 353.5 657 c 128,-1,14
 419 660 419 660 525 660 c 1,15,16
 480 652 480 652 435 621 c 0,17,18
 388 588 388 588 388 546 c 2,19,-1
 388 -38 l 2,20,21
 388 -102 388 -102 487 -102 c 0,22,23
 580 -102 580 -102 580 -38 c 2,24,-1
 580 1718 l 1,25,26
 774 1745 774 1745 891 1877 c 1,27,-1
 891 1875 l 1,28,-1
 891 156 l 1,29,-1
 1086 156 l 1,30,-1
 1086 -2 l 1,31,-1
 891 -2 l 1,0,-1
EndSplineSet
EndChar

StartChar: laminitial
Encoding: 65247 65247 182
Width: 444
Flags: W
AnchorPoint: "ArabicBelow" 222 -252 basechar 0
AnchorPoint: "ArabicAbove" 222 2137 basechar 0
LayerCount: 2
Fore
SplineSet
-57 -2 m 1,0,-1
 -57 156 l 1,1,-1
 135 156 l 1,2,-1
 135 1727 l 1,3,4
 327 1755 327 1755 444 1887 c 1,5,-1
 444 -2 l 1,6,-1
 -57 -2 l 1,0,-1
EndSplineSet
EndChar

StartChar: lammedial
Encoding: 65248 65248 183
Width: 585
Flags: W
AnchorPoint: "ArabicBelow" 292 -252 basechar 0
AnchorPoint: "ArabicAbove" 292 2147 basechar 0
LayerCount: 2
Fore
SplineSet
-57 -2 m 1,0,-1
 -57 156 l 1,1,-1
 135 156 l 1,2,-1
 135 1738 l 1,3,4
 324 1765 324 1765 444 1897 c 1,5,-1
 444 1895 l 1,6,-1
 444 156 l 1,7,-1
 639 156 l 1,8,-1
 639 -2 l 1,9,-1
 -57 -2 l 1,0,-1
EndSplineSet
EndChar

StartChar: meemisolated
Encoding: 65249 65249 184
Width: 942
Flags: W
AnchorPoint: "ArabicBelow" 471 -850 basechar 0
AnchorPoint: "ArabicAbove" 471 1278 basechar 0
LayerCount: 2
Fore
SplineSet
945 0 m 1,0,-1
 389 0 l 1,1,-1
 389 -441 l 1,2,3
 185 -469 185 -469 78 -600 c 1,4,-1
 78 157 l 1,5,-1
 200 157 l 1,6,-1
 200 1028 l 1,7,-1
 814 1028 l 2,8,9
 828 1028 828 1028 858 1020 c 0,10,11
 945 994 945 994 945 891 c 2,12,-1
 945 0 l 1,0,-1
633 157 m 1,13,-1
 633 852 l 2,14,15
 633 927 633 927 509 927 c 1,16,-1
 509 157 l 1,17,-1
 633 157 l 1,13,-1
EndSplineSet
EndChar

StartChar: meemfinal
Encoding: 65250 65250 185
Width: 1081
Flags: W
AnchorPoint: "ArabicBelow" 540 -853 basechar 0
AnchorPoint: "ArabicAbove" 540 1256 basechar 0
LayerCount: 2
Fore
SplineSet
1140 -2 m 1,0,-1
 388 -2 l 1,1,-1
 388 -443 l 1,2,3
 184 -473 184 -473 78 -603 c 1,4,-1
 78 156 l 1,5,-1
 199 156 l 1,6,-1
 199 1006 l 1,7,-1
 793 1006 l 2,8,9
 834 1006 834 1006 858 999 c 0,10,11
 945 973 945 973 945 870 c 2,12,-1
 945 156 l 1,13,-1
 1140 156 l 1,14,-1
 1140 -2 l 1,0,-1
633 156 m 1,15,-1
 633 831 l 2,16,17
 633 904 633 904 508 904 c 1,18,-1
 508 156 l 1,19,-1
 633 156 l 1,15,-1
EndSplineSet
EndChar

StartChar: meeminitial
Encoding: 65251 65251 186
Width: 872
Flags: W
AnchorPoint: "ArabicBelow" 436 -251 basechar 0
AnchorPoint: "ArabicAbove" 436 1257 basechar 0
LayerCount: 2
Fore
SplineSet
872 -1 m 1,0,-1
 -58 -1 l 1,1,-1
 -58 156 l 1,2,-1
 125 156 l 1,3,-1
 125 1007 l 1,4,-1
 630 1007 l 2,5,6
 753 1007 753 1007 785 999 c 0,7,8
 872 973 872 973 872 870 c 2,9,-1
 872 -1 l 1,0,-1
560 156 m 1,10,-1
 560 831 l 2,11,12
 560 905 560 905 435 905 c 1,13,-1
 435 156 l 1,14,-1
 560 156 l 1,10,-1
EndSplineSet
EndChar

StartChar: meemmedial
Encoding: 65252 65252 187
Width: 1008
Flags: W
AnchorPoint: "ArabicBelow" 504 -251 basechar 0
AnchorPoint: "ArabicAbove" 504 1267 basechar 0
LayerCount: 2
Fore
SplineSet
1066 -1 m 1,0,-1
 -59 -1 l 1,1,-1
 -59 156 l 1,2,-1
 124 156 l 1,3,-1
 124 1017 l 1,4,-1
 630 1017 l 2,5,6
 752 1017 752 1017 784 1009 c 0,7,8
 871 983 871 983 871 880 c 2,9,-1
 871 156 l 1,10,-1
 1066 156 l 1,11,-1
 1066 -1 l 1,0,-1
559 156 m 1,12,-1
 559 841 l 2,13,14
 559 915 559 915 435 915 c 1,15,-1
 435 156 l 1,16,-1
 559 156 l 1,12,-1
EndSplineSet
EndChar

StartChar: noonisolated
Encoding: 65253 65253 188
Width: 891
Flags: W
AnchorPoint: "ArabicBelow" 445 -460 basechar 0
AnchorPoint: "ArabicAbove" 445 1659 basechar 0
LayerCount: 2
Fore
SplineSet
891 -49 m 2,0,1
 891 -127 891 -127 765 -169 c 0,2,3
 648 -210 648 -210 486 -210 c 0,4,5
 321 -210 321 -210 204 -171 c 0,6,7
 78 -128 78 -128 78 -54 c 2,8,-1
 78 941 l 2,9,10
 78 1068 78 1068 260 1103 c 0,11,12
 317 1112 317 1112 525 1112 c 1,13,14
 480 1104 480 1104 435 1073 c 0,15,16
 389 1040 389 1040 389 999 c 2,17,-1
 389 -34 l 2,18,19
 389 -99 389 -99 488 -99 c 0,20,21
 581 -99 581 -99 579 -34 c 2,22,-1
 579 814 l 1,23,24
 774 841 774 841 891 975 c 1,25,-1
 891 -49 l 2,0,1
617 1247 m 2,26,27
 617 1194 617 1194 561 1194 c 2,28,-1
 453 1194 l 2,29,30
 399 1194 399 1194 399 1247 c 2,31,-1
 399 1353 l 2,32,33
 399 1409 399 1409 453 1409 c 2,34,-1
 561 1409 l 2,35,36
 617 1409 617 1409 617 1353 c 2,37,-1
 617 1247 l 2,26,27
EndSplineSet
EndChar

StartChar: noonfinal
Encoding: 65254 65254 189
Width: 1027
Flags: W
AnchorPoint: "ArabicBelow" 513 -463 basechar 0
AnchorPoint: "ArabicAbove" 513 1656 basechar 0
LayerCount: 2
Fore
SplineSet
891 -1 m 1,0,-1
 891 -51 l 2,1,2
 891 -129 891 -129 765 -171 c 0,3,4
 651 -213 651 -213 486 -213 c 256,5,6
 321 -213 321 -213 204 -174 c 0,7,8
 78 -129 78 -129 78 -57 c 2,9,-1
 78 938 l 2,10,11
 78 1067 78 1067 259 1100 c 0,12,13
 315 1110 315 1110 525 1110 c 1,14,15
 480 1102 480 1102 435 1071 c 0,16,17
 388 1038 388 1038 388 996 c 2,18,-1
 388 -37 l 2,19,20
 388 -102 388 -102 487 -102 c 0,21,22
 581 -102 581 -102 579 -37 c 2,23,-1
 579 816 l 1,24,25
 774 843 774 843 891 976 c 1,26,-1
 891 156 l 1,27,-1
 1086 156 l 1,28,-1
 1086 -1 l 1,29,-1
 891 -1 l 1,0,-1
616 1244 m 2,30,31
 616 1191 616 1191 561 1191 c 2,32,-1
 453 1191 l 2,33,34
 399 1191 399 1191 399 1244 c 2,35,-1
 399 1352 l 2,36,37
 399 1406 399 1406 453 1406 c 2,38,-1
 561 1406 l 2,39,40
 616 1406 616 1406 616 1352 c 2,41,-1
 616 1244 l 2,30,31
EndSplineSet
EndChar

StartChar: nooninitial
Encoding: 65255 65255 190
Width: 441
Flags: W
AnchorPoint: "ArabicBelow" 220 -251 basechar 0
AnchorPoint: "ArabicAbove" 220 1617 basechar 0
LayerCount: 2
Fore
SplineSet
-58 -1 m 1,0,-1
 -58 156 l 1,1,-1
 123 156 l 1,2,-1
 123 860 l 1,3,4
 318 888 318 888 435 1020 c 1,5,-1
 435 -1 l 1,6,-1
 -58 -1 l 1,0,-1
392 1205 m 2,7,8
 392 1152 392 1152 338 1152 c 2,9,-1
 228 1152 l 2,10,11
 176 1152 176 1152 176 1205 c 2,12,-1
 176 1313 l 2,13,14
 176 1367 176 1367 228 1367 c 2,15,-1
 338 1367 l 2,16,17
 392 1367 392 1367 392 1313 c 2,18,-1
 392 1205 l 2,7,8
EndSplineSet
EndChar

StartChar: noonmedial
Encoding: 65256 65256 191
Width: 566
Flags: W
AnchorPoint: "ArabicBelow" 283 -252 basechar 0
AnchorPoint: "ArabicAbove" 283 1619 basechar 0
LayerCount: 2
Fore
SplineSet
-58 -2 m 1,0,-1
 -58 156 l 1,1,-1
 126 156 l 1,2,-1
 126 865 l 1,3,4
 316 892 316 892 435 1020 c 1,5,-1
 435 156 l 1,6,-1
 620 156 l 1,7,-1
 620 -2 l 1,8,-1
 -58 -2 l 1,0,-1
392 1207 m 2,9,10
 392 1155 392 1155 338 1155 c 2,11,-1
 228 1155 l 2,12,13
 176 1155 176 1155 176 1207 c 2,14,-1
 176 1314 l 2,15,16
 176 1369 176 1369 228 1369 c 2,17,-1
 338 1369 l 2,18,19
 392 1369 392 1369 392 1314 c 2,20,-1
 392 1207 l 2,9,10
435 1020 m 1,21,22
 436 1024 436 1024 438 1026 c 1,23,-1
 435 1020 l 1,21,22
EndSplineSet
EndChar

StartChar: hehisolated
Encoding: 65257 65257 192
Width: 825
Flags: W
AnchorPoint: "ArabicBelow" 412 -250 basechar 0
AnchorPoint: "ArabicAbove" 412 1275 basechar 0
LayerCount: 2
Fore
SplineSet
825 0 m 1,0,-1
 78 0 l 1,1,-1
 78 872 l 2,2,3
 78 1025 78 1025 320 1025 c 2,4,-1
 825 1025 l 1,5,-1
 825 0 l 1,0,-1
513 158 m 1,6,-1
 513 908 l 1,7,8
 478 908 478 908 435 888 c 0,9,10
 389 864 389 864 389 833 c 2,11,-1
 389 158 l 1,12,-1
 513 158 l 1,6,-1
EndSplineSet
EndChar

StartChar: hehfinal
Encoding: 65258 65258 193
Width: 964
Flags: W
AnchorPoint: "ArabicBelow" 482 -252 basechar 0
AnchorPoint: "ArabicAbove" 482 1271 basechar 0
LayerCount: 2
Fore
SplineSet
1020 -2 m 1,0,-1
 78 -2 l 1,1,-1
 78 870 l 2,2,3
 78 1021 78 1021 319 1021 c 2,4,-1
 825 1021 l 1,5,-1
 825 156 l 1,6,-1
 1020 156 l 1,7,-1
 1020 -2 l 1,0,-1
513 156 m 1,8,-1
 513 904 l 1,9,10
 473 904 473 904 435 885 c 0,11,12
 388 862 388 862 388 831 c 2,13,-1
 388 156 l 1,14,-1
 513 156 l 1,8,-1
EndSplineSet
EndChar

StartChar: hehinitial
Encoding: 65259 65259 194
Width: 1306
Flags: W
AnchorPoint: "ArabicBelow" 653 -251 basechar 0
AnchorPoint: "ArabicAbove" 653 1270 basechar 0
LayerCount: 2
Fore
SplineSet
1306 -1 m 1,0,-1
 -57 -1 l 1,1,-1
 -57 156 l 1,2,-1
 124 156 l 1,3,-1
 124 839 l 2,4,5
 124 956 124 956 492 956 c 0,6,7
 871 956 871 956 871 830 c 2,8,-1
 871 156 l 1,9,-1
 996 156 l 1,10,-1
 996 854 l 2,11,12
 996 920 996 920 915 964 c 0,13,14
 832 1008 832 1008 717 1008 c 1,15,16
 784 1020 784 1020 879 1020 c 0,17,18
 1306 1020 1306 1020 1306 834 c 2,19,-1
 1306 -1 l 1,0,-1
559 156 m 1,20,-1
 559 809 l 2,21,22
 559 842 559 842 496 842 c 0,23,24
 435 842 435 842 435 809 c 2,25,-1
 435 156 l 1,26,-1
 559 156 l 1,20,-1
EndSplineSet
EndChar

StartChar: hehmedial
Encoding: 65260 65260 195
Width: 1438
Flags: W
AnchorPoint: "ArabicBelow" 719 -251 basechar 0
AnchorPoint: "ArabicAbove" 719 1270 basechar 0
LayerCount: 2
Fore
SplineSet
1497 -1 m 1,0,-1
 -57 -1 l 1,1,-1
 -57 156 l 1,2,-1
 124 156 l 1,3,-1
 124 839 l 2,4,5
 124 956 124 956 492 956 c 0,6,7
 871 956 871 956 871 830 c 2,8,-1
 871 156 l 1,9,-1
 996 156 l 1,10,-1
 996 854 l 2,11,12
 996 920 996 920 915 964 c 0,13,14
 832 1008 832 1008 717 1008 c 1,15,16
 784 1020 784 1020 879 1020 c 0,17,18
 1306 1020 1306 1020 1306 834 c 2,19,-1
 1306 156 l 1,20,-1
 1497 156 l 1,21,-1
 1497 -1 l 1,0,-1
559 156 m 1,22,-1
 559 809 l 2,23,24
 559 842 559 842 496 842 c 0,25,26
 435 842 435 842 435 809 c 2,27,-1
 435 156 l 1,28,-1
 559 156 l 1,22,-1
EndSplineSet
EndChar

StartChar: wawisolated
Encoding: 65261 65261 196
Width: 825
Flags: W
AnchorPoint: "ArabicBelow" 412 -466 basechar 0
AnchorPoint: "ArabicAbove" 412 1275 basechar 0
LayerCount: 2
Fore
SplineSet
825 0 m 2,0,1
 825 -216 825 -216 327 -216 c 0,2,3
 213 -216 213 -216 83 -135 c 1,4,5
 311 -142 311 -142 404 -109 c 0,6,7
 484 -79 484 -79 494 0 c 1,8,-1
 78 0 l 1,9,-1
 78 872 l 2,10,11
 78 1025 78 1025 320 1025 c 2,12,-1
 825 1025 l 1,13,-1
 825 0 l 2,0,1
513 158 m 1,14,-1
 513 908 l 1,15,16
 478 908 478 908 435 888 c 0,17,18
 389 864 389 864 389 833 c 2,19,-1
 389 158 l 1,20,-1
 513 158 l 1,14,-1
EndSplineSet
EndChar

StartChar: wawfinal
Encoding: 65262 65262 197
Width: 961
Flags: W
AnchorPoint: "ArabicBelow" 480 -469 basechar 0
AnchorPoint: "ArabicAbove" 480 1272 basechar 0
LayerCount: 2
Fore
SplineSet
1020 -1 m 1,0,-1
 825 -1 l 1,1,2
 825 -219 825 -219 327 -219 c 0,3,4
 213 -219 213 -219 82 -136 c 1,5,6
 316 -144 316 -144 403 -111 c 0,7,8
 483 -82 483 -82 493 -1 c 1,9,-1
 78 -1 l 1,10,-1
 78 870 l 2,11,12
 78 1022 78 1022 319 1022 c 2,13,-1
 825 1022 l 1,14,-1
 825 156 l 1,15,-1
 1020 156 l 1,16,-1
 1020 -1 l 1,0,-1
513 156 m 1,17,-1
 513 905 l 1,18,19
 478 905 478 905 435 885 c 0,20,21
 388 862 388 862 388 831 c 2,22,-1
 388 156 l 1,23,-1
 513 156 l 1,17,-1
EndSplineSet
EndChar

StartChar: alefmaksuraisolated
Encoding: 65263 65263 198
Width: 1347
Flags: W
AnchorPoint: "ArabicBelow" 673 -469 basechar 0
AnchorPoint: "ArabicAbove" 673 1412 basechar 0
LayerCount: 2
Fore
SplineSet
1347 0 m 2,0,1
 1347 -102 1347 -102 1151 -163 c 0,2,3
 968 -219 968 -219 714 -219 c 0,4,5
 455 -219 455 -219 278 -162 c 0,6,7
 78 -99 78 -99 78 8 c 2,8,-1
 78 991 l 2,9,10
 78 1118 78 1118 260 1153 c 0,11,12
 317 1162 317 1162 527 1162 c 1,13,14
 482 1156 482 1156 435 1123 c 0,15,16
 389 1090 389 1090 389 1049 c 2,17,-1
 389 9 l 2,18,19
 389 -102 389 -102 711 -102 c 0,20,21
 1038 -102 1038 -102 1038 8 c 2,22,-1
 1038 149 l 1,23,-1
 600 149 l 1,24,-1
 600 902 l 2,25,26
 600 1019 600 1019 968 1019 c 0,27,28
 1347 1019 1347 1019 1347 891 c 2,29,-1
 1347 645 l 1,30,31
 1132 615 1132 615 1035 486 c 1,32,-1
 1035 870 l 2,33,34
 1035 903 1035 903 974 903 c 0,35,36
 911 903 911 903 911 870 c 2,37,-1
 911 322 l 1,38,-1
 1347 322 l 1,39,-1
 1347 0 l 2,0,1
EndSplineSet
EndChar

StartChar: alefmaksurafinal
Encoding: 65264 65264 199
Width: 1344
Flags: W
AnchorPoint: "ArabicBelow" 672 -471 basechar 0
AnchorPoint: "ArabicAbove" 672 860 basechar 0
LayerCount: 2
Fore
SplineSet
1347 -2 m 2,0,1
 1347 -104 1347 -104 1151 -167 c 0,2,3
 971 -221 971 -221 714 -221 c 0,4,5
 455 -221 455 -221 278 -164 c 0,6,7
 78 -102 78 -102 78 6 c 2,8,-1
 78 437 l 2,9,10
 78 566 78 566 260 599 c 0,11,12
 289 604 289 604 355 607 c 128,-1,13
 421 610 421 610 527 610 c 1,14,15
 482 604 482 604 435 571 c 0,16,17
 389 538 389 538 389 496 c 2,18,-1
 389 7 l 2,19,20
 389 -50 389 -50 497 -83 c 0,21,22
 597 -113 597 -113 735 -113 c 0,23,24
 1038 -113 1038 -113 1038 -2 c 1,25,-1
 600 -2 l 1,26,-1
 600 156 l 1,27,-1
 1347 156 l 1,28,-1
 1347 -2 l 2,0,1
EndSplineSet
EndChar

StartChar: yehisolated
Encoding: 65265 65265 200
Width: 1347
Flags: W
AnchorPoint: "ArabicBelow" 673 -782 basechar 0
AnchorPoint: "ArabicAbove" 673 1412 basechar 0
LayerCount: 2
Fore
SplineSet
1347 0 m 2,0,1
 1347 -102 1347 -102 1151 -163 c 0,2,3
 968 -219 968 -219 714 -219 c 0,4,5
 455 -219 455 -219 278 -162 c 0,6,7
 78 -99 78 -99 78 8 c 2,8,-1
 78 991 l 2,9,10
 78 1118 78 1118 260 1153 c 0,11,12
 317 1162 317 1162 527 1162 c 1,13,14
 482 1156 482 1156 435 1123 c 0,15,16
 389 1090 389 1090 389 1049 c 2,17,-1
 389 9 l 2,18,19
 389 -102 389 -102 711 -102 c 0,20,21
 1038 -102 1038 -102 1038 8 c 2,22,-1
 1038 149 l 1,23,-1
 600 149 l 1,24,-1
 600 902 l 2,25,26
 600 1019 600 1019 968 1019 c 0,27,28
 1347 1019 1347 1019 1347 891 c 2,29,-1
 1347 645 l 1,30,31
 1132 615 1132 615 1035 486 c 1,32,-1
 1035 870 l 2,33,34
 1035 903 1035 903 974 903 c 0,35,36
 911 903 911 903 911 870 c 2,37,-1
 911 322 l 1,38,-1
 1347 322 l 1,39,-1
 1347 0 l 2,0,1
956 -370 m 2,40,-1
 956 -478 l 2,41,42
 956 -532 956 -532 901 -532 c 2,43,-1
 793 -532 l 2,44,45
 740 -532 740 -532 740 -478 c 2,46,-1
 740 -371 l 2,47,48
 740 -318 740 -318 793 -318 c 2,49,-1
 901 -318 l 2,50,51
 956 -318 956 -318 956 -370 c 2,40,-1
722 -370 m 2,52,-1
 722 -478 l 2,53,54
 722 -532 722 -532 667 -532 c 2,55,-1
 559 -532 l 2,56,57
 506 -532 506 -532 506 -478 c 2,58,-1
 506 -371 l 2,59,60
 506 -318 506 -318 559 -318 c 2,61,-1
 667 -318 l 2,62,63
 722 -318 722 -318 722 -370 c 2,52,-1
EndSplineSet
EndChar

StartChar: yehfinal
Encoding: 65266 65266 201
Width: 1344
Flags: W
AnchorPoint: "ArabicBelow" 672 -784 basechar 0
AnchorPoint: "ArabicAbove" 672 850 basechar 0
LayerCount: 2
Fore
SplineSet
1347 -2 m 2,0,1
 1347 -104 1347 -104 1151 -167 c 0,2,3
 971 -221 971 -221 714 -221 c 0,4,5
 455 -221 455 -221 278 -164 c 0,6,7
 78 -102 78 -102 78 6 c 2,8,-1
 78 427 l 2,9,10
 78 556 78 556 260 589 c 0,11,12
 289 594 289 594 355 597 c 128,-1,13
 421 600 421 600 527 600 c 1,14,15
 482 594 482 594 435 561 c 0,16,17
 389 528 389 528 389 486 c 2,18,-1
 389 7 l 2,19,20
 389 -50 389 -50 497 -83 c 0,21,22
 597 -113 597 -113 735 -113 c 0,23,24
 1038 -113 1038 -113 1038 -2 c 1,25,-1
 600 -2 l 1,26,-1
 600 156 l 1,27,-1
 1347 156 l 1,28,-1
 1347 -2 l 2,0,1
975 -372 m 2,29,-1
 975 -481 l 2,30,31
 975 -534 975 -534 920 -534 c 2,32,-1
 812 -534 l 2,33,34
 759 -534 759 -534 759 -481 c 2,35,-1
 759 -374 l 2,36,37
 759 -320 759 -320 812 -320 c 2,38,-1
 920 -320 l 2,39,40
 975 -320 975 -320 975 -372 c 2,29,-1
741 -372 m 2,41,-1
 741 -481 l 2,42,43
 741 -534 741 -534 686 -534 c 2,44,-1
 578 -534 l 2,45,46
 525 -534 525 -534 525 -481 c 2,47,-1
 525 -374 l 2,48,49
 525 -320 525 -320 578 -320 c 2,50,-1
 686 -320 l 2,51,52
 741 -320 741 -320 741 -372 c 2,41,-1
EndSplineSet
EndChar

StartChar: yehinitial
Encoding: 65267 65267 202
Width: 496
Flags: W
AnchorPoint: "ArabicBelow" 248 -609 basechar 0
AnchorPoint: "ArabicAbove" 248 1270 basechar 0
LayerCount: 2
Fore
SplineSet
-59 -2 m 1,0,-1
 -59 156 l 1,1,-1
 123 156 l 1,2,-1
 123 859 l 1,3,4
 318 888 318 888 435 1020 c 1,5,-1
 435 -2 l 1,6,-1
 -59 -2 l 1,0,-1
226 -305 m 2,7,8
 226 -359 226 -359 171 -359 c 2,9,-1
 63 -359 l 2,10,11
 9 -359 9 -359 9 -305 c 2,12,-1
 9 -197 l 2,13,14
 9 -144 9 -144 63 -144 c 2,15,-1
 171 -144 l 2,16,17
 226 -144 226 -144 226 -197 c 2,18,-1
 226 -305 l 2,7,8
460 -305 m 2,19,20
 460 -359 460 -359 405 -359 c 2,21,-1
 297 -359 l 2,22,23
 243 -359 243 -359 243 -305 c 2,24,-1
 243 -197 l 2,25,26
 243 -144 243 -144 297 -144 c 2,27,-1
 405 -144 l 2,28,29
 460 -144 460 -144 460 -197 c 2,30,-1
 460 -305 l 2,19,20
EndSplineSet
EndChar

StartChar: yehmedial
Encoding: 65268 65268 203
Width: 561
Flags: W
AnchorPoint: "ArabicBelow" 280 -609 basechar 0
AnchorPoint: "ArabicAbove" 280 1259 basechar 0
LayerCount: 2
Fore
SplineSet
-58 -2 m 1,0,-1
 -58 156 l 1,1,-1
 126 156 l 1,2,-1
 126 858 l 1,3,4
 315 883 315 883 435 1009 c 1,5,-1
 435 156 l 1,6,-1
 620 156 l 1,7,-1
 620 -2 l 1,8,-1
 -58 -2 l 1,0,-1
246 -305 m 2,9,10
 246 -359 246 -359 191 -359 c 2,11,-1
 83 -359 l 2,12,13
 29 -359 29 -359 29 -305 c 2,14,-1
 29 -197 l 2,15,16
 29 -144 29 -144 83 -144 c 2,17,-1
 191 -144 l 2,18,19
 246 -144 246 -144 246 -197 c 2,20,-1
 246 -305 l 2,9,10
480 -305 m 2,21,22
 480 -359 480 -359 425 -359 c 2,23,-1
 317 -359 l 2,24,25
 263 -359 263 -359 263 -305 c 2,26,-1
 263 -197 l 2,27,28
 263 -144 263 -144 317 -144 c 2,29,-1
 425 -144 l 2,30,31
 480 -144 480 -144 480 -197 c 2,32,-1
 480 -305 l 2,21,22
EndSplineSet
EndChar

StartChar: lamwithalefmaddaaboveisolatedd
Encoding: 65269 65269 204
Width: 1000
Flags: W
AnchorPoint: "ArabicBelowLigature" 300 -100 baselig 1
AnchorPoint: "ArabicBelowLigature" 700 -100 baselig 0
AnchorPoint: "ArabicAboveLigature" 300 2125 baselig 1
AnchorPoint: "ArabicAboveLigature" 700 2125 baselig 0
LayerCount: 2
Fore
SplineSet
799 2025 m 1,0,1
 799 1880 799 1880 789 1856 c 0,2,3
 759 1772 759 1772 628 1772 c 2,4,-1
 313 1772 l 2,5,6
 273 1772 273 1772 240 1725 c 0,7,8
 207 1679 207 1679 201 1634 c 1,9,10
 201 1776 201 1776 210 1805 c 0,11,12
 241 1887 241 1887 372 1887 c 2,13,-1
 687 1887 l 2,14,15
 727 1887 727 1887 760 1933 c 0,16,17
 793 1980 793 1980 799 2025 c 1,0,1
1003 0 m 1,18,-1
 1003 1908 l 1,19,-1
 1002 1891 l 1,20,-1
 1002 1906 l 1,21,22
 887 1773 887 1773 691 1746 c 1,23,-1
 691 158 l 1,24,-1
 252 158 l 1,25,26
 187 51 187 51 102 0 c 1,27,-1
 1003 0 l 1,18,-1
258 240 m 1,28,-1
 567 240 l 1,29,-1
 567 1708 l 1,30,-1
 565 1702 l 1,31,32
 448 1572 448 1572 258 1545 c 1,33,-1
 258 240 l 1,28,-1
EndSplineSet
Ligature2: "'liga' Standard Ligatures in Arabic lookup 6 subtable" laminitial alefwithmaddaabovefinal
EndChar

StartChar: lamwithalefmaddaabovefinal
Encoding: 65270 65270 205
Width: 1119
Flags: W
AnchorPoint: "ArabicBelowLigature" 300 -102 baselig 1
AnchorPoint: "ArabicBelowLigature" 700 -102 baselig 0
AnchorPoint: "ArabicAboveLigature" 300 2123 baselig 1
AnchorPoint: "ArabicAboveLigature" 700 2123 baselig 0
LayerCount: 2
Fore
SplineSet
1177 -2 m 1,0,-1
 1177 156 l 1,1,-1
 984 156 l 1,2,-1
 984 1896 l 1,3,-1
 982 1879 l 1,4,-1
 982 1893 l 1,5,6
 865 1761 865 1761 672 1734 c 1,7,-1
 672 156 l 1,8,-1
 232 156 l 1,9,10
 168 48 168 48 82 -2 c 1,11,-1
 1177 -2 l 1,0,-1
238 238 m 1,12,-1
 547 238 l 1,13,-1
 547 1696 l 1,14,-1
 546 1690 l 1,15,16
 431 1560 431 1560 238 1533 c 1,17,-1
 238 238 l 1,12,-1
780 2023 m 1,18,19
 780 1884 780 1884 769 1854 c 0,20,21
 739 1770 739 1770 609 1770 c 2,22,-1
 294 1770 l 2,23,24
 253 1770 253 1770 220 1722 c 0,25,26
 187 1675 187 1675 181 1632 c 1,27,28
 181 1773 181 1773 190 1803 c 0,29,30
 221 1885 221 1885 352 1885 c 2,31,-1
 667 1885 l 2,32,33
 708 1885 708 1885 741 1931 c 0,34,35
 774 1978 774 1978 780 2023 c 1,18,19
EndSplineSet
Ligature2: "'liga' Standard Ligatures in Arabic lookup 6 subtable" lammedial alefwithmaddaabovefinal
EndChar

StartChar: lamwithalefhamzaaboveisolatedd
Encoding: 65271 65271 206
Width: 1003
Flags: W
AnchorPoint: "ArabicBelowLigature" 300 -100 baselig 1
AnchorPoint: "ArabicBelowLigature" 700 -100 baselig 0
AnchorPoint: "ArabicAboveLigature" 300 1988 baselig 1
AnchorPoint: "ArabicAboveLigature" 700 1988 baselig 0
LayerCount: 2
Fore
SplineSet
102 0 m 1,0,1
 187 51 187 51 252 158 c 1,2,-1
 691 158 l 1,3,-1
 691 1726 l 1,4,5
 887 1753 887 1753 1002 1886 c 1,6,-1
 1002 1871 l 1,7,-1
 1003 1888 l 1,8,-1
 1003 0 l 1,9,-1
 102 0 l 1,0,1
258 1525 m 1,10,11
 448 1552 448 1552 565 1682 c 1,12,-1
 567 1688 l 1,13,-1
 567 240 l 1,14,-1
 258 240 l 1,15,-1
 258 1525 l 1,10,11
284 1682 m 1,16,17
 233 1691 233 1691 223 1790 c 1,18,19
 260 1721 260 1721 345 1737 c 1,20,-1
 345 1838 l 2,21,22
 345 1883 345 1883 433 1883 c 0,23,24
 519 1883 519 1883 519 1843 c 2,25,-1
 519 1820 l 1,26,27
 490 1809 490 1809 452 1761 c 1,28,-1
 452 1826 l 2,29,30
 452 1839 452 1839 435 1839 c 0,31,32
 410 1839 410 1839 410 1826 c 2,33,-1
 410 1743 l 1,34,-1
 534 1743 l 1,35,-1
 534 1682 l 1,36,-1
 284 1682 l 1,16,17
EndSplineSet
Ligature2: "'liga' Standard Ligatures in Arabic lookup 6 subtable" laminitial alefwithhamzaabovefinal
EndChar

StartChar: lamwithalefhamzaabovefinal
Encoding: 65272 65272 207
Width: 1119
Flags: W
AnchorPoint: "ArabicBelowLigature" 300 -102 baselig 1
AnchorPoint: "ArabicBelowLigature" 700 -102 baselig 0
AnchorPoint: "ArabicAboveLigature" 300 1986 baselig 1
AnchorPoint: "ArabicAboveLigature" 700 1986 baselig 0
LayerCount: 2
Fore
SplineSet
82 -2 m 1,0,1
 168 48 168 48 232 156 c 1,2,-1
 672 156 l 1,3,-1
 672 1724 l 1,4,5
 865 1751 865 1751 982 1883 c 1,6,-1
 982 1869 l 1,7,-1
 984 1886 l 1,8,-1
 984 156 l 1,9,-1
 1177 156 l 1,10,-1
 1177 -2 l 1,11,-1
 82 -2 l 1,0,1
238 1523 m 1,12,13
 431 1550 431 1550 546 1680 c 1,14,-1
 547 1686 l 1,15,-1
 547 238 l 1,16,-1
 238 238 l 1,17,-1
 238 1523 l 1,12,13
264 1682 m 1,18,19
 213 1691 213 1691 203 1790 c 1,20,21
 240 1721 240 1721 325 1737 c 1,22,-1
 325 1838 l 2,23,24
 325 1883 325 1883 413 1883 c 0,25,26
 499 1883 499 1883 499 1843 c 2,27,-1
 499 1820 l 1,28,29
 470 1809 470 1809 432 1761 c 1,30,-1
 432 1826 l 2,31,32
 432 1839 432 1839 415 1839 c 0,33,34
 390 1839 390 1839 390 1826 c 2,35,-1
 390 1743 l 1,36,-1
 514 1743 l 1,37,-1
 514 1682 l 1,38,-1
 264 1682 l 1,18,19
EndSplineSet
Ligature2: "'liga' Standard Ligatures in Arabic lookup 6 subtable" lammedial alefwithhamzaabovefinal
EndChar

StartChar: lamwithalefhamzabelowisolated
Encoding: 65273 65273 208
Width: 964
Flags: W
AnchorPoint: "ArabicBelowLigature" 300 -424 baselig 1
AnchorPoint: "ArabicBelowLigature" 700 -424 baselig 0
AnchorPoint: "ArabicAboveLigature" 300 2011 baselig 1
AnchorPoint: "ArabicAboveLigature" 700 2011 baselig 0
LayerCount: 2
Fore
SplineSet
63 0 m 1,0,1
 149 51 149 51 213 157 c 1,2,-1
 652 157 l 1,3,-1
 652 1749 l 1,4,5
 846 1776 846 1776 963 1910 c 2,6,-1
 964 1911 l 1,7,-1
 964 0 l 1,8,-1
 63 0 l 1,0,1
219 1548 m 1,9,10
 407 1575 407 1575 526 1706 c 1,11,-1
 528 1712 l 1,12,-1
 528 240 l 1,13,-1
 219 240 l 1,14,-1
 219 1548 l 1,9,10
652 -324 m 1,15,16
 601 -315 601 -315 591 -216 c 1,17,18
 628 -285 628 -285 713 -269 c 1,19,-1
 713 -168 l 2,20,21
 713 -123 713 -123 801 -123 c 0,22,23
 887 -123 887 -123 887 -163 c 2,24,-1
 887 -186 l 1,25,26
 858 -197 858 -197 820 -245 c 1,27,-1
 820 -180 l 2,28,29
 820 -167 820 -167 803 -167 c 0,30,31
 778 -167 778 -167 778 -180 c 2,32,-1
 778 -263 l 1,33,-1
 902 -263 l 1,34,-1
 902 -324 l 1,35,-1
 652 -324 l 1,15,16
EndSplineSet
Ligature2: "'liga' Standard Ligatures in Arabic lookup 6 subtable" laminitial alefwithhamzabelowfinal
EndChar

